G04 #@! TF.FileFunction,Soldermask,Bot*
%FSLAX46Y46*%
G04 Gerber Fmt 4.6, Leading zero omitted, Abs format (unit mm)*
G04 Created by KiCad (PCBNEW 4.0.2-stable) date 2016/10/31 21:02:32*
%MOMM*%
G01*
G04 APERTURE LIST*
%ADD10C,0.100000*%
%ADD11C,4.210000*%
%ADD12R,1.924000X1.924000*%
%ADD13C,1.924000*%
%ADD14C,1.500000*%
%ADD15C,3.600000*%
%ADD16O,2.899360X3.900120*%
%ADD17R,2.200000X2.200000*%
%ADD18C,2.200000*%
%ADD19C,1.700000*%
%ADD20R,1.700000X1.700000*%
%ADD21R,3.000000X3.000000*%
%ADD22C,3.000000*%
%ADD23R,2.432000X2.432000*%
%ADD24O,2.432000X2.432000*%
%ADD25C,2.400000*%
%ADD26R,2.600000X2.600000*%
%ADD27C,2.600000*%
%ADD28C,4.700000*%
G04 APERTURE END LIST*
D10*
D11*
X174554000Y-52000000D03*
X199573000Y-52000000D03*
D12*
X181539000Y-53397000D03*
D13*
X184333000Y-53397000D03*
X187000000Y-53397000D03*
X189794000Y-53397000D03*
X192461000Y-53397000D03*
X182936000Y-50603000D03*
X185730000Y-50603000D03*
X188397000Y-50603000D03*
X191191000Y-50603000D03*
D14*
X167800000Y-89920000D03*
X167800000Y-91190000D03*
X167800000Y-92460000D03*
X167800000Y-93730000D03*
X167800000Y-95000000D03*
X167800000Y-96270000D03*
X167800000Y-97540000D03*
X167800000Y-98810000D03*
X167800000Y-100080000D03*
D15*
X119000000Y-102000000D03*
D16*
X107000000Y-90000000D03*
X112588000Y-90000000D03*
X101412000Y-90000000D03*
D17*
X159800000Y-112000000D03*
D18*
X159800000Y-109460000D03*
X159800000Y-106920000D03*
X159800000Y-104380000D03*
X152180000Y-104380000D03*
X152180000Y-106920000D03*
X152180000Y-109460000D03*
X152180000Y-112000000D03*
D17*
X97700000Y-56800000D03*
D18*
X97700000Y-59340000D03*
X97700000Y-61880000D03*
X97700000Y-64420000D03*
X105320000Y-64420000D03*
X105320000Y-61880000D03*
X105320000Y-59340000D03*
X105320000Y-56800000D03*
D17*
X137375000Y-62625000D03*
D18*
X139915000Y-62625000D03*
X142455000Y-62625000D03*
X144995000Y-62625000D03*
X144995000Y-55005000D03*
X142455000Y-55005000D03*
X139915000Y-55005000D03*
X137375000Y-55005000D03*
D17*
X159800000Y-95250000D03*
D18*
X159800000Y-92710000D03*
X159800000Y-90170000D03*
X159800000Y-87630000D03*
X159800000Y-85090000D03*
X159800000Y-82550000D03*
X159800000Y-80010000D03*
X152180000Y-80010000D03*
X152180000Y-82550000D03*
X152180000Y-85090000D03*
X152180000Y-87630000D03*
X152180000Y-90170000D03*
X152180000Y-92710000D03*
X152180000Y-95250000D03*
D19*
X95000000Y-124500000D03*
D20*
X95000000Y-121000000D03*
X102000000Y-120000000D03*
D19*
X102000000Y-125000000D03*
D20*
X155000000Y-125000000D03*
D19*
X155000000Y-122500000D03*
D20*
X108000000Y-120000000D03*
D19*
X108000000Y-125000000D03*
D20*
X107000000Y-129000000D03*
D19*
X102000000Y-129000000D03*
D21*
X96000000Y-111000000D03*
D22*
X75680000Y-111000000D03*
D23*
X188000000Y-133000000D03*
D24*
X188000000Y-135540000D03*
D23*
X183000000Y-133000000D03*
D24*
X183000000Y-135540000D03*
D16*
X131000000Y-90000000D03*
X136588000Y-90000000D03*
X125412000Y-90000000D03*
D25*
X199500000Y-78000000D03*
X204000000Y-78000000D03*
X199500000Y-71500000D03*
X204000000Y-71500000D03*
X199500000Y-92000000D03*
X204000000Y-92000000D03*
X199500000Y-85500000D03*
X204000000Y-85500000D03*
X199500000Y-106000000D03*
X204000000Y-106000000D03*
X199500000Y-99500000D03*
X204000000Y-99500000D03*
X199500000Y-120000000D03*
X204000000Y-120000000D03*
X199500000Y-113500000D03*
X204000000Y-113500000D03*
D26*
X145000000Y-120000000D03*
D27*
X145000000Y-122540000D03*
X145000000Y-125080000D03*
D15*
X78000000Y-58000000D03*
X78000000Y-135000000D03*
X200800000Y-135000000D03*
X200800000Y-58000000D03*
D28*
X85000000Y-135000000D03*
X156500000Y-135000000D03*
X167500000Y-135000000D03*
X167500000Y-52500000D03*
X156500000Y-63500000D03*
X85000000Y-63500000D03*
X85000000Y-52500000D03*
M02*
