G04 #@! TF.FileFunction,Soldermask,Top*
%FSLAX46Y46*%
G04 Gerber Fmt 4.6, Leading zero omitted, Abs format (unit mm)*
G04 Created by KiCad (PCBNEW 4.0.2-stable) date 2016/10/31 21:02:32*
%MOMM*%
G01*
G04 APERTURE LIST*
%ADD10C,0.100000*%
%ADD11C,4.210000*%
%ADD12R,1.924000X1.924000*%
%ADD13C,1.924000*%
%ADD14C,1.500000*%
%ADD15R,0.545000X1.500000*%
%ADD16R,1.500000X0.545000*%
%ADD17R,3.600000X1.400000*%
%ADD18C,3.600000*%
%ADD19O,2.899360X3.900120*%
%ADD20R,1.200000X1.150000*%
%ADD21R,1.150000X1.200000*%
%ADD22R,1.650000X1.400000*%
%ADD23R,1.400000X1.650000*%
%ADD24R,1.100000X1.000000*%
%ADD25R,1.000000X1.100000*%
%ADD26R,16.400000X7.400000*%
%ADD27R,0.900000X1.300000*%
%ADD28R,1.300000X0.900000*%
%ADD29R,2.200000X2.200000*%
%ADD30C,2.200000*%
%ADD31R,1.050000X1.460000*%
%ADD32R,1.460000X1.050000*%
%ADD33C,1.700000*%
%ADD34R,1.700000X1.700000*%
%ADD35R,3.000000X3.000000*%
%ADD36C,3.000000*%
%ADD37R,1.197560X1.197560*%
%ADD38R,2.432000X2.432000*%
%ADD39O,2.432000X2.432000*%
%ADD40C,2.400000*%
%ADD41R,2.600000X2.600000*%
%ADD42C,2.600000*%
%ADD43R,0.800000X1.450000*%
%ADD44R,0.890000X2.270000*%
%ADD45R,1.700000X2.600000*%
%ADD46R,1.800000X1.600000*%
%ADD47C,4.700000*%
%ADD48R,3.400000X3.400000*%
G04 APERTURE END LIST*
D10*
D11*
X174554000Y-52000000D03*
X199573000Y-52000000D03*
D12*
X181539000Y-53397000D03*
D13*
X184333000Y-53397000D03*
X187000000Y-53397000D03*
X189794000Y-53397000D03*
X192461000Y-53397000D03*
X182936000Y-50603000D03*
X185730000Y-50603000D03*
X188397000Y-50603000D03*
X191191000Y-50603000D03*
D14*
X167800000Y-89920000D03*
X167800000Y-91190000D03*
X167800000Y-92460000D03*
X167800000Y-93730000D03*
X167800000Y-95000000D03*
X167800000Y-96270000D03*
X167800000Y-97540000D03*
X167800000Y-98810000D03*
X167800000Y-100080000D03*
D15*
X176650000Y-83000000D03*
X177300000Y-83000000D03*
X177950000Y-83000000D03*
X178600000Y-83000000D03*
X179250000Y-83000000D03*
X179900000Y-83000000D03*
X180550000Y-83000000D03*
X181200000Y-83000000D03*
X181850000Y-83000000D03*
X182500000Y-83000000D03*
X183150000Y-83000000D03*
X183800000Y-83000000D03*
X184450000Y-83000000D03*
D16*
X186300000Y-81150000D03*
X186300000Y-80500000D03*
X186300000Y-79850000D03*
X186300000Y-79200000D03*
X186300000Y-78550000D03*
X186300000Y-77900000D03*
X186300000Y-77250000D03*
X186300000Y-76600000D03*
X186300000Y-75950000D03*
X186300000Y-75300000D03*
X186300000Y-74650000D03*
X186300000Y-74000000D03*
X186300000Y-73350000D03*
D15*
X176650000Y-71500000D03*
X177300000Y-71500000D03*
X177950000Y-71500000D03*
X178600000Y-71500000D03*
X179250000Y-71500000D03*
X179900000Y-71500000D03*
X180550000Y-71500000D03*
X181200000Y-71500000D03*
X181850000Y-71500000D03*
X182500000Y-71500000D03*
X183150000Y-71500000D03*
X183800000Y-71500000D03*
X184450000Y-71500000D03*
D16*
X174800000Y-81150000D03*
X174800000Y-80500000D03*
X174800000Y-79850000D03*
X174800000Y-79200000D03*
X174800000Y-78550000D03*
X174800000Y-77900000D03*
X174800000Y-77250000D03*
X174800000Y-76600000D03*
X174800000Y-75950000D03*
X174800000Y-75300000D03*
X174800000Y-74650000D03*
X174800000Y-74000000D03*
X174800000Y-73350000D03*
D17*
X116000000Y-85600000D03*
X116000000Y-79400000D03*
X100000000Y-85600000D03*
X100000000Y-79400000D03*
D18*
X119000000Y-102000000D03*
D19*
X107000000Y-90000000D03*
X112588000Y-90000000D03*
X101412000Y-90000000D03*
D20*
X155050000Y-115000000D03*
X156550000Y-115000000D03*
D21*
X95700000Y-61550000D03*
X95700000Y-60050000D03*
D20*
X102450000Y-53800000D03*
X100950000Y-53800000D03*
D21*
X161800000Y-106750000D03*
X161800000Y-105250000D03*
X160000000Y-124750000D03*
X160000000Y-123250000D03*
D20*
X152300000Y-102000000D03*
X153800000Y-102000000D03*
X104550000Y-50700000D03*
X106050000Y-50700000D03*
X143000000Y-64750000D03*
X144500000Y-64750000D03*
D21*
X147500000Y-55250000D03*
X147500000Y-56750000D03*
X134875000Y-58375000D03*
X134875000Y-59875000D03*
D20*
X177250000Y-69800000D03*
X178750000Y-69800000D03*
D21*
X173000000Y-74550000D03*
X173000000Y-73050000D03*
X108300000Y-52850000D03*
X108300000Y-51350000D03*
X150300000Y-88000000D03*
X150300000Y-89500000D03*
D22*
X166000000Y-93400000D03*
X166000000Y-95400000D03*
D21*
X159800000Y-97250000D03*
X159800000Y-98750000D03*
D23*
X169400000Y-96200000D03*
X171400000Y-96200000D03*
D22*
X166000000Y-99200000D03*
X166000000Y-97200000D03*
D21*
X177000000Y-98750000D03*
X177000000Y-100250000D03*
X184500000Y-98750000D03*
X184500000Y-100250000D03*
X174800000Y-89250000D03*
X174800000Y-90750000D03*
X178800000Y-90750000D03*
X178800000Y-89250000D03*
D20*
X183150000Y-89500000D03*
X184650000Y-89500000D03*
D21*
X186800000Y-87750000D03*
X186800000Y-86250000D03*
D23*
X186800000Y-84000000D03*
X188800000Y-84000000D03*
D21*
X181000000Y-63150000D03*
X181000000Y-64650000D03*
D20*
X191550000Y-58000000D03*
X190050000Y-58000000D03*
D21*
X185800000Y-57750000D03*
X185800000Y-56250000D03*
D20*
X188550000Y-58000000D03*
X187050000Y-58000000D03*
D21*
X193800000Y-64750000D03*
X193800000Y-63250000D03*
D24*
X148000000Y-121700000D03*
X148000000Y-120300000D03*
X103100000Y-50700000D03*
X103100000Y-49300000D03*
D25*
X106100000Y-49300000D03*
X104700000Y-49300000D03*
X177300000Y-66400000D03*
X178700000Y-66400000D03*
X179900000Y-68000000D03*
X178500000Y-68000000D03*
D24*
X169400000Y-75700000D03*
X169400000Y-77100000D03*
X171600000Y-73100000D03*
X171600000Y-74500000D03*
D26*
X82000000Y-118500000D03*
X82000000Y-126500000D03*
X82000000Y-98000000D03*
X82000000Y-82000000D03*
X82000000Y-74000000D03*
X82000000Y-90000000D03*
D27*
X148750000Y-108600000D03*
X147250000Y-108600000D03*
D28*
X94200000Y-69550000D03*
X94200000Y-71050000D03*
X92000000Y-64750000D03*
X92000000Y-66250000D03*
X94200000Y-66550000D03*
X94200000Y-68050000D03*
X92000000Y-61750000D03*
X92000000Y-63250000D03*
X163800000Y-111250000D03*
X163800000Y-112750000D03*
X95700000Y-64550000D03*
X95700000Y-63050000D03*
X95700000Y-56550000D03*
X95700000Y-58050000D03*
X163800000Y-105250000D03*
X163800000Y-106750000D03*
D27*
X101850000Y-50700000D03*
X100350000Y-50700000D03*
D28*
X110000000Y-127250000D03*
X110000000Y-128750000D03*
X143000000Y-66250000D03*
X143000000Y-67750000D03*
X152300000Y-99000000D03*
X152300000Y-100500000D03*
D27*
X144750000Y-52750000D03*
X143250000Y-52750000D03*
D28*
X149250000Y-56750000D03*
X149250000Y-55250000D03*
D27*
X177150000Y-68000000D03*
X175650000Y-68000000D03*
X170350000Y-74200000D03*
X168850000Y-74200000D03*
D28*
X149800000Y-96500000D03*
X149800000Y-95000000D03*
D27*
X170750000Y-93000000D03*
X169250000Y-93000000D03*
X170750000Y-91200000D03*
X169250000Y-91200000D03*
X170750000Y-89400000D03*
X169250000Y-89400000D03*
X148800000Y-82500000D03*
X150300000Y-82500000D03*
X170550000Y-80800000D03*
X169050000Y-80800000D03*
X170550000Y-79000000D03*
X169050000Y-79000000D03*
X171650000Y-82600000D03*
X170150000Y-82600000D03*
X161450000Y-77400000D03*
X159950000Y-77400000D03*
X178300000Y-103750000D03*
X179800000Y-103750000D03*
X181300000Y-103750000D03*
X182800000Y-103750000D03*
X180050000Y-94000000D03*
X181550000Y-94000000D03*
X182850000Y-91400000D03*
X181350000Y-91400000D03*
X198050000Y-68000000D03*
X199550000Y-68000000D03*
D29*
X159800000Y-112000000D03*
D30*
X159800000Y-109460000D03*
X159800000Y-106920000D03*
X159800000Y-104380000D03*
X152180000Y-104380000D03*
X152180000Y-106920000D03*
X152180000Y-109460000D03*
X152180000Y-112000000D03*
D29*
X97700000Y-56800000D03*
D30*
X97700000Y-59340000D03*
X97700000Y-61880000D03*
X97700000Y-64420000D03*
X105320000Y-64420000D03*
X105320000Y-61880000D03*
X105320000Y-59340000D03*
X105320000Y-56800000D03*
D29*
X137375000Y-62625000D03*
D30*
X139915000Y-62625000D03*
X142455000Y-62625000D03*
X144995000Y-62625000D03*
X144995000Y-55005000D03*
X142455000Y-55005000D03*
X139915000Y-55005000D03*
X137375000Y-55005000D03*
D31*
X150000000Y-91400000D03*
X149050000Y-91400000D03*
X148100000Y-91400000D03*
X148100000Y-93600000D03*
X150000000Y-93600000D03*
D32*
X104200000Y-52150000D03*
X104200000Y-53100000D03*
X104200000Y-54050000D03*
X106400000Y-54050000D03*
X106400000Y-52150000D03*
X106400000Y-53100000D03*
D29*
X159800000Y-95250000D03*
D30*
X159800000Y-92710000D03*
X159800000Y-90170000D03*
X159800000Y-87630000D03*
X159800000Y-85090000D03*
X159800000Y-82550000D03*
X159800000Y-80010000D03*
X152180000Y-80010000D03*
X152180000Y-82550000D03*
X152180000Y-85090000D03*
X152180000Y-87630000D03*
X152180000Y-90170000D03*
X152180000Y-92710000D03*
X152180000Y-95250000D03*
D33*
X95000000Y-124500000D03*
D34*
X95000000Y-121000000D03*
X102000000Y-120000000D03*
D33*
X102000000Y-125000000D03*
D34*
X155000000Y-125000000D03*
D33*
X155000000Y-122500000D03*
D34*
X108000000Y-120000000D03*
D33*
X108000000Y-125000000D03*
D21*
X150200000Y-107250000D03*
X150200000Y-108750000D03*
X161800000Y-109250000D03*
X161800000Y-110750000D03*
D34*
X107000000Y-129000000D03*
D33*
X102000000Y-129000000D03*
D35*
X96000000Y-111000000D03*
D36*
X75680000Y-111000000D03*
D37*
X112000000Y-127749300D03*
X112000000Y-126250700D03*
X202250700Y-68000000D03*
X203749300Y-68000000D03*
D38*
X188000000Y-133000000D03*
D39*
X188000000Y-135540000D03*
D38*
X183000000Y-133000000D03*
D39*
X183000000Y-135540000D03*
D19*
X131000000Y-90000000D03*
X136588000Y-90000000D03*
X125412000Y-90000000D03*
D17*
X100000000Y-76100000D03*
X100000000Y-69900000D03*
D27*
X163300000Y-109250000D03*
X164800000Y-109250000D03*
X148050000Y-105000000D03*
X149550000Y-105000000D03*
D17*
X104000000Y-76100000D03*
X104000000Y-69900000D03*
X108000000Y-76100000D03*
X108000000Y-69900000D03*
X112000000Y-76100000D03*
X112000000Y-69900000D03*
X116000000Y-76100000D03*
X116000000Y-69900000D03*
X120000000Y-76100000D03*
X120000000Y-69900000D03*
X124000000Y-76100000D03*
X124000000Y-69900000D03*
X128000000Y-76100000D03*
X128000000Y-69900000D03*
X104000000Y-85600000D03*
X104000000Y-79400000D03*
X108000000Y-85600000D03*
X108000000Y-79400000D03*
X112000000Y-85600000D03*
X112000000Y-79400000D03*
X120000000Y-85600000D03*
X120000000Y-79400000D03*
X124000000Y-85600000D03*
X124000000Y-79400000D03*
X128000000Y-85600000D03*
X128000000Y-79400000D03*
D40*
X199500000Y-78000000D03*
X204000000Y-78000000D03*
X199500000Y-71500000D03*
X204000000Y-71500000D03*
X199500000Y-92000000D03*
X204000000Y-92000000D03*
X199500000Y-85500000D03*
X204000000Y-85500000D03*
X199500000Y-106000000D03*
X204000000Y-106000000D03*
X199500000Y-99500000D03*
X204000000Y-99500000D03*
X199500000Y-120000000D03*
X204000000Y-120000000D03*
X199500000Y-113500000D03*
X204000000Y-113500000D03*
D41*
X145000000Y-120000000D03*
D42*
X145000000Y-122540000D03*
X145000000Y-125080000D03*
D43*
X178800000Y-102000000D03*
X180070000Y-102000000D03*
X181340000Y-102000000D03*
X182610000Y-102000000D03*
X182610000Y-96250000D03*
X181340000Y-96250000D03*
X180070000Y-96250000D03*
X178800000Y-96250000D03*
D44*
X191800000Y-60000000D03*
X190530000Y-60000000D03*
X189260000Y-60000000D03*
X187990000Y-60000000D03*
X186720000Y-60000000D03*
X185450000Y-60000000D03*
X184180000Y-60000000D03*
X182910000Y-60000000D03*
X182910000Y-67300000D03*
X184180000Y-67300000D03*
X185450000Y-67300000D03*
X186720000Y-67300000D03*
X187990000Y-67300000D03*
X189260000Y-67300000D03*
X190530000Y-67300000D03*
X191800000Y-67300000D03*
D45*
X178900000Y-87000000D03*
X174700000Y-87000000D03*
D46*
X182700000Y-87800000D03*
X184900000Y-87800000D03*
X182700000Y-86200000D03*
X184900000Y-86200000D03*
D23*
X173000000Y-76400000D03*
X171000000Y-76400000D03*
D18*
X78000000Y-58000000D03*
X78000000Y-135000000D03*
X200800000Y-135000000D03*
X200800000Y-58000000D03*
D47*
X85000000Y-135000000D03*
X156500000Y-135000000D03*
X167500000Y-135000000D03*
X167500000Y-52500000D03*
X156500000Y-63500000D03*
X85000000Y-63500000D03*
X85000000Y-52500000D03*
D48*
X95000000Y-116000000D03*
X102000000Y-134000000D03*
X107000000Y-134000000D03*
M02*
