G04 #@! TF.FileFunction,Legend,Bot*
%FSLAX46Y46*%
G04 Gerber Fmt 4.6, Leading zero omitted, Abs format (unit mm)*
G04 Created by KiCad (PCBNEW 4.0.2-stable) date 2016/10/31 21:02:32*
%MOMM*%
G01*
G04 APERTURE LIST*
%ADD10C,0.100000*%
%ADD11C,0.300000*%
%ADD12C,0.200000*%
%ADD13C,0.150000*%
G04 APERTURE END LIST*
D10*
D11*
X201607143Y-69071429D02*
X201607143Y-67928572D01*
X201892857Y-68214286D02*
X201607143Y-67928572D01*
X201321429Y-68214286D01*
X201607143Y-109428572D02*
X201607143Y-110571429D01*
X201892857Y-110285715D02*
X201607143Y-110571429D01*
X201321429Y-110285715D01*
X201035714Y-82000000D02*
X202178571Y-82000000D01*
X201892857Y-82285715D02*
X202178571Y-82000000D01*
X201892857Y-81714286D01*
X202178571Y-96000000D02*
X201035714Y-96000000D01*
X201321429Y-95714286D02*
X201035714Y-96000000D01*
X201321429Y-96285715D01*
X83714286Y-119678571D02*
X83714286Y-118178571D01*
X83000000Y-119678571D02*
X83000000Y-118178571D01*
X82142857Y-119678571D01*
X82142857Y-118178571D01*
X81428571Y-119107143D02*
X80285714Y-119107143D01*
X80857143Y-119678571D02*
X80857143Y-118535714D01*
X83714286Y-127678571D02*
X83714286Y-126178571D01*
X83000000Y-127678571D02*
X83000000Y-126178571D01*
X82142857Y-127678571D01*
X82142857Y-126178571D01*
X81428571Y-127107143D02*
X80285714Y-127107143D01*
X84428572Y-97178571D02*
X84142858Y-97178571D01*
X84000000Y-97250000D01*
X83857143Y-97392857D01*
X83785715Y-97678571D01*
X83785715Y-98178571D01*
X83857143Y-98464286D01*
X84000000Y-98607143D01*
X84142858Y-98678571D01*
X84428572Y-98678571D01*
X84571429Y-98607143D01*
X84714286Y-98464286D01*
X84785715Y-98178571D01*
X84785715Y-97678571D01*
X84714286Y-97392857D01*
X84571429Y-97250000D01*
X84428572Y-97178571D01*
X83142857Y-97178571D02*
X83142857Y-98392857D01*
X83071429Y-98535714D01*
X83000000Y-98607143D01*
X82857143Y-98678571D01*
X82571429Y-98678571D01*
X82428571Y-98607143D01*
X82357143Y-98535714D01*
X82285714Y-98392857D01*
X82285714Y-97178571D01*
X81785714Y-97178571D02*
X80928571Y-97178571D01*
X81357142Y-98678571D02*
X81357142Y-97178571D01*
X80428571Y-98107143D02*
X79285714Y-98107143D01*
X79857143Y-98678571D02*
X79857143Y-97535714D01*
X84428572Y-89178571D02*
X84142858Y-89178571D01*
X84000000Y-89250000D01*
X83857143Y-89392857D01*
X83785715Y-89678571D01*
X83785715Y-90178571D01*
X83857143Y-90464286D01*
X84000000Y-90607143D01*
X84142858Y-90678571D01*
X84428572Y-90678571D01*
X84571429Y-90607143D01*
X84714286Y-90464286D01*
X84785715Y-90178571D01*
X84785715Y-89678571D01*
X84714286Y-89392857D01*
X84571429Y-89250000D01*
X84428572Y-89178571D01*
X83142857Y-89178571D02*
X83142857Y-90392857D01*
X83071429Y-90535714D01*
X83000000Y-90607143D01*
X82857143Y-90678571D01*
X82571429Y-90678571D01*
X82428571Y-90607143D01*
X82357143Y-90535714D01*
X82285714Y-90392857D01*
X82285714Y-89178571D01*
X81785714Y-89178571D02*
X80928571Y-89178571D01*
X81357142Y-90678571D02*
X81357142Y-89178571D01*
X80428571Y-90107143D02*
X79285714Y-90107143D01*
X85142857Y-81178571D02*
X84857143Y-81178571D01*
X84714285Y-81250000D01*
X84571428Y-81392857D01*
X84500000Y-81678571D01*
X84500000Y-82178571D01*
X84571428Y-82464286D01*
X84714285Y-82607143D01*
X84857143Y-82678571D01*
X85142857Y-82678571D01*
X85285714Y-82607143D01*
X85428571Y-82464286D01*
X85500000Y-82178571D01*
X85500000Y-81678571D01*
X85428571Y-81392857D01*
X85285714Y-81250000D01*
X85142857Y-81178571D01*
X83857142Y-81178571D02*
X83857142Y-82392857D01*
X83785714Y-82535714D01*
X83714285Y-82607143D01*
X83571428Y-82678571D01*
X83285714Y-82678571D01*
X83142856Y-82607143D01*
X83071428Y-82535714D01*
X82999999Y-82392857D01*
X82999999Y-81178571D01*
X82499999Y-81178571D02*
X81642856Y-81178571D01*
X82071427Y-82678571D02*
X82071427Y-81178571D01*
X81142856Y-82107143D02*
X79999999Y-82107143D01*
X80571428Y-82678571D02*
X80571428Y-81535714D01*
X79357142Y-82607143D02*
X79142856Y-82678571D01*
X78785713Y-82678571D01*
X78642856Y-82607143D01*
X78571427Y-82535714D01*
X78499999Y-82392857D01*
X78499999Y-82250000D01*
X78571427Y-82107143D01*
X78642856Y-82035714D01*
X78785713Y-81964286D01*
X79071427Y-81892857D01*
X79214285Y-81821429D01*
X79285713Y-81750000D01*
X79357142Y-81607143D01*
X79357142Y-81464286D01*
X79285713Y-81321429D01*
X79214285Y-81250000D01*
X79071427Y-81178571D01*
X78714285Y-81178571D01*
X78499999Y-81250000D01*
X85142857Y-73178571D02*
X84857143Y-73178571D01*
X84714285Y-73250000D01*
X84571428Y-73392857D01*
X84500000Y-73678571D01*
X84500000Y-74178571D01*
X84571428Y-74464286D01*
X84714285Y-74607143D01*
X84857143Y-74678571D01*
X85142857Y-74678571D01*
X85285714Y-74607143D01*
X85428571Y-74464286D01*
X85500000Y-74178571D01*
X85500000Y-73678571D01*
X85428571Y-73392857D01*
X85285714Y-73250000D01*
X85142857Y-73178571D01*
X83857142Y-73178571D02*
X83857142Y-74392857D01*
X83785714Y-74535714D01*
X83714285Y-74607143D01*
X83571428Y-74678571D01*
X83285714Y-74678571D01*
X83142856Y-74607143D01*
X83071428Y-74535714D01*
X82999999Y-74392857D01*
X82999999Y-73178571D01*
X82499999Y-73178571D02*
X81642856Y-73178571D01*
X82071427Y-74678571D02*
X82071427Y-73178571D01*
X81142856Y-74107143D02*
X79999999Y-74107143D01*
X79357142Y-74607143D02*
X79142856Y-74678571D01*
X78785713Y-74678571D01*
X78642856Y-74607143D01*
X78571427Y-74535714D01*
X78499999Y-74392857D01*
X78499999Y-74250000D01*
X78571427Y-74107143D01*
X78642856Y-74035714D01*
X78785713Y-73964286D01*
X79071427Y-73892857D01*
X79214285Y-73821429D01*
X79285713Y-73750000D01*
X79357142Y-73607143D01*
X79357142Y-73464286D01*
X79285713Y-73321429D01*
X79214285Y-73250000D01*
X79071427Y-73178571D01*
X78714285Y-73178571D01*
X78499999Y-73250000D01*
D12*
X123000000Y-90000000D02*
X139000000Y-90000000D01*
X139000000Y-90000000D02*
X139000000Y-115000000D01*
X139000000Y-115000000D02*
X123000000Y-115000000D01*
X123000000Y-115000000D02*
X123000000Y-90000000D01*
X99000000Y-115000000D02*
X99000000Y-90000000D01*
X115000000Y-115000000D02*
X99000000Y-115000000D01*
X115000000Y-90000000D02*
X115000000Y-115000000D01*
X99000000Y-90000000D02*
X115000000Y-90000000D01*
D13*
X172014000Y-55175000D02*
X172014000Y-48571000D01*
X172014000Y-48571000D02*
X201986000Y-48571000D01*
X201986000Y-48571000D02*
X201986000Y-55175000D01*
X201986000Y-55175000D02*
X172014000Y-55175000D01*
X167800000Y-87000000D02*
X167800000Y-62000000D01*
X167800000Y-103000000D02*
X167800000Y-128000000D01*
X167800000Y-62000000D02*
X195500000Y-62000000D01*
X195500000Y-62000000D02*
X195500000Y-128000000D01*
X167800000Y-128000000D02*
X195500000Y-128000000D01*
X91001000Y-122825000D02*
X98999000Y-122825000D01*
X91006000Y-122965000D02*
X98994000Y-122965000D01*
X91016000Y-123105000D02*
X98984000Y-123105000D01*
X91031000Y-123245000D02*
X98969000Y-123245000D01*
X91051000Y-123385000D02*
X98949000Y-123385000D01*
X91076000Y-123525000D02*
X94778000Y-123525000D01*
X95222000Y-123525000D02*
X98924000Y-123525000D01*
X91106000Y-123665000D02*
X94450000Y-123665000D01*
X95550000Y-123665000D02*
X98894000Y-123665000D01*
X91142000Y-123805000D02*
X94281000Y-123805000D01*
X95719000Y-123805000D02*
X98858000Y-123805000D01*
X91183000Y-123945000D02*
X94168000Y-123945000D01*
X95832000Y-123945000D02*
X98817000Y-123945000D01*
X91229000Y-124085000D02*
X94090000Y-124085000D01*
X95910000Y-124085000D02*
X98771000Y-124085000D01*
X91282000Y-124225000D02*
X94039000Y-124225000D01*
X95961000Y-124225000D02*
X98718000Y-124225000D01*
X91341000Y-124365000D02*
X94009000Y-124365000D01*
X95991000Y-124365000D02*
X98659000Y-124365000D01*
X91406000Y-124505000D02*
X94000000Y-124505000D01*
X96000000Y-124505000D02*
X98594000Y-124505000D01*
X91477000Y-124645000D02*
X94011000Y-124645000D01*
X95989000Y-124645000D02*
X98523000Y-124645000D01*
X91556000Y-124785000D02*
X94041000Y-124785000D01*
X95959000Y-124785000D02*
X98444000Y-124785000D01*
X91643000Y-124925000D02*
X94095000Y-124925000D01*
X95905000Y-124925000D02*
X98357000Y-124925000D01*
X91738000Y-125065000D02*
X94175000Y-125065000D01*
X95825000Y-125065000D02*
X98262000Y-125065000D01*
X91842000Y-125205000D02*
X94291000Y-125205000D01*
X95709000Y-125205000D02*
X98158000Y-125205000D01*
X91956000Y-125345000D02*
X94465000Y-125345000D01*
X95535000Y-125345000D02*
X98044000Y-125345000D01*
X92081000Y-125485000D02*
X94827000Y-125485000D01*
X95173000Y-125485000D02*
X97919000Y-125485000D01*
X92219000Y-125625000D02*
X97781000Y-125625000D01*
X92371000Y-125765000D02*
X97629000Y-125765000D01*
X92541000Y-125905000D02*
X97459000Y-125905000D01*
X92732000Y-126045000D02*
X97268000Y-126045000D01*
X92950000Y-126185000D02*
X97050000Y-126185000D01*
X93206000Y-126325000D02*
X96794000Y-126325000D01*
X93517000Y-126465000D02*
X96483000Y-126465000D01*
X93933000Y-126605000D02*
X96067000Y-126605000D01*
X94800000Y-126745000D02*
X95200000Y-126745000D01*
X96000000Y-124500000D02*
G75*
G03X96000000Y-124500000I-1000000J0D01*
G01*
X99037500Y-122750000D02*
G75*
G03X99037500Y-122750000I-4037500J0D01*
G01*
X99750000Y-119000000D02*
X99750000Y-126000000D01*
X99750000Y-126000000D02*
X104250000Y-126000000D01*
X104250000Y-126000000D02*
X104250000Y-119000000D01*
X104250000Y-119000000D02*
X99750000Y-119000000D01*
X157499000Y-123675000D02*
X152501000Y-123675000D01*
X157491000Y-123535000D02*
X152509000Y-123535000D01*
X157475000Y-123395000D02*
X155095000Y-123395000D01*
X154905000Y-123395000D02*
X152525000Y-123395000D01*
X157451000Y-123255000D02*
X155490000Y-123255000D01*
X154510000Y-123255000D02*
X152549000Y-123255000D01*
X157418000Y-123115000D02*
X155657000Y-123115000D01*
X154343000Y-123115000D02*
X152582000Y-123115000D01*
X157377000Y-122975000D02*
X155764000Y-122975000D01*
X154236000Y-122975000D02*
X152623000Y-122975000D01*
X157327000Y-122835000D02*
X155835000Y-122835000D01*
X154165000Y-122835000D02*
X152673000Y-122835000D01*
X157266000Y-122695000D02*
X155879000Y-122695000D01*
X154121000Y-122695000D02*
X152734000Y-122695000D01*
X157196000Y-122555000D02*
X155898000Y-122555000D01*
X154102000Y-122555000D02*
X152804000Y-122555000D01*
X157114000Y-122415000D02*
X155896000Y-122415000D01*
X154104000Y-122415000D02*
X152886000Y-122415000D01*
X157019000Y-122275000D02*
X155871000Y-122275000D01*
X154129000Y-122275000D02*
X152981000Y-122275000D01*
X156908000Y-122135000D02*
X155823000Y-122135000D01*
X154177000Y-122135000D02*
X153092000Y-122135000D01*
X156780000Y-121995000D02*
X155745000Y-121995000D01*
X154255000Y-121995000D02*
X153220000Y-121995000D01*
X156631000Y-121855000D02*
X155628000Y-121855000D01*
X154372000Y-121855000D02*
X153369000Y-121855000D01*
X156452000Y-121715000D02*
X155440000Y-121715000D01*
X154560000Y-121715000D02*
X153548000Y-121715000D01*
X156233000Y-121575000D02*
X153767000Y-121575000D01*
X155944000Y-121435000D02*
X154056000Y-121435000D01*
X155472000Y-121295000D02*
X154528000Y-121295000D01*
X155900000Y-122500000D02*
G75*
G03X155900000Y-122500000I-900000J0D01*
G01*
X157537500Y-123750000D02*
G75*
G03X157537500Y-123750000I-2537500J0D01*
G01*
X105750000Y-119000000D02*
X105750000Y-126000000D01*
X105750000Y-126000000D02*
X110250000Y-126000000D01*
X110250000Y-126000000D02*
X110250000Y-119000000D01*
X110250000Y-119000000D02*
X105750000Y-119000000D01*
X108000000Y-126750000D02*
X101000000Y-126750000D01*
X101000000Y-126750000D02*
X101000000Y-131250000D01*
X101000000Y-131250000D02*
X108000000Y-131250000D01*
X108000000Y-131250000D02*
X108000000Y-126750000D01*
X90590000Y-108350000D02*
X90590000Y-113650000D01*
X90590000Y-113650000D02*
X81090000Y-113650000D01*
X81090000Y-113650000D02*
X81090000Y-108350000D01*
X90590000Y-108350000D02*
X81090000Y-108350000D01*
X94500000Y-111000000D02*
X90590000Y-111000000D01*
X81090000Y-111000000D02*
X77180000Y-111000000D01*
X186730000Y-134270000D02*
X186730000Y-136810000D01*
X186450000Y-131450000D02*
X186450000Y-133000000D01*
X186730000Y-134270000D02*
X189270000Y-134270000D01*
X189550000Y-133000000D02*
X189550000Y-131450000D01*
X189550000Y-131450000D02*
X186450000Y-131450000D01*
X189270000Y-134270000D02*
X189270000Y-136810000D01*
X189270000Y-136810000D02*
X186730000Y-136810000D01*
X181730000Y-134270000D02*
X181730000Y-136810000D01*
X181450000Y-131450000D02*
X181450000Y-133000000D01*
X181730000Y-134270000D02*
X184270000Y-134270000D01*
X184550000Y-133000000D02*
X184550000Y-131450000D01*
X184550000Y-131450000D02*
X181450000Y-131450000D01*
X184270000Y-134270000D02*
X184270000Y-136810000D01*
X184270000Y-136810000D02*
X181730000Y-136810000D01*
X203765564Y-74750000D02*
G75*
G03X203765564Y-74750000I-2015564J0D01*
G01*
X198500000Y-77000000D02*
X198500000Y-72500000D01*
X202500000Y-78250000D02*
X201000000Y-78250000D01*
X205000000Y-72500000D02*
X205000000Y-77000000D01*
X201000000Y-71250000D02*
X202500000Y-71250000D01*
X203765564Y-88750000D02*
G75*
G03X203765564Y-88750000I-2015564J0D01*
G01*
X198500000Y-91000000D02*
X198500000Y-86500000D01*
X202500000Y-92250000D02*
X201000000Y-92250000D01*
X205000000Y-86500000D02*
X205000000Y-91000000D01*
X201000000Y-85250000D02*
X202500000Y-85250000D01*
X203765564Y-102750000D02*
G75*
G03X203765564Y-102750000I-2015564J0D01*
G01*
X198500000Y-105000000D02*
X198500000Y-100500000D01*
X202500000Y-106250000D02*
X201000000Y-106250000D01*
X205000000Y-100500000D02*
X205000000Y-105000000D01*
X201000000Y-99250000D02*
X202500000Y-99250000D01*
X203765564Y-116750000D02*
G75*
G03X203765564Y-116750000I-2015564J0D01*
G01*
X198500000Y-119000000D02*
X198500000Y-114500000D01*
X202500000Y-120250000D02*
X201000000Y-120250000D01*
X205000000Y-114500000D02*
X205000000Y-119000000D01*
X201000000Y-113250000D02*
X202500000Y-113250000D01*
X146270000Y-118730000D02*
X142330000Y-118730000D01*
X146270000Y-126350000D02*
X142330000Y-126350000D01*
X146270000Y-118730000D02*
X146270000Y-126350000D01*
X142330000Y-118730000D02*
X142330000Y-126350000D01*
X142830000Y-118730000D02*
X142830000Y-126350000D01*
X171738095Y-50452381D02*
X171738095Y-49452381D01*
X171357142Y-49452381D01*
X171261904Y-49500000D01*
X171214285Y-49547619D01*
X171166666Y-49642857D01*
X171166666Y-49785714D01*
X171214285Y-49880952D01*
X171261904Y-49928571D01*
X171357142Y-49976190D01*
X171738095Y-49976190D01*
X170690476Y-50452381D02*
X170500000Y-50452381D01*
X170404761Y-50404762D01*
X170357142Y-50357143D01*
X170261904Y-50214286D01*
X170214285Y-50023810D01*
X170214285Y-49642857D01*
X170261904Y-49547619D01*
X170309523Y-49500000D01*
X170404761Y-49452381D01*
X170595238Y-49452381D01*
X170690476Y-49500000D01*
X170738095Y-49547619D01*
X170785714Y-49642857D01*
X170785714Y-49880952D01*
X170738095Y-49976190D01*
X170690476Y-50023810D01*
X170595238Y-50071429D01*
X170404761Y-50071429D01*
X170309523Y-50023810D01*
X170261904Y-49976190D01*
X170214285Y-49880952D01*
X166442381Y-93785714D02*
X165442381Y-93785714D01*
X165442381Y-94023809D01*
X165490000Y-94166667D01*
X165585238Y-94261905D01*
X165680476Y-94309524D01*
X165870952Y-94357143D01*
X166013810Y-94357143D01*
X166204286Y-94309524D01*
X166299524Y-94261905D01*
X166394762Y-94166667D01*
X166442381Y-94023809D01*
X166442381Y-93785714D01*
X166394762Y-94738095D02*
X166442381Y-94880952D01*
X166442381Y-95119048D01*
X166394762Y-95214286D01*
X166347143Y-95261905D01*
X166251905Y-95309524D01*
X166156667Y-95309524D01*
X166061429Y-95261905D01*
X166013810Y-95214286D01*
X165966190Y-95119048D01*
X165918571Y-94928571D01*
X165870952Y-94833333D01*
X165823333Y-94785714D01*
X165728095Y-94738095D01*
X165632857Y-94738095D01*
X165537619Y-94785714D01*
X165490000Y-94833333D01*
X165442381Y-94928571D01*
X165442381Y-95166667D01*
X165490000Y-95309524D01*
X166442381Y-96261905D02*
X166442381Y-95690476D01*
X166442381Y-95976190D02*
X165442381Y-95976190D01*
X165585238Y-95880952D01*
X165680476Y-95785714D01*
X165728095Y-95690476D01*
X97095238Y-91547619D02*
X97190476Y-91500000D01*
X97285714Y-91404762D01*
X97428571Y-91261905D01*
X97523810Y-91214286D01*
X97619048Y-91214286D01*
X97571429Y-91452381D02*
X97666667Y-91404762D01*
X97761905Y-91309524D01*
X97809524Y-91119048D01*
X97809524Y-90785714D01*
X97761905Y-90595238D01*
X97666667Y-90500000D01*
X97571429Y-90452381D01*
X97380952Y-90452381D01*
X97285714Y-90500000D01*
X97190476Y-90595238D01*
X97142857Y-90785714D01*
X97142857Y-91119048D01*
X97190476Y-91309524D01*
X97285714Y-91404762D01*
X97380952Y-91452381D01*
X97571429Y-91452381D01*
X96761905Y-90547619D02*
X96714286Y-90500000D01*
X96619048Y-90452381D01*
X96380952Y-90452381D01*
X96285714Y-90500000D01*
X96238095Y-90547619D01*
X96190476Y-90642857D01*
X96190476Y-90738095D01*
X96238095Y-90880952D01*
X96809524Y-91452381D01*
X96190476Y-91452381D01*
X95357143Y-127833334D02*
X95404762Y-127785715D01*
X95452381Y-127642858D01*
X95452381Y-127547620D01*
X95404762Y-127404762D01*
X95309524Y-127309524D01*
X95214286Y-127261905D01*
X95023810Y-127214286D01*
X94880952Y-127214286D01*
X94690476Y-127261905D01*
X94595238Y-127309524D01*
X94500000Y-127404762D01*
X94452381Y-127547620D01*
X94452381Y-127642858D01*
X94500000Y-127785715D01*
X94547619Y-127833334D01*
X95452381Y-128785715D02*
X95452381Y-128214286D01*
X95452381Y-128500000D02*
X94452381Y-128500000D01*
X94595238Y-128404762D01*
X94690476Y-128309524D01*
X94738095Y-128214286D01*
X102357143Y-116833334D02*
X102404762Y-116785715D01*
X102452381Y-116642858D01*
X102452381Y-116547620D01*
X102404762Y-116404762D01*
X102309524Y-116309524D01*
X102214286Y-116261905D01*
X102023810Y-116214286D01*
X101880952Y-116214286D01*
X101690476Y-116261905D01*
X101595238Y-116309524D01*
X101500000Y-116404762D01*
X101452381Y-116547620D01*
X101452381Y-116642858D01*
X101500000Y-116785715D01*
X101547619Y-116833334D01*
X101452381Y-117166667D02*
X101452381Y-117785715D01*
X101833333Y-117452381D01*
X101833333Y-117595239D01*
X101880952Y-117690477D01*
X101928571Y-117738096D01*
X102023810Y-117785715D01*
X102261905Y-117785715D01*
X102357143Y-117738096D01*
X102404762Y-117690477D01*
X102452381Y-117595239D01*
X102452381Y-117309524D01*
X102404762Y-117214286D01*
X102357143Y-117166667D01*
X152357143Y-126333334D02*
X152404762Y-126285715D01*
X152452381Y-126142858D01*
X152452381Y-126047620D01*
X152404762Y-125904762D01*
X152309524Y-125809524D01*
X152214286Y-125761905D01*
X152023810Y-125714286D01*
X151880952Y-125714286D01*
X151690476Y-125761905D01*
X151595238Y-125809524D01*
X151500000Y-125904762D01*
X151452381Y-126047620D01*
X151452381Y-126142858D01*
X151500000Y-126285715D01*
X151547619Y-126333334D01*
X151452381Y-127190477D02*
X151452381Y-127000000D01*
X151500000Y-126904762D01*
X151547619Y-126857143D01*
X151690476Y-126761905D01*
X151880952Y-126714286D01*
X152261905Y-126714286D01*
X152357143Y-126761905D01*
X152404762Y-126809524D01*
X152452381Y-126904762D01*
X152452381Y-127095239D01*
X152404762Y-127190477D01*
X152357143Y-127238096D01*
X152261905Y-127285715D01*
X152023810Y-127285715D01*
X151928571Y-127238096D01*
X151880952Y-127190477D01*
X151833333Y-127095239D01*
X151833333Y-126904762D01*
X151880952Y-126809524D01*
X151928571Y-126761905D01*
X152023810Y-126714286D01*
X108357143Y-116357143D02*
X108404762Y-116309524D01*
X108452381Y-116166667D01*
X108452381Y-116071429D01*
X108404762Y-115928571D01*
X108309524Y-115833333D01*
X108214286Y-115785714D01*
X108023810Y-115738095D01*
X107880952Y-115738095D01*
X107690476Y-115785714D01*
X107595238Y-115833333D01*
X107500000Y-115928571D01*
X107452381Y-116071429D01*
X107452381Y-116166667D01*
X107500000Y-116309524D01*
X107547619Y-116357143D01*
X108452381Y-117309524D02*
X108452381Y-116738095D01*
X108452381Y-117023809D02*
X107452381Y-117023809D01*
X107595238Y-116928571D01*
X107690476Y-116833333D01*
X107738095Y-116738095D01*
X107452381Y-118166667D02*
X107452381Y-117976190D01*
X107500000Y-117880952D01*
X107547619Y-117833333D01*
X107690476Y-117738095D01*
X107880952Y-117690476D01*
X108261905Y-117690476D01*
X108357143Y-117738095D01*
X108404762Y-117785714D01*
X108452381Y-117880952D01*
X108452381Y-118071429D01*
X108404762Y-118166667D01*
X108357143Y-118214286D01*
X108261905Y-118261905D01*
X108023810Y-118261905D01*
X107928571Y-118214286D01*
X107880952Y-118166667D01*
X107833333Y-118071429D01*
X107833333Y-117880952D01*
X107880952Y-117785714D01*
X107928571Y-117738095D01*
X108023810Y-117690476D01*
X99642857Y-130357143D02*
X99690476Y-130404762D01*
X99833333Y-130452381D01*
X99928571Y-130452381D01*
X100071429Y-130404762D01*
X100166667Y-130309524D01*
X100214286Y-130214286D01*
X100261905Y-130023810D01*
X100261905Y-129880952D01*
X100214286Y-129690476D01*
X100166667Y-129595238D01*
X100071429Y-129500000D01*
X99928571Y-129452381D01*
X99833333Y-129452381D01*
X99690476Y-129500000D01*
X99642857Y-129547619D01*
X99309524Y-129452381D02*
X98690476Y-129452381D01*
X99023810Y-129833333D01*
X98880952Y-129833333D01*
X98785714Y-129880952D01*
X98738095Y-129928571D01*
X98690476Y-130023810D01*
X98690476Y-130261905D01*
X98738095Y-130357143D01*
X98785714Y-130404762D01*
X98880952Y-130452381D01*
X99166667Y-130452381D01*
X99261905Y-130404762D01*
X99309524Y-130357143D01*
X98119048Y-129880952D02*
X98214286Y-129833333D01*
X98261905Y-129785714D01*
X98309524Y-129690476D01*
X98309524Y-129642857D01*
X98261905Y-129547619D01*
X98214286Y-129500000D01*
X98119048Y-129452381D01*
X97928571Y-129452381D01*
X97833333Y-129500000D01*
X97785714Y-129547619D01*
X97738095Y-129642857D01*
X97738095Y-129690476D01*
X97785714Y-129785714D01*
X97833333Y-129833333D01*
X97928571Y-129880952D01*
X98119048Y-129880952D01*
X98214286Y-129928571D01*
X98261905Y-129976190D01*
X98309524Y-130071429D01*
X98309524Y-130261905D01*
X98261905Y-130357143D01*
X98214286Y-130404762D01*
X98119048Y-130452381D01*
X97928571Y-130452381D01*
X97833333Y-130404762D01*
X97785714Y-130357143D01*
X97738095Y-130261905D01*
X97738095Y-130071429D01*
X97785714Y-129976190D01*
X97833333Y-129928571D01*
X97928571Y-129880952D01*
X86738095Y-107452381D02*
X86738095Y-106452381D01*
X86500000Y-106452381D01*
X86357142Y-106500000D01*
X86261904Y-106595238D01*
X86214285Y-106690476D01*
X86166666Y-106880952D01*
X86166666Y-107023810D01*
X86214285Y-107214286D01*
X86261904Y-107309524D01*
X86357142Y-107404762D01*
X86500000Y-107452381D01*
X86738095Y-107452381D01*
X85214285Y-107452381D02*
X85785714Y-107452381D01*
X85500000Y-107452381D02*
X85500000Y-106452381D01*
X85595238Y-106595238D01*
X85690476Y-106690476D01*
X85785714Y-106738095D01*
X188833333Y-137952381D02*
X188833333Y-138666667D01*
X188880953Y-138809524D01*
X188976191Y-138904762D01*
X189119048Y-138952381D01*
X189214286Y-138952381D01*
X188357143Y-138952381D02*
X188357143Y-137952381D01*
X187976190Y-137952381D01*
X187880952Y-138000000D01*
X187833333Y-138047619D01*
X187785714Y-138142857D01*
X187785714Y-138285714D01*
X187833333Y-138380952D01*
X187880952Y-138428571D01*
X187976190Y-138476190D01*
X188357143Y-138476190D01*
X186833333Y-138952381D02*
X187404762Y-138952381D01*
X187119048Y-138952381D02*
X187119048Y-137952381D01*
X187214286Y-138095238D01*
X187309524Y-138190476D01*
X187404762Y-138238095D01*
X183833333Y-137952381D02*
X183833333Y-138666667D01*
X183880953Y-138809524D01*
X183976191Y-138904762D01*
X184119048Y-138952381D01*
X184214286Y-138952381D01*
X183357143Y-138952381D02*
X183357143Y-137952381D01*
X182976190Y-137952381D01*
X182880952Y-138000000D01*
X182833333Y-138047619D01*
X182785714Y-138142857D01*
X182785714Y-138285714D01*
X182833333Y-138380952D01*
X182880952Y-138428571D01*
X182976190Y-138476190D01*
X183357143Y-138476190D01*
X182404762Y-138047619D02*
X182357143Y-138000000D01*
X182261905Y-137952381D01*
X182023809Y-137952381D01*
X181928571Y-138000000D01*
X181880952Y-138047619D01*
X181833333Y-138142857D01*
X181833333Y-138238095D01*
X181880952Y-138380952D01*
X182452381Y-138952381D01*
X181833333Y-138952381D01*
X121095238Y-91547619D02*
X121190476Y-91500000D01*
X121285714Y-91404762D01*
X121428571Y-91261905D01*
X121523810Y-91214286D01*
X121619048Y-91214286D01*
X121571429Y-91452381D02*
X121666667Y-91404762D01*
X121761905Y-91309524D01*
X121809524Y-91119048D01*
X121809524Y-90785714D01*
X121761905Y-90595238D01*
X121666667Y-90500000D01*
X121571429Y-90452381D01*
X121380952Y-90452381D01*
X121285714Y-90500000D01*
X121190476Y-90595238D01*
X121142857Y-90785714D01*
X121142857Y-91119048D01*
X121190476Y-91309524D01*
X121285714Y-91404762D01*
X121380952Y-91452381D01*
X121571429Y-91452381D01*
X120190476Y-91452381D02*
X120761905Y-91452381D01*
X120476191Y-91452381D02*
X120476191Y-90452381D01*
X120571429Y-90595238D01*
X120666667Y-90690476D01*
X120761905Y-90738095D01*
X197404762Y-72666667D02*
X197452381Y-72809524D01*
X197452381Y-73047620D01*
X197404762Y-73142858D01*
X197357143Y-73190477D01*
X197261905Y-73238096D01*
X197166667Y-73238096D01*
X197071429Y-73190477D01*
X197023810Y-73142858D01*
X196976190Y-73047620D01*
X196928571Y-72857143D01*
X196880952Y-72761905D01*
X196833333Y-72714286D01*
X196738095Y-72666667D01*
X196642857Y-72666667D01*
X196547619Y-72714286D01*
X196500000Y-72761905D01*
X196452381Y-72857143D01*
X196452381Y-73095239D01*
X196500000Y-73238096D01*
X196452381Y-73571429D02*
X197452381Y-73809524D01*
X196738095Y-74000001D01*
X197452381Y-74190477D01*
X196452381Y-74428572D01*
X197452381Y-75333334D02*
X197452381Y-74761905D01*
X197452381Y-75047619D02*
X196452381Y-75047619D01*
X196595238Y-74952381D01*
X196690476Y-74857143D01*
X196738095Y-74761905D01*
X197404762Y-86666667D02*
X197452381Y-86809524D01*
X197452381Y-87047620D01*
X197404762Y-87142858D01*
X197357143Y-87190477D01*
X197261905Y-87238096D01*
X197166667Y-87238096D01*
X197071429Y-87190477D01*
X197023810Y-87142858D01*
X196976190Y-87047620D01*
X196928571Y-86857143D01*
X196880952Y-86761905D01*
X196833333Y-86714286D01*
X196738095Y-86666667D01*
X196642857Y-86666667D01*
X196547619Y-86714286D01*
X196500000Y-86761905D01*
X196452381Y-86857143D01*
X196452381Y-87095239D01*
X196500000Y-87238096D01*
X196452381Y-87571429D02*
X197452381Y-87809524D01*
X196738095Y-88000001D01*
X197452381Y-88190477D01*
X196452381Y-88428572D01*
X196547619Y-88761905D02*
X196500000Y-88809524D01*
X196452381Y-88904762D01*
X196452381Y-89142858D01*
X196500000Y-89238096D01*
X196547619Y-89285715D01*
X196642857Y-89333334D01*
X196738095Y-89333334D01*
X196880952Y-89285715D01*
X197452381Y-88714286D01*
X197452381Y-89333334D01*
X197404762Y-100666667D02*
X197452381Y-100809524D01*
X197452381Y-101047620D01*
X197404762Y-101142858D01*
X197357143Y-101190477D01*
X197261905Y-101238096D01*
X197166667Y-101238096D01*
X197071429Y-101190477D01*
X197023810Y-101142858D01*
X196976190Y-101047620D01*
X196928571Y-100857143D01*
X196880952Y-100761905D01*
X196833333Y-100714286D01*
X196738095Y-100666667D01*
X196642857Y-100666667D01*
X196547619Y-100714286D01*
X196500000Y-100761905D01*
X196452381Y-100857143D01*
X196452381Y-101095239D01*
X196500000Y-101238096D01*
X196452381Y-101571429D02*
X197452381Y-101809524D01*
X196738095Y-102000001D01*
X197452381Y-102190477D01*
X196452381Y-102428572D01*
X196452381Y-102714286D02*
X196452381Y-103333334D01*
X196833333Y-103000000D01*
X196833333Y-103142858D01*
X196880952Y-103238096D01*
X196928571Y-103285715D01*
X197023810Y-103333334D01*
X197261905Y-103333334D01*
X197357143Y-103285715D01*
X197404762Y-103238096D01*
X197452381Y-103142858D01*
X197452381Y-102857143D01*
X197404762Y-102761905D01*
X197357143Y-102714286D01*
X197404762Y-114666667D02*
X197452381Y-114809524D01*
X197452381Y-115047620D01*
X197404762Y-115142858D01*
X197357143Y-115190477D01*
X197261905Y-115238096D01*
X197166667Y-115238096D01*
X197071429Y-115190477D01*
X197023810Y-115142858D01*
X196976190Y-115047620D01*
X196928571Y-114857143D01*
X196880952Y-114761905D01*
X196833333Y-114714286D01*
X196738095Y-114666667D01*
X196642857Y-114666667D01*
X196547619Y-114714286D01*
X196500000Y-114761905D01*
X196452381Y-114857143D01*
X196452381Y-115095239D01*
X196500000Y-115238096D01*
X196452381Y-115571429D02*
X197452381Y-115809524D01*
X196738095Y-116000001D01*
X197452381Y-116190477D01*
X196452381Y-116428572D01*
X196785714Y-117238096D02*
X197452381Y-117238096D01*
X196404762Y-117000000D02*
X197119048Y-116761905D01*
X197119048Y-117380953D01*
X144761905Y-117452381D02*
X144761905Y-118261905D01*
X144714286Y-118357143D01*
X144666667Y-118404762D01*
X144571429Y-118452381D01*
X144380952Y-118452381D01*
X144285714Y-118404762D01*
X144238095Y-118357143D01*
X144190476Y-118261905D01*
X144190476Y-117452381D01*
X143761905Y-117547619D02*
X143714286Y-117500000D01*
X143619048Y-117452381D01*
X143380952Y-117452381D01*
X143285714Y-117500000D01*
X143238095Y-117547619D01*
X143190476Y-117642857D01*
X143190476Y-117738095D01*
X143238095Y-117880952D01*
X143809524Y-118452381D01*
X143190476Y-118452381D01*
M02*
