M48
;DRILL file {KiCad 4.0.2-stable} date 2016/10/31 21:03:03
;FORMAT={-:-/ absolute / metric / decimal}
FMAT,2
METRIC,TZ
T1C0.600
T2C0.635
T3C0.800
T4C1.016
T5C1.100
T6C1.400
T7C1.501
T8C1.600
T9C3.048
%
G90
G05
M71
T1
X167.8Y-89.92
X167.8Y-91.19
X167.8Y-92.46
X167.8Y-93.73
X167.8Y-95.
X167.8Y-96.27
X167.8Y-97.54
X167.8Y-98.81
X167.8Y-100.08
T2
X95.8Y-65.9
X98.Y-51.
X101.Y-52.3
X102.7Y-52.5
X108.2Y-50.1
X110.Y-49.
X133.3Y-75.8
X133.7Y-84.1
X134.Y-54.
X134.9Y-61.2
X141.4Y-67.7
X145.5Y-104.7
X146.2Y-63.9
X146.2Y-107.4
X147.Y-58.
X147.6Y-83.8
X150.Y-98.
X154.4Y-90.2
X155.6Y-72.8
X156.6Y-75.5
X157.4Y-90.1
X162.7Y-77.4
X162.8Y-113.8
X163.Y-123.2
X164.8Y-108.
X165.6Y-91.6
X165.7Y-90.2
X166.1Y-63.3
X166.4Y-76.
X169.Y-82.3
X169.3Y-117.8
X172.Y-81.2
X173.Y-71.6
X174.8Y-92.1
X176.6Y-76.5
X176.7Y-85.8
X176.8Y-78.
X177.Y-101.7
X177.8Y-79.
X177.8Y-81.
X178.7Y-72.9
X178.8Y-80.
X178.8Y-92.2
X181.Y-67.
X181.2Y-89.6
X184.Y-57.5
X184.1Y-103.9
X185.8Y-89.5
X186.Y-100.1
X187.2Y-56.3
X188.Y-98.5
X188.1Y-87.8
X190.5Y-84.
T3
X95.Y-121.
X95.Y-124.5
X97.7Y-56.8
X97.7Y-59.34
X97.7Y-61.88
X97.7Y-64.42
X102.Y-120.
X102.Y-125.
X102.Y-129.
X105.32Y-56.8
X105.32Y-59.34
X105.32Y-61.88
X105.32Y-64.42
X107.Y-129.
X108.Y-120.
X108.Y-125.
X137.375Y-55.005
X137.375Y-62.625
X139.915Y-55.005
X139.915Y-62.625
X142.455Y-55.005
X142.455Y-62.625
X144.995Y-55.005
X144.995Y-62.625
X152.18Y-80.01
X152.18Y-82.55
X152.18Y-85.09
X152.18Y-87.63
X152.18Y-90.17
X152.18Y-92.71
X152.18Y-95.25
X152.18Y-104.38
X152.18Y-106.92
X152.18Y-109.46
X152.18Y-112.
X155.Y-122.5
X155.Y-125.
X159.8Y-80.01
X159.8Y-82.55
X159.8Y-85.09
X159.8Y-87.63
X159.8Y-90.17
X159.8Y-92.71
X159.8Y-95.25
X159.8Y-104.38
X159.8Y-106.92
X159.8Y-109.46
X159.8Y-112.
T4
X181.539Y-53.397
X182.936Y-50.603
X183.Y-133.
X183.Y-135.54
X184.333Y-53.397
X185.73Y-50.603
X187.Y-53.397
X188.Y-133.
X188.Y-135.54
X188.397Y-50.603
X189.794Y-53.397
X191.191Y-50.603
X192.461Y-53.397
T5
X199.5Y-71.5
X199.5Y-78.
X199.5Y-85.5
X199.5Y-92.
X199.5Y-99.5
X199.5Y-106.
X199.5Y-113.5
X199.5Y-120.
X204.Y-71.5
X204.Y-78.
X204.Y-85.5
X204.Y-92.
X204.Y-99.5
X204.Y-106.
X204.Y-113.5
X204.Y-120.
T6
X145.Y-120.
X145.Y-122.54
X145.Y-125.08
T7
X101.412Y-90.
X107.Y-90.
X112.588Y-90.
X125.412Y-90.
X131.Y-90.
X136.588Y-90.
T8
X75.68Y-111.
X96.Y-111.
T9
X174.554Y-52.
X199.573Y-52.
T0
M30
