G04 #@! TF.FileFunction,Copper,L2,Bot,Signal*
%FSLAX46Y46*%
G04 Gerber Fmt 4.6, Leading zero omitted, Abs format (unit mm)*
G04 Created by KiCad (PCBNEW 4.0.2-stable) date 2016/10/31 21:02:32*
%MOMM*%
G01*
G04 APERTURE LIST*
%ADD10C,0.100000*%
%ADD11C,3.810000*%
%ADD12R,1.524000X1.524000*%
%ADD13C,1.524000*%
%ADD14C,1.100000*%
%ADD15O,2.499360X3.500120*%
%ADD16R,1.800000X1.800000*%
%ADD17C,1.800000*%
%ADD18C,1.300000*%
%ADD19R,1.300000X1.300000*%
%ADD20R,2.600000X2.600000*%
%ADD21C,2.600000*%
%ADD22R,2.032000X2.032000*%
%ADD23O,2.032000X2.032000*%
%ADD24C,2.000000*%
%ADD25R,2.200000X2.200000*%
%ADD26C,2.200000*%
%ADD27C,0.889000*%
%ADD28C,0.203200*%
%ADD29C,0.254000*%
G04 APERTURE END LIST*
D10*
D11*
X174554000Y-52000000D03*
X199573000Y-52000000D03*
D12*
X181539000Y-53397000D03*
D13*
X184333000Y-53397000D03*
X187000000Y-53397000D03*
X189794000Y-53397000D03*
X192461000Y-53397000D03*
X182936000Y-50603000D03*
X185730000Y-50603000D03*
X188397000Y-50603000D03*
X191191000Y-50603000D03*
D14*
X167800000Y-89920000D03*
X167800000Y-91190000D03*
X167800000Y-92460000D03*
X167800000Y-93730000D03*
X167800000Y-95000000D03*
X167800000Y-96270000D03*
X167800000Y-97540000D03*
X167800000Y-98810000D03*
X167800000Y-100080000D03*
D15*
X107000000Y-90000000D03*
X112588000Y-90000000D03*
X101412000Y-90000000D03*
D16*
X159800000Y-112000000D03*
D17*
X159800000Y-109460000D03*
X159800000Y-106920000D03*
X159800000Y-104380000D03*
X152180000Y-104380000D03*
X152180000Y-106920000D03*
X152180000Y-109460000D03*
X152180000Y-112000000D03*
D16*
X97700000Y-56800000D03*
D17*
X97700000Y-59340000D03*
X97700000Y-61880000D03*
X97700000Y-64420000D03*
X105320000Y-64420000D03*
X105320000Y-61880000D03*
X105320000Y-59340000D03*
X105320000Y-56800000D03*
D16*
X137375000Y-62625000D03*
D17*
X139915000Y-62625000D03*
X142455000Y-62625000D03*
X144995000Y-62625000D03*
X144995000Y-55005000D03*
X142455000Y-55005000D03*
X139915000Y-55005000D03*
X137375000Y-55005000D03*
D16*
X159800000Y-95250000D03*
D17*
X159800000Y-92710000D03*
X159800000Y-90170000D03*
X159800000Y-87630000D03*
X159800000Y-85090000D03*
X159800000Y-82550000D03*
X159800000Y-80010000D03*
X152180000Y-80010000D03*
X152180000Y-82550000D03*
X152180000Y-85090000D03*
X152180000Y-87630000D03*
X152180000Y-90170000D03*
X152180000Y-92710000D03*
X152180000Y-95250000D03*
D18*
X95000000Y-124500000D03*
D19*
X95000000Y-121000000D03*
X102000000Y-120000000D03*
D18*
X102000000Y-125000000D03*
D19*
X155000000Y-125000000D03*
D18*
X155000000Y-122500000D03*
D19*
X108000000Y-120000000D03*
D18*
X108000000Y-125000000D03*
D19*
X107000000Y-129000000D03*
D18*
X102000000Y-129000000D03*
D20*
X96000000Y-111000000D03*
D21*
X75680000Y-111000000D03*
D22*
X188000000Y-133000000D03*
D23*
X188000000Y-135540000D03*
D22*
X183000000Y-133000000D03*
D23*
X183000000Y-135540000D03*
D15*
X131000000Y-90000000D03*
X136588000Y-90000000D03*
X125412000Y-90000000D03*
D24*
X199500000Y-78000000D03*
X204000000Y-78000000D03*
X199500000Y-71500000D03*
X204000000Y-71500000D03*
X199500000Y-92000000D03*
X204000000Y-92000000D03*
X199500000Y-85500000D03*
X204000000Y-85500000D03*
X199500000Y-106000000D03*
X204000000Y-106000000D03*
X199500000Y-99500000D03*
X204000000Y-99500000D03*
X199500000Y-120000000D03*
X204000000Y-120000000D03*
X199500000Y-113500000D03*
X204000000Y-113500000D03*
D25*
X145000000Y-120000000D03*
D26*
X145000000Y-122540000D03*
X145000000Y-125080000D03*
D27*
X102700000Y-52500000D03*
X134000000Y-54000000D03*
X157400000Y-90100000D03*
X177000000Y-101700000D03*
X184100000Y-103900000D03*
X134900000Y-61200000D03*
X146200000Y-63900000D03*
X154400000Y-90200000D03*
X174800000Y-92100000D03*
X178800000Y-92200000D03*
X185800000Y-89500000D03*
X188100000Y-87800000D03*
X190500000Y-84000000D03*
X147000000Y-58000000D03*
X110000000Y-49000000D03*
X98000000Y-51000000D03*
X95800000Y-65900000D03*
X108200000Y-50100000D03*
X101000000Y-52300000D03*
X173000000Y-71600000D03*
X181000000Y-67000000D03*
X187200000Y-56300000D03*
X163000000Y-123200000D03*
X150000000Y-98000000D03*
X166400000Y-76000000D03*
X147600000Y-83800000D03*
X166100000Y-63300000D03*
X169300000Y-117800000D03*
X186000000Y-100100000D03*
X145500000Y-104700000D03*
X133300000Y-75800000D03*
X141400000Y-67700000D03*
X146200000Y-107400000D03*
X162800000Y-113800000D03*
X165600000Y-91600000D03*
X155600000Y-72800000D03*
X165700000Y-90200000D03*
X156600000Y-75500000D03*
X169000000Y-82300000D03*
X176600000Y-76500000D03*
X172000000Y-81200000D03*
X162700000Y-77400000D03*
X178700000Y-72900000D03*
X188000000Y-98500000D03*
X181200000Y-89600000D03*
X176700000Y-85800000D03*
X164800000Y-108000000D03*
X133700000Y-84100000D03*
X184000000Y-57500000D03*
X176800000Y-78000000D03*
X177800000Y-79000000D03*
X178800000Y-80000000D03*
X177800000Y-81000000D03*
D28*
X145000000Y-120000000D02*
X108000000Y-120000000D01*
X204000000Y-78000000D02*
X204000000Y-85500000D01*
X157400000Y-90100000D02*
X157300000Y-90200000D01*
X157300000Y-90200000D02*
X154400000Y-90200000D01*
X167800000Y-93730000D02*
X169330000Y-93730000D01*
X169600000Y-94000000D02*
X169700000Y-94000000D01*
X169330000Y-93730000D02*
X169600000Y-94000000D01*
X152180000Y-90170000D02*
X154370000Y-90170000D01*
X154370000Y-90170000D02*
X154400000Y-90200000D01*
X145000000Y-122540000D02*
X142760000Y-122540000D01*
X142760000Y-122540000D02*
X142700000Y-122600000D01*
X144995000Y-60005000D02*
X144995000Y-62625000D01*
X147000000Y-58000000D02*
X144995000Y-60005000D01*
X108200000Y-50100000D02*
X108900000Y-50100000D01*
X108900000Y-50100000D02*
X110000000Y-49000000D01*
X101000000Y-52300000D02*
X99300000Y-52300000D01*
X99300000Y-52300000D02*
X98000000Y-51000000D01*
X108200000Y-50100000D02*
X103200000Y-50100000D01*
X103200000Y-50100000D02*
X101000000Y-52300000D01*
X188000000Y-135540000D02*
X188260000Y-135540000D01*
X188260000Y-135540000D02*
X204000000Y-120000000D01*
X183000000Y-135540000D02*
X188000000Y-135540000D01*
X175340000Y-135540000D02*
X183000000Y-135540000D01*
X163000000Y-123200000D02*
X175340000Y-135540000D01*
X204000000Y-120000000D02*
X204000000Y-106000000D01*
X204000000Y-106000000D02*
X204000000Y-99500000D01*
X204000000Y-99500000D02*
X204000000Y-92000000D01*
X204000000Y-92000000D02*
X204000000Y-85500000D01*
X204000000Y-78000000D02*
X204000000Y-71500000D01*
X145000000Y-122540000D02*
X154960000Y-122540000D01*
X154960000Y-122540000D02*
X155000000Y-122500000D01*
X160600000Y-70200000D02*
X159200000Y-70200000D01*
X166400000Y-76000000D02*
X160600000Y-70200000D01*
X147600000Y-83800000D02*
X143900000Y-87500000D01*
X143900000Y-87500000D02*
X143900000Y-87600000D01*
X143900000Y-74900000D02*
X144000000Y-74900000D01*
X143900000Y-87600000D02*
X143900000Y-74900000D01*
X148700000Y-70200000D02*
X159200000Y-70200000D01*
X144000000Y-74900000D02*
X148700000Y-70200000D01*
X159200000Y-70200000D02*
X166100000Y-63300000D01*
X169300000Y-117800000D02*
X169200000Y-117700000D01*
X169200000Y-117700000D02*
X169200000Y-106500000D01*
X169200000Y-106500000D02*
X162200000Y-99500000D01*
X162200000Y-99500000D02*
X149400000Y-99500000D01*
X149400000Y-99500000D02*
X143900000Y-94000000D01*
X143900000Y-94000000D02*
X143900000Y-87600000D01*
X145000000Y-125080000D02*
X144920000Y-125080000D01*
X183000000Y-133000000D02*
X186200000Y-129800000D01*
X186200000Y-100300000D02*
X186000000Y-100100000D01*
X186200000Y-129800000D02*
X186200000Y-100300000D01*
X145500000Y-104700000D02*
X145500000Y-104900000D01*
X141400000Y-67700000D02*
X133300000Y-75800000D01*
X139400000Y-82000000D02*
X133200000Y-75800000D01*
X139400000Y-98900000D02*
X139400000Y-82000000D01*
X145200000Y-104700000D02*
X139400000Y-98900000D01*
X146200000Y-107400000D02*
X136588000Y-97788000D01*
X136588000Y-97788000D02*
X136588000Y-90000000D01*
X162800000Y-113800000D02*
X148600000Y-113800000D01*
X148600000Y-113800000D02*
X136400000Y-113800000D01*
X136400000Y-113800000D02*
X112600000Y-90000000D01*
X112600000Y-90000000D02*
X112588000Y-90000000D01*
X155600000Y-74100000D02*
X155600000Y-72800000D01*
X155600000Y-85500000D02*
X155600000Y-74100000D01*
X159000000Y-88900000D02*
X155600000Y-85500000D01*
X162900000Y-88900000D02*
X159000000Y-88900000D01*
X165600000Y-91600000D02*
X162900000Y-88900000D01*
X156600000Y-84300000D02*
X156600000Y-76600000D01*
X158700000Y-86400000D02*
X156600000Y-84300000D01*
X161900000Y-86400000D02*
X158700000Y-86400000D01*
X165700000Y-90200000D02*
X161900000Y-86400000D01*
X156600000Y-76700000D02*
X156600000Y-76600000D01*
X156600000Y-75500000D02*
X156600000Y-76700000D01*
X166210000Y-85090000D02*
X159800000Y-85090000D01*
X169000000Y-82300000D02*
X166210000Y-85090000D01*
X176600000Y-76600000D02*
X176600000Y-76500000D01*
X172000000Y-81200000D02*
X176600000Y-76600000D01*
X174200000Y-77400000D02*
X162700000Y-77400000D01*
X178700000Y-72900000D02*
X174200000Y-77400000D01*
X188000000Y-98500000D02*
X188000000Y-133000000D01*
X180500000Y-89600000D02*
X181200000Y-89600000D01*
X176700000Y-85800000D02*
X180500000Y-89600000D01*
X164800000Y-108000000D02*
X162400000Y-105600000D01*
X162400000Y-105600000D02*
X145300000Y-105600000D01*
X145300000Y-105600000D02*
X138700000Y-99000000D01*
X138700000Y-99000000D02*
X138700000Y-88800000D01*
X138700000Y-88800000D02*
X133800000Y-83900000D01*
X133800000Y-83900000D02*
X133800000Y-84000000D01*
X133800000Y-84000000D02*
X133700000Y-84100000D01*
X184333000Y-57167000D02*
X184333000Y-53397000D01*
X184000000Y-57500000D02*
X184333000Y-57167000D01*
X176800000Y-78000000D02*
X199500000Y-78000000D01*
X199500000Y-78000000D02*
X199500000Y-71500000D01*
X199500000Y-71500000D02*
X199000000Y-72000000D01*
X199500000Y-85500000D02*
X193800000Y-80000000D01*
X193800000Y-80000000D02*
X192800000Y-79000000D01*
X192800000Y-79000000D02*
X189800000Y-79000000D01*
X177800000Y-79000000D02*
X189800000Y-79000000D01*
X199500000Y-85500000D02*
X199500000Y-92000000D01*
X199500000Y-99500000D02*
X196800000Y-97000000D01*
X178800000Y-80000000D02*
X188800000Y-80000000D01*
X196800000Y-88000000D02*
X188800000Y-80000000D01*
X196800000Y-97000000D02*
X196800000Y-88000000D01*
X199500000Y-106000000D02*
X199500000Y-99500000D01*
X194800000Y-91000000D02*
X194800000Y-109000000D01*
X194800000Y-109000000D02*
X199500000Y-113500000D01*
X184800000Y-81000000D02*
X194800000Y-91000000D01*
X177800000Y-81000000D02*
X184800000Y-81000000D01*
X199500000Y-113500000D02*
X199500000Y-120000000D01*
D29*
G36*
X205090000Y-70235980D02*
X205087206Y-70233186D01*
X204972926Y-70347466D01*
X204874264Y-70080613D01*
X204264539Y-69854092D01*
X203614540Y-69878144D01*
X203125736Y-70080613D01*
X203027073Y-70347468D01*
X204000000Y-71320395D01*
X204014143Y-71306253D01*
X204193748Y-71485858D01*
X204179605Y-71500000D01*
X204193748Y-71514143D01*
X204014143Y-71693748D01*
X204000000Y-71679605D01*
X203027073Y-72652532D01*
X203125736Y-72919387D01*
X203735461Y-73145908D01*
X204385460Y-73121856D01*
X204874264Y-72919387D01*
X204972926Y-72652534D01*
X205087206Y-72766814D01*
X205090000Y-72764020D01*
X205090000Y-76735980D01*
X205087206Y-76733186D01*
X204972926Y-76847466D01*
X204874264Y-76580613D01*
X204264539Y-76354092D01*
X203614540Y-76378144D01*
X203125736Y-76580613D01*
X203027073Y-76847468D01*
X204000000Y-77820395D01*
X204014143Y-77806253D01*
X204193748Y-77985858D01*
X204179605Y-78000000D01*
X204193748Y-78014143D01*
X204014143Y-78193748D01*
X204000000Y-78179605D01*
X203027073Y-79152532D01*
X203125736Y-79419387D01*
X203735461Y-79645908D01*
X204385460Y-79621856D01*
X204874264Y-79419387D01*
X204972926Y-79152534D01*
X205087206Y-79266814D01*
X205090000Y-79264020D01*
X205090000Y-84235980D01*
X205087206Y-84233186D01*
X204972926Y-84347466D01*
X204874264Y-84080613D01*
X204264539Y-83854092D01*
X203614540Y-83878144D01*
X203125736Y-84080613D01*
X203027073Y-84347468D01*
X204000000Y-85320395D01*
X204014143Y-85306253D01*
X204193748Y-85485858D01*
X204179605Y-85500000D01*
X204193748Y-85514143D01*
X204014143Y-85693748D01*
X204000000Y-85679605D01*
X203027073Y-86652532D01*
X203125736Y-86919387D01*
X203735461Y-87145908D01*
X204385460Y-87121856D01*
X204874264Y-86919387D01*
X204972926Y-86652534D01*
X205087206Y-86766814D01*
X205090000Y-86764020D01*
X205090000Y-90735980D01*
X205087206Y-90733186D01*
X204972926Y-90847466D01*
X204874264Y-90580613D01*
X204264539Y-90354092D01*
X203614540Y-90378144D01*
X203125736Y-90580613D01*
X203027073Y-90847468D01*
X204000000Y-91820395D01*
X204014143Y-91806253D01*
X204193748Y-91985858D01*
X204179605Y-92000000D01*
X204193748Y-92014143D01*
X204014143Y-92193748D01*
X204000000Y-92179605D01*
X203027073Y-93152532D01*
X203125736Y-93419387D01*
X203735461Y-93645908D01*
X204385460Y-93621856D01*
X204874264Y-93419387D01*
X204972926Y-93152534D01*
X205087206Y-93266814D01*
X205090000Y-93264020D01*
X205090000Y-98235980D01*
X205087206Y-98233186D01*
X204972926Y-98347466D01*
X204874264Y-98080613D01*
X204264539Y-97854092D01*
X203614540Y-97878144D01*
X203125736Y-98080613D01*
X203027073Y-98347468D01*
X204000000Y-99320395D01*
X204014143Y-99306253D01*
X204193748Y-99485858D01*
X204179605Y-99500000D01*
X204193748Y-99514143D01*
X204014143Y-99693748D01*
X204000000Y-99679605D01*
X203027073Y-100652532D01*
X203125736Y-100919387D01*
X203735461Y-101145908D01*
X204385460Y-101121856D01*
X204874264Y-100919387D01*
X204972926Y-100652534D01*
X205087206Y-100766814D01*
X205090000Y-100764020D01*
X205090000Y-104735980D01*
X205087206Y-104733186D01*
X204972926Y-104847466D01*
X204874264Y-104580613D01*
X204264539Y-104354092D01*
X203614540Y-104378144D01*
X203125736Y-104580613D01*
X203027073Y-104847468D01*
X204000000Y-105820395D01*
X204014143Y-105806253D01*
X204193748Y-105985858D01*
X204179605Y-106000000D01*
X204193748Y-106014143D01*
X204014143Y-106193748D01*
X204000000Y-106179605D01*
X203027073Y-107152532D01*
X203125736Y-107419387D01*
X203735461Y-107645908D01*
X204385460Y-107621856D01*
X204874264Y-107419387D01*
X204972926Y-107152534D01*
X205087206Y-107266814D01*
X205090000Y-107264020D01*
X205090000Y-112235980D01*
X205087206Y-112233186D01*
X204972926Y-112347466D01*
X204874264Y-112080613D01*
X204264539Y-111854092D01*
X203614540Y-111878144D01*
X203125736Y-112080613D01*
X203027073Y-112347468D01*
X204000000Y-113320395D01*
X204014143Y-113306253D01*
X204193748Y-113485858D01*
X204179605Y-113500000D01*
X204193748Y-113514143D01*
X204014143Y-113693748D01*
X204000000Y-113679605D01*
X203027073Y-114652532D01*
X203125736Y-114919387D01*
X203735461Y-115145908D01*
X204385460Y-115121856D01*
X204874264Y-114919387D01*
X204972926Y-114652534D01*
X205087206Y-114766814D01*
X205090000Y-114764020D01*
X205090000Y-118735980D01*
X205087206Y-118733186D01*
X204972926Y-118847466D01*
X204874264Y-118580613D01*
X204264539Y-118354092D01*
X203614540Y-118378144D01*
X203125736Y-118580613D01*
X203027073Y-118847468D01*
X204000000Y-119820395D01*
X204014143Y-119806253D01*
X204193748Y-119985858D01*
X204179605Y-120000000D01*
X204193748Y-120014143D01*
X204014143Y-120193748D01*
X204000000Y-120179605D01*
X203027073Y-121152532D01*
X203125736Y-121419387D01*
X203735461Y-121645908D01*
X204385460Y-121621856D01*
X204874264Y-121419387D01*
X204972926Y-121152534D01*
X205087206Y-121266814D01*
X205090000Y-121264020D01*
X205090000Y-139290000D01*
X73710000Y-139290000D01*
X73710000Y-135442619D01*
X75764613Y-135442619D01*
X76104155Y-136264372D01*
X76732321Y-136893636D01*
X77553481Y-137234611D01*
X78442619Y-137235387D01*
X79264372Y-136895845D01*
X79893636Y-136267679D01*
X80191002Y-135551540D01*
X82214518Y-135551540D01*
X82637616Y-136575515D01*
X83420365Y-137359631D01*
X84443599Y-137784515D01*
X85551540Y-137785482D01*
X86575515Y-137362384D01*
X87359631Y-136579635D01*
X87784515Y-135556401D01*
X87784519Y-135551540D01*
X153714518Y-135551540D01*
X154137616Y-136575515D01*
X154920365Y-137359631D01*
X155943599Y-137784515D01*
X157051540Y-137785482D01*
X158075515Y-137362384D01*
X158859631Y-136579635D01*
X159284515Y-135556401D01*
X159284519Y-135551540D01*
X164714518Y-135551540D01*
X165137616Y-136575515D01*
X165920365Y-137359631D01*
X166943599Y-137784515D01*
X168051540Y-137785482D01*
X169075515Y-137362384D01*
X169859631Y-136579635D01*
X170132313Y-135922944D01*
X181394025Y-135922944D01*
X181593615Y-136404818D01*
X182031621Y-136877188D01*
X182617054Y-137145983D01*
X182873000Y-137027367D01*
X182873000Y-135667000D01*
X183127000Y-135667000D01*
X183127000Y-137027367D01*
X183382946Y-137145983D01*
X183968379Y-136877188D01*
X184406385Y-136404818D01*
X184605975Y-135922944D01*
X186394025Y-135922944D01*
X186593615Y-136404818D01*
X187031621Y-136877188D01*
X187617054Y-137145983D01*
X187873000Y-137027367D01*
X187873000Y-135667000D01*
X188127000Y-135667000D01*
X188127000Y-137027367D01*
X188382946Y-137145983D01*
X188968379Y-136877188D01*
X189406385Y-136404818D01*
X189605975Y-135922944D01*
X189486836Y-135667000D01*
X188127000Y-135667000D01*
X187873000Y-135667000D01*
X186513164Y-135667000D01*
X186394025Y-135922944D01*
X184605975Y-135922944D01*
X184486836Y-135667000D01*
X183127000Y-135667000D01*
X182873000Y-135667000D01*
X181513164Y-135667000D01*
X181394025Y-135922944D01*
X170132313Y-135922944D01*
X170284515Y-135556401D01*
X170284614Y-135442619D01*
X198564613Y-135442619D01*
X198904155Y-136264372D01*
X199532321Y-136893636D01*
X200353481Y-137234611D01*
X201242619Y-137235387D01*
X202064372Y-136895845D01*
X202693636Y-136267679D01*
X203034611Y-135446519D01*
X203035387Y-134557381D01*
X202695845Y-133735628D01*
X202067679Y-133106364D01*
X201246519Y-132765389D01*
X200357381Y-132764613D01*
X199535628Y-133104155D01*
X198906364Y-133732321D01*
X198565389Y-134553481D01*
X198564613Y-135442619D01*
X170284614Y-135442619D01*
X170285482Y-134448460D01*
X169862384Y-133424485D01*
X169079635Y-132640369D01*
X168056401Y-132215485D01*
X166948460Y-132214518D01*
X165924485Y-132637616D01*
X165140369Y-133420365D01*
X164715485Y-134443599D01*
X164714518Y-135551540D01*
X159284519Y-135551540D01*
X159285482Y-134448460D01*
X158862384Y-133424485D01*
X158079635Y-132640369D01*
X157056401Y-132215485D01*
X155948460Y-132214518D01*
X154924485Y-132637616D01*
X154140369Y-133420365D01*
X153715485Y-134443599D01*
X153714518Y-135551540D01*
X87784519Y-135551540D01*
X87785482Y-134448460D01*
X87362384Y-133424485D01*
X86579635Y-132640369D01*
X85556401Y-132215485D01*
X84448460Y-132214518D01*
X83424485Y-132637616D01*
X82640369Y-133420365D01*
X82215485Y-134443599D01*
X82214518Y-135551540D01*
X80191002Y-135551540D01*
X80234611Y-135446519D01*
X80235387Y-134557381D01*
X79895845Y-133735628D01*
X79267679Y-133106364D01*
X78446519Y-132765389D01*
X77557381Y-132764613D01*
X76735628Y-133104155D01*
X76106364Y-133732321D01*
X75765389Y-134553481D01*
X75764613Y-135442619D01*
X73710000Y-135442619D01*
X73710000Y-131984000D01*
X181336560Y-131984000D01*
X181336560Y-134016000D01*
X181380838Y-134251317D01*
X181519910Y-134467441D01*
X181682948Y-134578840D01*
X181593615Y-134675182D01*
X181394025Y-135157056D01*
X181513164Y-135413000D01*
X182873000Y-135413000D01*
X182873000Y-135393000D01*
X183127000Y-135393000D01*
X183127000Y-135413000D01*
X184486836Y-135413000D01*
X184605975Y-135157056D01*
X184406385Y-134675182D01*
X184315903Y-134577602D01*
X184467441Y-134480090D01*
X184612431Y-134267890D01*
X184663440Y-134016000D01*
X184663440Y-132378270D01*
X185057710Y-131984000D01*
X186336560Y-131984000D01*
X186336560Y-134016000D01*
X186380838Y-134251317D01*
X186519910Y-134467441D01*
X186682948Y-134578840D01*
X186593615Y-134675182D01*
X186394025Y-135157056D01*
X186513164Y-135413000D01*
X187873000Y-135413000D01*
X187873000Y-135393000D01*
X188127000Y-135393000D01*
X188127000Y-135413000D01*
X189486836Y-135413000D01*
X189605975Y-135157056D01*
X189406385Y-134675182D01*
X189315903Y-134577602D01*
X189467441Y-134480090D01*
X189612431Y-134267890D01*
X189663440Y-134016000D01*
X189663440Y-131984000D01*
X189619162Y-131748683D01*
X189480090Y-131532559D01*
X189267890Y-131387569D01*
X189016000Y-131336560D01*
X188736600Y-131336560D01*
X188736600Y-99289998D01*
X188914622Y-99112286D01*
X189079313Y-98715668D01*
X189079687Y-98286216D01*
X188915689Y-97889311D01*
X188612286Y-97585378D01*
X188215668Y-97420687D01*
X187786216Y-97420313D01*
X187389311Y-97584311D01*
X187085378Y-97887714D01*
X186920687Y-98284332D01*
X186920313Y-98713784D01*
X187084311Y-99110689D01*
X187263400Y-99290091D01*
X187263400Y-131336560D01*
X186984000Y-131336560D01*
X186748683Y-131380838D01*
X186532559Y-131519910D01*
X186387569Y-131732110D01*
X186336560Y-131984000D01*
X185057710Y-131984000D01*
X186720855Y-130320855D01*
X186880530Y-130081885D01*
X186936600Y-129800000D01*
X186936600Y-100659357D01*
X187079313Y-100315668D01*
X187079687Y-99886216D01*
X186915689Y-99489311D01*
X186612286Y-99185378D01*
X186215668Y-99020687D01*
X185786216Y-99020313D01*
X185389311Y-99184311D01*
X185085378Y-99487714D01*
X184920687Y-99884332D01*
X184920313Y-100313784D01*
X185084311Y-100710689D01*
X185387714Y-101014622D01*
X185463400Y-101046050D01*
X185463400Y-129494890D01*
X183621730Y-131336560D01*
X181984000Y-131336560D01*
X181748683Y-131380838D01*
X181532559Y-131519910D01*
X181387569Y-131732110D01*
X181336560Y-131984000D01*
X73710000Y-131984000D01*
X73710000Y-129899016D01*
X101280590Y-129899016D01*
X101336271Y-130129611D01*
X101819078Y-130297622D01*
X102329428Y-130268083D01*
X102663729Y-130129611D01*
X102719410Y-129899016D01*
X102000000Y-129179605D01*
X101280590Y-129899016D01*
X73710000Y-129899016D01*
X73710000Y-128819078D01*
X100702378Y-128819078D01*
X100731917Y-129329428D01*
X100870389Y-129663729D01*
X101100984Y-129719410D01*
X101820395Y-129000000D01*
X102179605Y-129000000D01*
X102899016Y-129719410D01*
X103129611Y-129663729D01*
X103297622Y-129180922D01*
X103268083Y-128670572D01*
X103135298Y-128350000D01*
X105702560Y-128350000D01*
X105702560Y-129650000D01*
X105746838Y-129885317D01*
X105885910Y-130101441D01*
X106098110Y-130246431D01*
X106350000Y-130297440D01*
X107650000Y-130297440D01*
X107885317Y-130253162D01*
X108101441Y-130114090D01*
X108246431Y-129901890D01*
X108297440Y-129650000D01*
X108297440Y-128350000D01*
X108253162Y-128114683D01*
X108114090Y-127898559D01*
X107901890Y-127753569D01*
X107650000Y-127702560D01*
X106350000Y-127702560D01*
X106114683Y-127746838D01*
X105898559Y-127885910D01*
X105753569Y-128098110D01*
X105702560Y-128350000D01*
X103135298Y-128350000D01*
X103129611Y-128336271D01*
X102899016Y-128280590D01*
X102179605Y-129000000D01*
X101820395Y-129000000D01*
X101100984Y-128280590D01*
X100870389Y-128336271D01*
X100702378Y-128819078D01*
X73710000Y-128819078D01*
X73710000Y-128100984D01*
X101280590Y-128100984D01*
X102000000Y-128820395D01*
X102719410Y-128100984D01*
X102663729Y-127870389D01*
X102180922Y-127702378D01*
X101670572Y-127731917D01*
X101336271Y-127870389D01*
X101280590Y-128100984D01*
X73710000Y-128100984D01*
X73710000Y-125899016D01*
X101280590Y-125899016D01*
X101336271Y-126129611D01*
X101819078Y-126297622D01*
X102329428Y-126268083D01*
X102663729Y-126129611D01*
X102719410Y-125899016D01*
X107280590Y-125899016D01*
X107336271Y-126129611D01*
X107819078Y-126297622D01*
X108329428Y-126268083D01*
X108663729Y-126129611D01*
X108719410Y-125899016D01*
X108000000Y-125179605D01*
X107280590Y-125899016D01*
X102719410Y-125899016D01*
X102000000Y-125179605D01*
X101280590Y-125899016D01*
X73710000Y-125899016D01*
X73710000Y-125399016D01*
X94280590Y-125399016D01*
X94336271Y-125629611D01*
X94819078Y-125797622D01*
X95329428Y-125768083D01*
X95663729Y-125629611D01*
X95719410Y-125399016D01*
X95000000Y-124679605D01*
X94280590Y-125399016D01*
X73710000Y-125399016D01*
X73710000Y-124319078D01*
X93702378Y-124319078D01*
X93731917Y-124829428D01*
X93870389Y-125163729D01*
X94100984Y-125219410D01*
X94820395Y-124500000D01*
X95179605Y-124500000D01*
X95899016Y-125219410D01*
X96129611Y-125163729D01*
X96249545Y-124819078D01*
X100702378Y-124819078D01*
X100731917Y-125329428D01*
X100870389Y-125663729D01*
X101100984Y-125719410D01*
X101820395Y-125000000D01*
X102179605Y-125000000D01*
X102899016Y-125719410D01*
X103129611Y-125663729D01*
X103297622Y-125180922D01*
X103276679Y-124819078D01*
X106702378Y-124819078D01*
X106731917Y-125329428D01*
X106870389Y-125663729D01*
X107100984Y-125719410D01*
X107820395Y-125000000D01*
X108179605Y-125000000D01*
X108899016Y-125719410D01*
X109129611Y-125663729D01*
X109213173Y-125423599D01*
X143264699Y-125423599D01*
X143528281Y-126061515D01*
X144015918Y-126550004D01*
X144653373Y-126814699D01*
X145343599Y-126815301D01*
X145981515Y-126551719D01*
X146470004Y-126064082D01*
X146734699Y-125426627D01*
X146735301Y-124736401D01*
X146575644Y-124350000D01*
X153702560Y-124350000D01*
X153702560Y-125650000D01*
X153746838Y-125885317D01*
X153885910Y-126101441D01*
X154098110Y-126246431D01*
X154350000Y-126297440D01*
X155650000Y-126297440D01*
X155885317Y-126253162D01*
X156101441Y-126114090D01*
X156246431Y-125901890D01*
X156297440Y-125650000D01*
X156297440Y-124350000D01*
X156253162Y-124114683D01*
X156114090Y-123898559D01*
X155901890Y-123753569D01*
X155650000Y-123702560D01*
X155487615Y-123702560D01*
X155663729Y-123629611D01*
X155719410Y-123399016D01*
X155000000Y-122679605D01*
X154280590Y-123399016D01*
X154336271Y-123629611D01*
X154545902Y-123702560D01*
X154350000Y-123702560D01*
X154114683Y-123746838D01*
X153898559Y-123885910D01*
X153753569Y-124098110D01*
X153702560Y-124350000D01*
X146575644Y-124350000D01*
X146471719Y-124098485D01*
X145984082Y-123609996D01*
X145823861Y-123543466D01*
X145000000Y-122719605D01*
X144176695Y-123542910D01*
X144018485Y-123608281D01*
X143529996Y-124095918D01*
X143265301Y-124733373D01*
X143264699Y-125423599D01*
X109213173Y-125423599D01*
X109297622Y-125180922D01*
X109268083Y-124670572D01*
X109129611Y-124336271D01*
X108899016Y-124280590D01*
X108179605Y-125000000D01*
X107820395Y-125000000D01*
X107100984Y-124280590D01*
X106870389Y-124336271D01*
X106702378Y-124819078D01*
X103276679Y-124819078D01*
X103268083Y-124670572D01*
X103129611Y-124336271D01*
X102899016Y-124280590D01*
X102179605Y-125000000D01*
X101820395Y-125000000D01*
X101100984Y-124280590D01*
X100870389Y-124336271D01*
X100702378Y-124819078D01*
X96249545Y-124819078D01*
X96297622Y-124680922D01*
X96268083Y-124170572D01*
X96239259Y-124100984D01*
X101280590Y-124100984D01*
X102000000Y-124820395D01*
X102719410Y-124100984D01*
X107280590Y-124100984D01*
X108000000Y-124820395D01*
X108719410Y-124100984D01*
X108663729Y-123870389D01*
X108180922Y-123702378D01*
X107670572Y-123731917D01*
X107336271Y-123870389D01*
X107280590Y-124100984D01*
X102719410Y-124100984D01*
X102663729Y-123870389D01*
X102180922Y-123702378D01*
X101670572Y-123731917D01*
X101336271Y-123870389D01*
X101280590Y-124100984D01*
X96239259Y-124100984D01*
X96129611Y-123836271D01*
X95899016Y-123780590D01*
X95179605Y-124500000D01*
X94820395Y-124500000D01*
X94100984Y-123780590D01*
X93870389Y-123836271D01*
X93702378Y-124319078D01*
X73710000Y-124319078D01*
X73710000Y-123600984D01*
X94280590Y-123600984D01*
X95000000Y-124320395D01*
X95719410Y-123600984D01*
X95663729Y-123370389D01*
X95180922Y-123202378D01*
X94670572Y-123231917D01*
X94336271Y-123370389D01*
X94280590Y-123600984D01*
X73710000Y-123600984D01*
X73710000Y-123127000D01*
X141600000Y-123127000D01*
X141649410Y-123116994D01*
X141689803Y-123089803D01*
X143152606Y-121627000D01*
X143489859Y-121627000D01*
X143254677Y-122251593D01*
X143277164Y-122941453D01*
X143497901Y-123474359D01*
X143775132Y-123585263D01*
X144820395Y-122540000D01*
X144806253Y-122525858D01*
X144985858Y-122346253D01*
X145000000Y-122360395D01*
X145014143Y-122346253D01*
X145193748Y-122525858D01*
X145179605Y-122540000D01*
X146224868Y-123585263D01*
X146502099Y-123474359D01*
X146745323Y-122828407D01*
X146722836Y-122138547D01*
X146718053Y-122127000D01*
X153769219Y-122127000D01*
X153702378Y-122319078D01*
X153731917Y-122829428D01*
X153870389Y-123163729D01*
X154100984Y-123219410D01*
X154820395Y-122500000D01*
X154806252Y-122485858D01*
X154985858Y-122306253D01*
X155000000Y-122320395D01*
X155014143Y-122306253D01*
X155193748Y-122485858D01*
X155179605Y-122500000D01*
X155899016Y-123219410D01*
X156129611Y-123163729D01*
X156297622Y-122680922D01*
X156268083Y-122170572D01*
X156250035Y-122127000D01*
X172000000Y-122127000D01*
X172049410Y-122116994D01*
X172091035Y-122088553D01*
X172118315Y-122046159D01*
X172127000Y-122000000D01*
X172127000Y-104000000D01*
X172116994Y-103950590D01*
X172089803Y-103910197D01*
X169127000Y-100947394D01*
X169127000Y-89000000D01*
X169116994Y-88950590D01*
X169088553Y-88908965D01*
X169046159Y-88881685D01*
X169000000Y-88873000D01*
X168368591Y-88873000D01*
X168036745Y-88735206D01*
X167565323Y-88734794D01*
X167230840Y-88873000D01*
X167000000Y-88873000D01*
X166950590Y-88883006D01*
X166908965Y-88911447D01*
X166881685Y-88953841D01*
X166873000Y-89000000D01*
X166873000Y-89171000D01*
X166795991Y-89247875D01*
X166634904Y-89635816D01*
X166615689Y-89589311D01*
X166312286Y-89285378D01*
X165915668Y-89120687D01*
X165662176Y-89120466D01*
X162668710Y-86127000D01*
X166000000Y-86127000D01*
X166049410Y-86116994D01*
X166089803Y-86089803D01*
X166165822Y-86013784D01*
X175620313Y-86013784D01*
X175784311Y-86410689D01*
X176087714Y-86714622D01*
X176484332Y-86879313D01*
X176737824Y-86879534D01*
X179979145Y-90120855D01*
X180218116Y-90280531D01*
X180387706Y-90314264D01*
X180587714Y-90514622D01*
X180984332Y-90679313D01*
X181413784Y-90679687D01*
X181810689Y-90515689D01*
X182114622Y-90212286D01*
X182279313Y-89815668D01*
X182279687Y-89386216D01*
X182115689Y-88989311D01*
X181812286Y-88685378D01*
X181415668Y-88520687D01*
X180986216Y-88520313D01*
X180615288Y-88673578D01*
X177779468Y-85837758D01*
X177779687Y-85586216D01*
X177615689Y-85189311D01*
X177312286Y-84885378D01*
X176915668Y-84720687D01*
X176486216Y-84720313D01*
X176089311Y-84884311D01*
X175785378Y-85187714D01*
X175620687Y-85584332D01*
X175620313Y-86013784D01*
X166165822Y-86013784D01*
X166388514Y-85791092D01*
X166491885Y-85770530D01*
X166730855Y-85610855D01*
X168962242Y-83379468D01*
X169213784Y-83379687D01*
X169610689Y-83215689D01*
X169914622Y-82912286D01*
X170079313Y-82515668D01*
X170079687Y-82086216D01*
X169915689Y-81689311D01*
X169612286Y-81385378D01*
X169215668Y-81220687D01*
X169127000Y-81220610D01*
X169127000Y-78136600D01*
X174021690Y-78136600D01*
X172037758Y-80120532D01*
X171786216Y-80120313D01*
X171389311Y-80284311D01*
X171085378Y-80587714D01*
X170920687Y-80984332D01*
X170920313Y-81413784D01*
X171084311Y-81810689D01*
X171387714Y-82114622D01*
X171784332Y-82279313D01*
X172213784Y-82279687D01*
X172610689Y-82115689D01*
X172914622Y-81812286D01*
X173079313Y-81415668D01*
X173079534Y-81162176D01*
X175810254Y-78431456D01*
X175884311Y-78610689D01*
X176187714Y-78914622D01*
X176584332Y-79079313D01*
X176720430Y-79079432D01*
X176720313Y-79213784D01*
X176884311Y-79610689D01*
X177187714Y-79914622D01*
X177393342Y-80000007D01*
X177189311Y-80084311D01*
X176885378Y-80387714D01*
X176720687Y-80784332D01*
X176720313Y-81213784D01*
X176884311Y-81610689D01*
X177187714Y-81914622D01*
X177584332Y-82079313D01*
X178013784Y-82079687D01*
X178410689Y-81915689D01*
X178590091Y-81736600D01*
X184494890Y-81736600D01*
X194063400Y-91305110D01*
X194063400Y-109000000D01*
X194064989Y-109007988D01*
X194063574Y-109016009D01*
X194092967Y-109148645D01*
X194119470Y-109281885D01*
X194123995Y-109288657D01*
X194125757Y-109296609D01*
X194203674Y-109407904D01*
X194279145Y-109520855D01*
X194285917Y-109525380D01*
X194290588Y-109532052D01*
X197930268Y-113016852D01*
X197865284Y-113173352D01*
X197864716Y-113823795D01*
X198113106Y-114424943D01*
X198572637Y-114885278D01*
X198763400Y-114964490D01*
X198763400Y-118535284D01*
X198575057Y-118613106D01*
X198114722Y-119072637D01*
X197865284Y-119673352D01*
X197864716Y-120323795D01*
X198113106Y-120924943D01*
X198572637Y-121385278D01*
X199173352Y-121634716D01*
X199823795Y-121635284D01*
X200424943Y-121386894D01*
X200885278Y-120927363D01*
X201134716Y-120326648D01*
X201135232Y-119735461D01*
X202354092Y-119735461D01*
X202378144Y-120385460D01*
X202580613Y-120874264D01*
X202847468Y-120972927D01*
X203820395Y-120000000D01*
X202847468Y-119027073D01*
X202580613Y-119125736D01*
X202354092Y-119735461D01*
X201135232Y-119735461D01*
X201135284Y-119676205D01*
X200886894Y-119075057D01*
X200427363Y-118614722D01*
X200236600Y-118535510D01*
X200236600Y-114964716D01*
X200424943Y-114886894D01*
X200885278Y-114427363D01*
X201134716Y-113826648D01*
X201135232Y-113235461D01*
X202354092Y-113235461D01*
X202378144Y-113885460D01*
X202580613Y-114374264D01*
X202847468Y-114472927D01*
X203820395Y-113500000D01*
X202847468Y-112527073D01*
X202580613Y-112625736D01*
X202354092Y-113235461D01*
X201135232Y-113235461D01*
X201135284Y-113176205D01*
X200886894Y-112575057D01*
X200427363Y-112114722D01*
X199826648Y-111865284D01*
X199176205Y-111864716D01*
X198953330Y-111956806D01*
X195536600Y-108685468D01*
X195536600Y-91000000D01*
X195480530Y-90718115D01*
X195320855Y-90479145D01*
X185578310Y-80736600D01*
X188494890Y-80736600D01*
X196063400Y-88305110D01*
X196063400Y-97000000D01*
X196066206Y-97014106D01*
X196063944Y-97028310D01*
X196094146Y-97154570D01*
X196119470Y-97281885D01*
X196127460Y-97293843D01*
X196130806Y-97307831D01*
X196207023Y-97412916D01*
X196279145Y-97520855D01*
X196291104Y-97528846D01*
X196299548Y-97540488D01*
X197920202Y-99041094D01*
X197865284Y-99173352D01*
X197864716Y-99823795D01*
X198113106Y-100424943D01*
X198572637Y-100885278D01*
X198763400Y-100964490D01*
X198763400Y-104535284D01*
X198575057Y-104613106D01*
X198114722Y-105072637D01*
X197865284Y-105673352D01*
X197864716Y-106323795D01*
X198113106Y-106924943D01*
X198572637Y-107385278D01*
X199173352Y-107634716D01*
X199823795Y-107635284D01*
X200424943Y-107386894D01*
X200885278Y-106927363D01*
X201134716Y-106326648D01*
X201135232Y-105735461D01*
X202354092Y-105735461D01*
X202378144Y-106385460D01*
X202580613Y-106874264D01*
X202847468Y-106972927D01*
X203820395Y-106000000D01*
X202847468Y-105027073D01*
X202580613Y-105125736D01*
X202354092Y-105735461D01*
X201135232Y-105735461D01*
X201135284Y-105676205D01*
X200886894Y-105075057D01*
X200427363Y-104614722D01*
X200236600Y-104535510D01*
X200236600Y-100964716D01*
X200424943Y-100886894D01*
X200885278Y-100427363D01*
X201134716Y-99826648D01*
X201135232Y-99235461D01*
X202354092Y-99235461D01*
X202378144Y-99885460D01*
X202580613Y-100374264D01*
X202847468Y-100472927D01*
X203820395Y-99500000D01*
X202847468Y-98527073D01*
X202580613Y-98625736D01*
X202354092Y-99235461D01*
X201135232Y-99235461D01*
X201135284Y-99176205D01*
X200886894Y-98575057D01*
X200427363Y-98114722D01*
X199826648Y-97865284D01*
X199176205Y-97864716D01*
X198928576Y-97967034D01*
X197536600Y-96678168D01*
X197536600Y-88000000D01*
X197480530Y-87718115D01*
X197320855Y-87479145D01*
X189578310Y-79736600D01*
X192494890Y-79736600D01*
X193279145Y-80520855D01*
X193284712Y-80524575D01*
X193288528Y-80530071D01*
X197932613Y-85011206D01*
X197865284Y-85173352D01*
X197864716Y-85823795D01*
X198113106Y-86424943D01*
X198572637Y-86885278D01*
X198763400Y-86964490D01*
X198763400Y-90535284D01*
X198575057Y-90613106D01*
X198114722Y-91072637D01*
X197865284Y-91673352D01*
X197864716Y-92323795D01*
X198113106Y-92924943D01*
X198572637Y-93385278D01*
X199173352Y-93634716D01*
X199823795Y-93635284D01*
X200424943Y-93386894D01*
X200885278Y-92927363D01*
X201134716Y-92326648D01*
X201135232Y-91735461D01*
X202354092Y-91735461D01*
X202378144Y-92385460D01*
X202580613Y-92874264D01*
X202847468Y-92972927D01*
X203820395Y-92000000D01*
X202847468Y-91027073D01*
X202580613Y-91125736D01*
X202354092Y-91735461D01*
X201135232Y-91735461D01*
X201135284Y-91676205D01*
X200886894Y-91075057D01*
X200427363Y-90614722D01*
X200236600Y-90535510D01*
X200236600Y-86964716D01*
X200424943Y-86886894D01*
X200885278Y-86427363D01*
X201134716Y-85826648D01*
X201135232Y-85235461D01*
X202354092Y-85235461D01*
X202378144Y-85885460D01*
X202580613Y-86374264D01*
X202847468Y-86472927D01*
X203820395Y-85500000D01*
X202847468Y-84527073D01*
X202580613Y-84625736D01*
X202354092Y-85235461D01*
X201135232Y-85235461D01*
X201135284Y-85176205D01*
X200886894Y-84575057D01*
X200427363Y-84114722D01*
X199826648Y-83865284D01*
X199176205Y-83864716D01*
X198959057Y-83954440D01*
X194316231Y-79474521D01*
X193578310Y-78736600D01*
X198035284Y-78736600D01*
X198113106Y-78924943D01*
X198572637Y-79385278D01*
X199173352Y-79634716D01*
X199823795Y-79635284D01*
X200424943Y-79386894D01*
X200885278Y-78927363D01*
X201134716Y-78326648D01*
X201135232Y-77735461D01*
X202354092Y-77735461D01*
X202378144Y-78385460D01*
X202580613Y-78874264D01*
X202847468Y-78972927D01*
X203820395Y-78000000D01*
X202847468Y-77027073D01*
X202580613Y-77125736D01*
X202354092Y-77735461D01*
X201135232Y-77735461D01*
X201135284Y-77676205D01*
X200886894Y-77075057D01*
X200427363Y-76614722D01*
X200236600Y-76535510D01*
X200236600Y-72964716D01*
X200424943Y-72886894D01*
X200885278Y-72427363D01*
X201134716Y-71826648D01*
X201135232Y-71235461D01*
X202354092Y-71235461D01*
X202378144Y-71885460D01*
X202580613Y-72374264D01*
X202847468Y-72472927D01*
X203820395Y-71500000D01*
X202847468Y-70527073D01*
X202580613Y-70625736D01*
X202354092Y-71235461D01*
X201135232Y-71235461D01*
X201135284Y-71176205D01*
X200886894Y-70575057D01*
X200427363Y-70114722D01*
X199826648Y-69865284D01*
X199176205Y-69864716D01*
X198575057Y-70113106D01*
X198114722Y-70572637D01*
X197865284Y-71173352D01*
X197864716Y-71823795D01*
X198113106Y-72424943D01*
X198572637Y-72885278D01*
X198763400Y-72964490D01*
X198763400Y-76535284D01*
X198575057Y-76613106D01*
X198114722Y-77072637D01*
X198035510Y-77263400D01*
X177589998Y-77263400D01*
X177476819Y-77150023D01*
X177514622Y-77112286D01*
X177679313Y-76715668D01*
X177679687Y-76286216D01*
X177515689Y-75889311D01*
X177212286Y-75585378D01*
X177102090Y-75539620D01*
X178662242Y-73979468D01*
X178913784Y-73979687D01*
X179310689Y-73815689D01*
X179614622Y-73512286D01*
X179779313Y-73115668D01*
X179779687Y-72686216D01*
X179615689Y-72289311D01*
X179312286Y-71985378D01*
X178915668Y-71820687D01*
X178486216Y-71820313D01*
X178089311Y-71984311D01*
X177785378Y-72287714D01*
X177620687Y-72684332D01*
X177620466Y-72937824D01*
X173894890Y-76663400D01*
X169127000Y-76663400D01*
X169127000Y-60000000D01*
X169116994Y-59950590D01*
X169088553Y-59908965D01*
X169046159Y-59881685D01*
X169000000Y-59873000D01*
X165000000Y-59873000D01*
X164950590Y-59883006D01*
X164910197Y-59910197D01*
X158947394Y-65873000D01*
X158049822Y-65873000D01*
X158075515Y-65862384D01*
X158859631Y-65079635D01*
X159284515Y-64056401D01*
X159285482Y-62948460D01*
X158862384Y-61924485D01*
X158079635Y-61140369D01*
X157056401Y-60715485D01*
X155948460Y-60714518D01*
X154924485Y-61137616D01*
X154140369Y-61920365D01*
X153715485Y-62943599D01*
X153714518Y-64051540D01*
X154137616Y-65075515D01*
X154920365Y-65859631D01*
X154952561Y-65873000D01*
X141000000Y-65873000D01*
X140950590Y-65883006D01*
X140910197Y-65910197D01*
X131910197Y-74910197D01*
X131882334Y-74952211D01*
X131873000Y-75000000D01*
X131873000Y-84000000D01*
X131883006Y-84049410D01*
X131910197Y-84089803D01*
X133873000Y-86052606D01*
X133873000Y-91000000D01*
X133883006Y-91049410D01*
X133910197Y-91089803D01*
X135851400Y-93031006D01*
X135851400Y-97788000D01*
X135873000Y-97896591D01*
X135873000Y-98000000D01*
X135883006Y-98049410D01*
X135910197Y-98089803D01*
X135942087Y-98121693D01*
X136067145Y-98308855D01*
X145120532Y-107362242D01*
X145120313Y-107613784D01*
X145284311Y-108010689D01*
X145587714Y-108314622D01*
X145984332Y-108479313D01*
X146413784Y-108479687D01*
X146810689Y-108315689D01*
X146999708Y-108127000D01*
X147000000Y-108127000D01*
X147049410Y-108116994D01*
X147091035Y-108088553D01*
X147118315Y-108046159D01*
X147127000Y-108000000D01*
X147127000Y-107982477D01*
X147279313Y-107615668D01*
X147279687Y-107186216D01*
X147127000Y-106816686D01*
X147127000Y-106336600D01*
X150760175Y-106336600D01*
X150645267Y-106613330D01*
X150644735Y-107223991D01*
X150877932Y-107788371D01*
X151279182Y-108190323D01*
X150879449Y-108589357D01*
X150645267Y-109153330D01*
X150644735Y-109763991D01*
X150877932Y-110328371D01*
X151279182Y-110730323D01*
X150879449Y-111129357D01*
X150645267Y-111693330D01*
X150644735Y-112303991D01*
X150877932Y-112868371D01*
X151072620Y-113063400D01*
X136705110Y-113063400D01*
X114425584Y-90783874D01*
X114472680Y-90547106D01*
X114472680Y-89452894D01*
X123527320Y-89452894D01*
X123527320Y-90547106D01*
X123670783Y-91268342D01*
X124079330Y-91879776D01*
X124690764Y-92288323D01*
X125412000Y-92431786D01*
X126133236Y-92288323D01*
X126744670Y-91879776D01*
X127153217Y-91268342D01*
X127296680Y-90547106D01*
X127296680Y-89452894D01*
X129115320Y-89452894D01*
X129115320Y-90547106D01*
X129258783Y-91268342D01*
X129667330Y-91879776D01*
X130278764Y-92288323D01*
X131000000Y-92431786D01*
X131721236Y-92288323D01*
X132332670Y-91879776D01*
X132741217Y-91268342D01*
X132884680Y-90547106D01*
X132884680Y-89452894D01*
X132741217Y-88731658D01*
X132332670Y-88120224D01*
X131721236Y-87711677D01*
X131000000Y-87568214D01*
X130278764Y-87711677D01*
X129667330Y-88120224D01*
X129258783Y-88731658D01*
X129115320Y-89452894D01*
X127296680Y-89452894D01*
X127153217Y-88731658D01*
X126744670Y-88120224D01*
X126133236Y-87711677D01*
X125412000Y-87568214D01*
X124690764Y-87711677D01*
X124079330Y-88120224D01*
X123670783Y-88731658D01*
X123527320Y-89452894D01*
X114472680Y-89452894D01*
X114329217Y-88731658D01*
X113920670Y-88120224D01*
X113309236Y-87711677D01*
X112588000Y-87568214D01*
X111866764Y-87711677D01*
X111255330Y-88120224D01*
X110846783Y-88731658D01*
X110703320Y-89452894D01*
X110703320Y-90547106D01*
X110846783Y-91268342D01*
X111255330Y-91879776D01*
X111866764Y-92288323D01*
X112588000Y-92431786D01*
X113309236Y-92288323D01*
X113631370Y-92073080D01*
X135879145Y-114320855D01*
X136118115Y-114480530D01*
X136400000Y-114536600D01*
X162010002Y-114536600D01*
X162187714Y-114714622D01*
X162584332Y-114879313D01*
X162873000Y-114879564D01*
X162873000Y-120873000D01*
X146747440Y-120873000D01*
X146747440Y-118900000D01*
X146703162Y-118664683D01*
X146564090Y-118448559D01*
X146351890Y-118303569D01*
X146100000Y-118252560D01*
X143900000Y-118252560D01*
X143664683Y-118296838D01*
X143448559Y-118435910D01*
X143303569Y-118648110D01*
X143252560Y-118900000D01*
X143252560Y-119263400D01*
X112127000Y-119263400D01*
X112127000Y-111000000D01*
X112116994Y-110950590D01*
X112089803Y-110910197D01*
X103622225Y-102442619D01*
X116764613Y-102442619D01*
X117104155Y-103264372D01*
X117732321Y-103893636D01*
X118553481Y-104234611D01*
X119442619Y-104235387D01*
X120264372Y-103895845D01*
X120893636Y-103267679D01*
X121234611Y-102446519D01*
X121235387Y-101557381D01*
X120895845Y-100735628D01*
X120267679Y-100106364D01*
X119446519Y-99765389D01*
X118557381Y-99764613D01*
X117735628Y-100104155D01*
X117106364Y-100732321D01*
X116765389Y-101553481D01*
X116764613Y-102442619D01*
X103622225Y-102442619D01*
X96127000Y-94947394D01*
X96127000Y-89452894D01*
X99527320Y-89452894D01*
X99527320Y-90547106D01*
X99670783Y-91268342D01*
X100079330Y-91879776D01*
X100690764Y-92288323D01*
X101412000Y-92431786D01*
X102133236Y-92288323D01*
X102744670Y-91879776D01*
X103153217Y-91268342D01*
X103296680Y-90547106D01*
X103296680Y-89452894D01*
X105115320Y-89452894D01*
X105115320Y-90547106D01*
X105258783Y-91268342D01*
X105667330Y-91879776D01*
X106278764Y-92288323D01*
X107000000Y-92431786D01*
X107721236Y-92288323D01*
X108332670Y-91879776D01*
X108741217Y-91268342D01*
X108884680Y-90547106D01*
X108884680Y-89452894D01*
X108741217Y-88731658D01*
X108332670Y-88120224D01*
X107721236Y-87711677D01*
X107000000Y-87568214D01*
X106278764Y-87711677D01*
X105667330Y-88120224D01*
X105258783Y-88731658D01*
X105115320Y-89452894D01*
X103296680Y-89452894D01*
X103153217Y-88731658D01*
X102744670Y-88120224D01*
X102133236Y-87711677D01*
X101412000Y-87568214D01*
X100690764Y-87711677D01*
X100079330Y-88120224D01*
X99670783Y-88731658D01*
X99527320Y-89452894D01*
X96127000Y-89452894D01*
X96127000Y-65500159D01*
X96799446Y-65500159D01*
X96885852Y-65756643D01*
X97459336Y-65966458D01*
X98069460Y-65940839D01*
X98514148Y-65756643D01*
X98600554Y-65500159D01*
X104419446Y-65500159D01*
X104505852Y-65756643D01*
X105079336Y-65966458D01*
X105689460Y-65940839D01*
X106134148Y-65756643D01*
X106220554Y-65500159D01*
X105320000Y-64599605D01*
X104419446Y-65500159D01*
X98600554Y-65500159D01*
X97700000Y-64599605D01*
X96799446Y-65500159D01*
X96127000Y-65500159D01*
X96127000Y-65052606D01*
X96240957Y-64938649D01*
X96363357Y-65234148D01*
X96619841Y-65320554D01*
X97520395Y-64420000D01*
X97879605Y-64420000D01*
X98780159Y-65320554D01*
X99036643Y-65234148D01*
X99246458Y-64660664D01*
X99226248Y-64179336D01*
X103773542Y-64179336D01*
X103799161Y-64789460D01*
X103983357Y-65234148D01*
X104239841Y-65320554D01*
X105140395Y-64420000D01*
X105499605Y-64420000D01*
X106400159Y-65320554D01*
X106656643Y-65234148D01*
X106866458Y-64660664D01*
X106840839Y-64050540D01*
X106656643Y-63605852D01*
X106400159Y-63519446D01*
X105499605Y-64420000D01*
X105140395Y-64420000D01*
X104239841Y-63519446D01*
X103983357Y-63605852D01*
X103773542Y-64179336D01*
X99226248Y-64179336D01*
X99220839Y-64050540D01*
X99036643Y-63605852D01*
X98780159Y-63519446D01*
X97879605Y-64420000D01*
X97520395Y-64420000D01*
X97506253Y-64405858D01*
X97685858Y-64226253D01*
X97700000Y-64240395D01*
X98600554Y-63339841D01*
X98549965Y-63189673D01*
X98568371Y-63182068D01*
X99000551Y-62750643D01*
X99234733Y-62186670D01*
X99234944Y-61944662D01*
X103869783Y-57309823D01*
X104017932Y-57668371D01*
X104419182Y-58070323D01*
X104019449Y-58469357D01*
X103785267Y-59033330D01*
X103784735Y-59643991D01*
X104017932Y-60208371D01*
X104419182Y-60610323D01*
X104019449Y-61009357D01*
X103785267Y-61573330D01*
X103784735Y-62183991D01*
X104017932Y-62748371D01*
X104449357Y-63180551D01*
X104470194Y-63189203D01*
X104419446Y-63339841D01*
X105320000Y-64240395D01*
X106220554Y-63339841D01*
X106169965Y-63189673D01*
X106188371Y-63182068D01*
X106620551Y-62750643D01*
X106854733Y-62186670D01*
X106855135Y-61725000D01*
X135827560Y-61725000D01*
X135827560Y-63525000D01*
X135871838Y-63760317D01*
X136010910Y-63976441D01*
X136223110Y-64121431D01*
X136475000Y-64172440D01*
X138275000Y-64172440D01*
X138510317Y-64128162D01*
X138726441Y-63989090D01*
X138871431Y-63776890D01*
X138875567Y-63756466D01*
X139044357Y-63925551D01*
X139608330Y-64159733D01*
X140218991Y-64160265D01*
X140783371Y-63927068D01*
X141185323Y-63525818D01*
X141584357Y-63925551D01*
X142148330Y-64159733D01*
X142758991Y-64160265D01*
X143323371Y-63927068D01*
X143545668Y-63705159D01*
X144094446Y-63705159D01*
X144180852Y-63961643D01*
X144754336Y-64171458D01*
X145364460Y-64145839D01*
X145809148Y-63961643D01*
X145895554Y-63705159D01*
X144995000Y-62804605D01*
X144094446Y-63705159D01*
X143545668Y-63705159D01*
X143755551Y-63495643D01*
X143764203Y-63474806D01*
X143914841Y-63525554D01*
X144815395Y-62625000D01*
X145174605Y-62625000D01*
X146075159Y-63525554D01*
X146331643Y-63439148D01*
X146541458Y-62865664D01*
X146515839Y-62255540D01*
X146331643Y-61810852D01*
X146075159Y-61724446D01*
X145174605Y-62625000D01*
X144815395Y-62625000D01*
X143914841Y-61724446D01*
X143764673Y-61775035D01*
X143757068Y-61756629D01*
X143545650Y-61544841D01*
X144094446Y-61544841D01*
X144995000Y-62445395D01*
X145895554Y-61544841D01*
X145809148Y-61288357D01*
X145235664Y-61078542D01*
X144625540Y-61104161D01*
X144180852Y-61288357D01*
X144094446Y-61544841D01*
X143545650Y-61544841D01*
X143325643Y-61324449D01*
X142761670Y-61090267D01*
X142151009Y-61089735D01*
X141586629Y-61322932D01*
X141184677Y-61724182D01*
X140785643Y-61324449D01*
X140221670Y-61090267D01*
X139611009Y-61089735D01*
X139046629Y-61322932D01*
X138878387Y-61490880D01*
X138878162Y-61489683D01*
X138739090Y-61273559D01*
X138526890Y-61128569D01*
X138275000Y-61077560D01*
X136475000Y-61077560D01*
X136239683Y-61121838D01*
X136023559Y-61260910D01*
X135878569Y-61473110D01*
X135827560Y-61725000D01*
X106855135Y-61725000D01*
X106855265Y-61576009D01*
X106622068Y-61011629D01*
X106220818Y-60609677D01*
X106620551Y-60210643D01*
X106854733Y-59646670D01*
X106855265Y-59036009D01*
X106622068Y-58471629D01*
X106220818Y-58069677D01*
X106620551Y-57670643D01*
X106854733Y-57106670D01*
X106855265Y-56496009D01*
X106702794Y-56127000D01*
X136000000Y-56127000D01*
X136049410Y-56116994D01*
X136091035Y-56088553D01*
X136118315Y-56046159D01*
X136127000Y-56000000D01*
X136127000Y-55927534D01*
X136504357Y-56305551D01*
X137068330Y-56539733D01*
X137678991Y-56540265D01*
X138243371Y-56307068D01*
X138645323Y-55905818D01*
X139044357Y-56305551D01*
X139608330Y-56539733D01*
X140218991Y-56540265D01*
X140783371Y-56307068D01*
X141185323Y-55905818D01*
X141584357Y-56305551D01*
X142148330Y-56539733D01*
X142758991Y-56540265D01*
X143323371Y-56307068D01*
X143725323Y-55905818D01*
X144124357Y-56305551D01*
X144688330Y-56539733D01*
X145298991Y-56540265D01*
X145863371Y-56307068D01*
X146295551Y-55875643D01*
X146529733Y-55311670D01*
X146530265Y-54701009D01*
X146297068Y-54136629D01*
X145865643Y-53704449D01*
X145301670Y-53470267D01*
X144691009Y-53469735D01*
X144126629Y-53702932D01*
X143724677Y-54104182D01*
X143325643Y-53704449D01*
X142761670Y-53470267D01*
X142151009Y-53469735D01*
X141586629Y-53702932D01*
X141184677Y-54104182D01*
X140785643Y-53704449D01*
X140221670Y-53470267D01*
X139611009Y-53469735D01*
X139046629Y-53702932D01*
X138644677Y-54104182D01*
X138245643Y-53704449D01*
X137681670Y-53470267D01*
X137071009Y-53469735D01*
X136506629Y-53702932D01*
X136127000Y-54081898D01*
X136127000Y-53051540D01*
X164714518Y-53051540D01*
X165137616Y-54075515D01*
X165920365Y-54859631D01*
X166943599Y-55284515D01*
X168051540Y-55285482D01*
X169075515Y-54862384D01*
X169859631Y-54079635D01*
X170284515Y-53056401D01*
X170284997Y-52503021D01*
X172013560Y-52503021D01*
X172399437Y-53436915D01*
X173113327Y-54152052D01*
X174046546Y-54539559D01*
X175057021Y-54540440D01*
X175990915Y-54154563D01*
X176706052Y-53440673D01*
X177040597Y-52635000D01*
X180129560Y-52635000D01*
X180129560Y-54159000D01*
X180173838Y-54394317D01*
X180312910Y-54610441D01*
X180525110Y-54755431D01*
X180777000Y-54806440D01*
X182301000Y-54806440D01*
X182536317Y-54762162D01*
X182752441Y-54623090D01*
X182897431Y-54410890D01*
X182948440Y-54159000D01*
X182948440Y-53704354D01*
X183147990Y-54187303D01*
X183540630Y-54580629D01*
X183596400Y-54603787D01*
X183596400Y-56498743D01*
X183389311Y-56584311D01*
X183085378Y-56887714D01*
X182920687Y-57284332D01*
X182920313Y-57713784D01*
X183084311Y-58110689D01*
X183387714Y-58414622D01*
X183784332Y-58579313D01*
X184213784Y-58579687D01*
X184545513Y-58442619D01*
X198564613Y-58442619D01*
X198904155Y-59264372D01*
X199532321Y-59893636D01*
X200353481Y-60234611D01*
X201242619Y-60235387D01*
X202064372Y-59895845D01*
X202693636Y-59267679D01*
X203034611Y-58446519D01*
X203035387Y-57557381D01*
X202695845Y-56735628D01*
X202067679Y-56106364D01*
X201246519Y-55765389D01*
X200357381Y-55764613D01*
X199535628Y-56104155D01*
X198906364Y-56732321D01*
X198565389Y-57553481D01*
X198564613Y-58442619D01*
X184545513Y-58442619D01*
X184610689Y-58415689D01*
X184914622Y-58112286D01*
X185079313Y-57715668D01*
X185079687Y-57286216D01*
X185056871Y-57230996D01*
X185069600Y-57167000D01*
X185069600Y-54604200D01*
X185123303Y-54582010D01*
X185516629Y-54189370D01*
X185666606Y-53828185D01*
X185814990Y-54187303D01*
X186207630Y-54580629D01*
X186720900Y-54793757D01*
X187276661Y-54794242D01*
X187790303Y-54582010D01*
X188183629Y-54189370D01*
X188396757Y-53676100D01*
X188396759Y-53673664D01*
X188608990Y-54187303D01*
X189001630Y-54580629D01*
X189514900Y-54793757D01*
X190070661Y-54794242D01*
X190584303Y-54582010D01*
X190789457Y-54377213D01*
X191660392Y-54377213D01*
X191729857Y-54619397D01*
X192253302Y-54806144D01*
X192808368Y-54778362D01*
X193192143Y-54619397D01*
X193261608Y-54377213D01*
X192461000Y-53576605D01*
X191660392Y-54377213D01*
X190789457Y-54377213D01*
X190977629Y-54189370D01*
X191120973Y-53844159D01*
X191238603Y-54128143D01*
X191480787Y-54197608D01*
X192281395Y-53397000D01*
X192640605Y-53397000D01*
X193441213Y-54197608D01*
X193683397Y-54128143D01*
X193870144Y-53604698D01*
X193842362Y-53049632D01*
X193683397Y-52665857D01*
X193441213Y-52596392D01*
X192640605Y-53397000D01*
X192281395Y-53397000D01*
X191480787Y-52596392D01*
X191238603Y-52665857D01*
X191129645Y-52971262D01*
X190979010Y-52606697D01*
X190789432Y-52416787D01*
X191660392Y-52416787D01*
X192461000Y-53217395D01*
X193175374Y-52503021D01*
X197032560Y-52503021D01*
X197418437Y-53436915D01*
X198132327Y-54152052D01*
X199065546Y-54539559D01*
X200076021Y-54540440D01*
X201009915Y-54154563D01*
X201725052Y-53440673D01*
X202112559Y-52507454D01*
X202113440Y-51496979D01*
X201727563Y-50563085D01*
X201013673Y-49847948D01*
X200080454Y-49460441D01*
X199069979Y-49459560D01*
X198136085Y-49845437D01*
X197420948Y-50559327D01*
X197033441Y-51492546D01*
X197032560Y-52503021D01*
X193175374Y-52503021D01*
X193261608Y-52416787D01*
X193192143Y-52174603D01*
X192668698Y-51987856D01*
X192113632Y-52015638D01*
X191729857Y-52174603D01*
X191660392Y-52416787D01*
X190789432Y-52416787D01*
X190586370Y-52213371D01*
X190073100Y-52000243D01*
X189517339Y-51999758D01*
X189003697Y-52211990D01*
X188610371Y-52604630D01*
X188397243Y-53117900D01*
X188397241Y-53120336D01*
X188185010Y-52606697D01*
X187792370Y-52213371D01*
X187279100Y-52000243D01*
X186723339Y-51999758D01*
X186209697Y-52211990D01*
X185816371Y-52604630D01*
X185666394Y-52965815D01*
X185518010Y-52606697D01*
X185125370Y-52213371D01*
X184612100Y-52000243D01*
X184056339Y-51999758D01*
X183542697Y-52211990D01*
X183149371Y-52604630D01*
X182948440Y-53088526D01*
X182948440Y-52635000D01*
X182904162Y-52399683D01*
X182765090Y-52183559D01*
X182552890Y-52038569D01*
X182301000Y-51987560D01*
X180777000Y-51987560D01*
X180541683Y-52031838D01*
X180325559Y-52170910D01*
X180180569Y-52383110D01*
X180129560Y-52635000D01*
X177040597Y-52635000D01*
X177093559Y-52507454D01*
X177094440Y-51496979D01*
X176839370Y-50879661D01*
X181538758Y-50879661D01*
X181750990Y-51393303D01*
X182143630Y-51786629D01*
X182656900Y-51999757D01*
X183212661Y-52000242D01*
X183726303Y-51788010D01*
X184119629Y-51395370D01*
X184332757Y-50882100D01*
X184332759Y-50879664D01*
X184544990Y-51393303D01*
X184937630Y-51786629D01*
X185450900Y-51999757D01*
X186006661Y-52000242D01*
X186520303Y-51788010D01*
X186913629Y-51395370D01*
X187063606Y-51034185D01*
X187211990Y-51393303D01*
X187604630Y-51786629D01*
X188117900Y-51999757D01*
X188673661Y-52000242D01*
X189187303Y-51788010D01*
X189580629Y-51395370D01*
X189793757Y-50882100D01*
X189793759Y-50879664D01*
X190005990Y-51393303D01*
X190398630Y-51786629D01*
X190911900Y-51999757D01*
X191467661Y-52000242D01*
X191981303Y-51788010D01*
X192374629Y-51395370D01*
X192587757Y-50882100D01*
X192588242Y-50326339D01*
X192376010Y-49812697D01*
X191983370Y-49419371D01*
X191470100Y-49206243D01*
X190914339Y-49205758D01*
X190400697Y-49417990D01*
X190007371Y-49810630D01*
X189794243Y-50323900D01*
X189794241Y-50326336D01*
X189582010Y-49812697D01*
X189189370Y-49419371D01*
X188676100Y-49206243D01*
X188120339Y-49205758D01*
X187606697Y-49417990D01*
X187213371Y-49810630D01*
X187063394Y-50171815D01*
X186915010Y-49812697D01*
X186522370Y-49419371D01*
X186009100Y-49206243D01*
X185453339Y-49205758D01*
X184939697Y-49417990D01*
X184546371Y-49810630D01*
X184333243Y-50323900D01*
X184333241Y-50326336D01*
X184121010Y-49812697D01*
X183728370Y-49419371D01*
X183215100Y-49206243D01*
X182659339Y-49205758D01*
X182145697Y-49417990D01*
X181752371Y-49810630D01*
X181539243Y-50323900D01*
X181538758Y-50879661D01*
X176839370Y-50879661D01*
X176708563Y-50563085D01*
X175994673Y-49847948D01*
X175061454Y-49460441D01*
X174050979Y-49459560D01*
X173117085Y-49845437D01*
X172401948Y-50559327D01*
X172014441Y-51492546D01*
X172013560Y-52503021D01*
X170284997Y-52503021D01*
X170285482Y-51948460D01*
X169862384Y-50924485D01*
X169079635Y-50140369D01*
X168056401Y-49715485D01*
X166948460Y-49714518D01*
X165924485Y-50137616D01*
X165140369Y-50920365D01*
X164715485Y-51943599D01*
X164714518Y-53051540D01*
X136127000Y-53051540D01*
X136127000Y-47710000D01*
X205090000Y-47710000D01*
X205090000Y-70235980D01*
X205090000Y-70235980D01*
G37*
X205090000Y-70235980D02*
X205087206Y-70233186D01*
X204972926Y-70347466D01*
X204874264Y-70080613D01*
X204264539Y-69854092D01*
X203614540Y-69878144D01*
X203125736Y-70080613D01*
X203027073Y-70347468D01*
X204000000Y-71320395D01*
X204014143Y-71306253D01*
X204193748Y-71485858D01*
X204179605Y-71500000D01*
X204193748Y-71514143D01*
X204014143Y-71693748D01*
X204000000Y-71679605D01*
X203027073Y-72652532D01*
X203125736Y-72919387D01*
X203735461Y-73145908D01*
X204385460Y-73121856D01*
X204874264Y-72919387D01*
X204972926Y-72652534D01*
X205087206Y-72766814D01*
X205090000Y-72764020D01*
X205090000Y-76735980D01*
X205087206Y-76733186D01*
X204972926Y-76847466D01*
X204874264Y-76580613D01*
X204264539Y-76354092D01*
X203614540Y-76378144D01*
X203125736Y-76580613D01*
X203027073Y-76847468D01*
X204000000Y-77820395D01*
X204014143Y-77806253D01*
X204193748Y-77985858D01*
X204179605Y-78000000D01*
X204193748Y-78014143D01*
X204014143Y-78193748D01*
X204000000Y-78179605D01*
X203027073Y-79152532D01*
X203125736Y-79419387D01*
X203735461Y-79645908D01*
X204385460Y-79621856D01*
X204874264Y-79419387D01*
X204972926Y-79152534D01*
X205087206Y-79266814D01*
X205090000Y-79264020D01*
X205090000Y-84235980D01*
X205087206Y-84233186D01*
X204972926Y-84347466D01*
X204874264Y-84080613D01*
X204264539Y-83854092D01*
X203614540Y-83878144D01*
X203125736Y-84080613D01*
X203027073Y-84347468D01*
X204000000Y-85320395D01*
X204014143Y-85306253D01*
X204193748Y-85485858D01*
X204179605Y-85500000D01*
X204193748Y-85514143D01*
X204014143Y-85693748D01*
X204000000Y-85679605D01*
X203027073Y-86652532D01*
X203125736Y-86919387D01*
X203735461Y-87145908D01*
X204385460Y-87121856D01*
X204874264Y-86919387D01*
X204972926Y-86652534D01*
X205087206Y-86766814D01*
X205090000Y-86764020D01*
X205090000Y-90735980D01*
X205087206Y-90733186D01*
X204972926Y-90847466D01*
X204874264Y-90580613D01*
X204264539Y-90354092D01*
X203614540Y-90378144D01*
X203125736Y-90580613D01*
X203027073Y-90847468D01*
X204000000Y-91820395D01*
X204014143Y-91806253D01*
X204193748Y-91985858D01*
X204179605Y-92000000D01*
X204193748Y-92014143D01*
X204014143Y-92193748D01*
X204000000Y-92179605D01*
X203027073Y-93152532D01*
X203125736Y-93419387D01*
X203735461Y-93645908D01*
X204385460Y-93621856D01*
X204874264Y-93419387D01*
X204972926Y-93152534D01*
X205087206Y-93266814D01*
X205090000Y-93264020D01*
X205090000Y-98235980D01*
X205087206Y-98233186D01*
X204972926Y-98347466D01*
X204874264Y-98080613D01*
X204264539Y-97854092D01*
X203614540Y-97878144D01*
X203125736Y-98080613D01*
X203027073Y-98347468D01*
X204000000Y-99320395D01*
X204014143Y-99306253D01*
X204193748Y-99485858D01*
X204179605Y-99500000D01*
X204193748Y-99514143D01*
X204014143Y-99693748D01*
X204000000Y-99679605D01*
X203027073Y-100652532D01*
X203125736Y-100919387D01*
X203735461Y-101145908D01*
X204385460Y-101121856D01*
X204874264Y-100919387D01*
X204972926Y-100652534D01*
X205087206Y-100766814D01*
X205090000Y-100764020D01*
X205090000Y-104735980D01*
X205087206Y-104733186D01*
X204972926Y-104847466D01*
X204874264Y-104580613D01*
X204264539Y-104354092D01*
X203614540Y-104378144D01*
X203125736Y-104580613D01*
X203027073Y-104847468D01*
X204000000Y-105820395D01*
X204014143Y-105806253D01*
X204193748Y-105985858D01*
X204179605Y-106000000D01*
X204193748Y-106014143D01*
X204014143Y-106193748D01*
X204000000Y-106179605D01*
X203027073Y-107152532D01*
X203125736Y-107419387D01*
X203735461Y-107645908D01*
X204385460Y-107621856D01*
X204874264Y-107419387D01*
X204972926Y-107152534D01*
X205087206Y-107266814D01*
X205090000Y-107264020D01*
X205090000Y-112235980D01*
X205087206Y-112233186D01*
X204972926Y-112347466D01*
X204874264Y-112080613D01*
X204264539Y-111854092D01*
X203614540Y-111878144D01*
X203125736Y-112080613D01*
X203027073Y-112347468D01*
X204000000Y-113320395D01*
X204014143Y-113306253D01*
X204193748Y-113485858D01*
X204179605Y-113500000D01*
X204193748Y-113514143D01*
X204014143Y-113693748D01*
X204000000Y-113679605D01*
X203027073Y-114652532D01*
X203125736Y-114919387D01*
X203735461Y-115145908D01*
X204385460Y-115121856D01*
X204874264Y-114919387D01*
X204972926Y-114652534D01*
X205087206Y-114766814D01*
X205090000Y-114764020D01*
X205090000Y-118735980D01*
X205087206Y-118733186D01*
X204972926Y-118847466D01*
X204874264Y-118580613D01*
X204264539Y-118354092D01*
X203614540Y-118378144D01*
X203125736Y-118580613D01*
X203027073Y-118847468D01*
X204000000Y-119820395D01*
X204014143Y-119806253D01*
X204193748Y-119985858D01*
X204179605Y-120000000D01*
X204193748Y-120014143D01*
X204014143Y-120193748D01*
X204000000Y-120179605D01*
X203027073Y-121152532D01*
X203125736Y-121419387D01*
X203735461Y-121645908D01*
X204385460Y-121621856D01*
X204874264Y-121419387D01*
X204972926Y-121152534D01*
X205087206Y-121266814D01*
X205090000Y-121264020D01*
X205090000Y-139290000D01*
X73710000Y-139290000D01*
X73710000Y-135442619D01*
X75764613Y-135442619D01*
X76104155Y-136264372D01*
X76732321Y-136893636D01*
X77553481Y-137234611D01*
X78442619Y-137235387D01*
X79264372Y-136895845D01*
X79893636Y-136267679D01*
X80191002Y-135551540D01*
X82214518Y-135551540D01*
X82637616Y-136575515D01*
X83420365Y-137359631D01*
X84443599Y-137784515D01*
X85551540Y-137785482D01*
X86575515Y-137362384D01*
X87359631Y-136579635D01*
X87784515Y-135556401D01*
X87784519Y-135551540D01*
X153714518Y-135551540D01*
X154137616Y-136575515D01*
X154920365Y-137359631D01*
X155943599Y-137784515D01*
X157051540Y-137785482D01*
X158075515Y-137362384D01*
X158859631Y-136579635D01*
X159284515Y-135556401D01*
X159284519Y-135551540D01*
X164714518Y-135551540D01*
X165137616Y-136575515D01*
X165920365Y-137359631D01*
X166943599Y-137784515D01*
X168051540Y-137785482D01*
X169075515Y-137362384D01*
X169859631Y-136579635D01*
X170132313Y-135922944D01*
X181394025Y-135922944D01*
X181593615Y-136404818D01*
X182031621Y-136877188D01*
X182617054Y-137145983D01*
X182873000Y-137027367D01*
X182873000Y-135667000D01*
X183127000Y-135667000D01*
X183127000Y-137027367D01*
X183382946Y-137145983D01*
X183968379Y-136877188D01*
X184406385Y-136404818D01*
X184605975Y-135922944D01*
X186394025Y-135922944D01*
X186593615Y-136404818D01*
X187031621Y-136877188D01*
X187617054Y-137145983D01*
X187873000Y-137027367D01*
X187873000Y-135667000D01*
X188127000Y-135667000D01*
X188127000Y-137027367D01*
X188382946Y-137145983D01*
X188968379Y-136877188D01*
X189406385Y-136404818D01*
X189605975Y-135922944D01*
X189486836Y-135667000D01*
X188127000Y-135667000D01*
X187873000Y-135667000D01*
X186513164Y-135667000D01*
X186394025Y-135922944D01*
X184605975Y-135922944D01*
X184486836Y-135667000D01*
X183127000Y-135667000D01*
X182873000Y-135667000D01*
X181513164Y-135667000D01*
X181394025Y-135922944D01*
X170132313Y-135922944D01*
X170284515Y-135556401D01*
X170284614Y-135442619D01*
X198564613Y-135442619D01*
X198904155Y-136264372D01*
X199532321Y-136893636D01*
X200353481Y-137234611D01*
X201242619Y-137235387D01*
X202064372Y-136895845D01*
X202693636Y-136267679D01*
X203034611Y-135446519D01*
X203035387Y-134557381D01*
X202695845Y-133735628D01*
X202067679Y-133106364D01*
X201246519Y-132765389D01*
X200357381Y-132764613D01*
X199535628Y-133104155D01*
X198906364Y-133732321D01*
X198565389Y-134553481D01*
X198564613Y-135442619D01*
X170284614Y-135442619D01*
X170285482Y-134448460D01*
X169862384Y-133424485D01*
X169079635Y-132640369D01*
X168056401Y-132215485D01*
X166948460Y-132214518D01*
X165924485Y-132637616D01*
X165140369Y-133420365D01*
X164715485Y-134443599D01*
X164714518Y-135551540D01*
X159284519Y-135551540D01*
X159285482Y-134448460D01*
X158862384Y-133424485D01*
X158079635Y-132640369D01*
X157056401Y-132215485D01*
X155948460Y-132214518D01*
X154924485Y-132637616D01*
X154140369Y-133420365D01*
X153715485Y-134443599D01*
X153714518Y-135551540D01*
X87784519Y-135551540D01*
X87785482Y-134448460D01*
X87362384Y-133424485D01*
X86579635Y-132640369D01*
X85556401Y-132215485D01*
X84448460Y-132214518D01*
X83424485Y-132637616D01*
X82640369Y-133420365D01*
X82215485Y-134443599D01*
X82214518Y-135551540D01*
X80191002Y-135551540D01*
X80234611Y-135446519D01*
X80235387Y-134557381D01*
X79895845Y-133735628D01*
X79267679Y-133106364D01*
X78446519Y-132765389D01*
X77557381Y-132764613D01*
X76735628Y-133104155D01*
X76106364Y-133732321D01*
X75765389Y-134553481D01*
X75764613Y-135442619D01*
X73710000Y-135442619D01*
X73710000Y-131984000D01*
X181336560Y-131984000D01*
X181336560Y-134016000D01*
X181380838Y-134251317D01*
X181519910Y-134467441D01*
X181682948Y-134578840D01*
X181593615Y-134675182D01*
X181394025Y-135157056D01*
X181513164Y-135413000D01*
X182873000Y-135413000D01*
X182873000Y-135393000D01*
X183127000Y-135393000D01*
X183127000Y-135413000D01*
X184486836Y-135413000D01*
X184605975Y-135157056D01*
X184406385Y-134675182D01*
X184315903Y-134577602D01*
X184467441Y-134480090D01*
X184612431Y-134267890D01*
X184663440Y-134016000D01*
X184663440Y-132378270D01*
X185057710Y-131984000D01*
X186336560Y-131984000D01*
X186336560Y-134016000D01*
X186380838Y-134251317D01*
X186519910Y-134467441D01*
X186682948Y-134578840D01*
X186593615Y-134675182D01*
X186394025Y-135157056D01*
X186513164Y-135413000D01*
X187873000Y-135413000D01*
X187873000Y-135393000D01*
X188127000Y-135393000D01*
X188127000Y-135413000D01*
X189486836Y-135413000D01*
X189605975Y-135157056D01*
X189406385Y-134675182D01*
X189315903Y-134577602D01*
X189467441Y-134480090D01*
X189612431Y-134267890D01*
X189663440Y-134016000D01*
X189663440Y-131984000D01*
X189619162Y-131748683D01*
X189480090Y-131532559D01*
X189267890Y-131387569D01*
X189016000Y-131336560D01*
X188736600Y-131336560D01*
X188736600Y-99289998D01*
X188914622Y-99112286D01*
X189079313Y-98715668D01*
X189079687Y-98286216D01*
X188915689Y-97889311D01*
X188612286Y-97585378D01*
X188215668Y-97420687D01*
X187786216Y-97420313D01*
X187389311Y-97584311D01*
X187085378Y-97887714D01*
X186920687Y-98284332D01*
X186920313Y-98713784D01*
X187084311Y-99110689D01*
X187263400Y-99290091D01*
X187263400Y-131336560D01*
X186984000Y-131336560D01*
X186748683Y-131380838D01*
X186532559Y-131519910D01*
X186387569Y-131732110D01*
X186336560Y-131984000D01*
X185057710Y-131984000D01*
X186720855Y-130320855D01*
X186880530Y-130081885D01*
X186936600Y-129800000D01*
X186936600Y-100659357D01*
X187079313Y-100315668D01*
X187079687Y-99886216D01*
X186915689Y-99489311D01*
X186612286Y-99185378D01*
X186215668Y-99020687D01*
X185786216Y-99020313D01*
X185389311Y-99184311D01*
X185085378Y-99487714D01*
X184920687Y-99884332D01*
X184920313Y-100313784D01*
X185084311Y-100710689D01*
X185387714Y-101014622D01*
X185463400Y-101046050D01*
X185463400Y-129494890D01*
X183621730Y-131336560D01*
X181984000Y-131336560D01*
X181748683Y-131380838D01*
X181532559Y-131519910D01*
X181387569Y-131732110D01*
X181336560Y-131984000D01*
X73710000Y-131984000D01*
X73710000Y-129899016D01*
X101280590Y-129899016D01*
X101336271Y-130129611D01*
X101819078Y-130297622D01*
X102329428Y-130268083D01*
X102663729Y-130129611D01*
X102719410Y-129899016D01*
X102000000Y-129179605D01*
X101280590Y-129899016D01*
X73710000Y-129899016D01*
X73710000Y-128819078D01*
X100702378Y-128819078D01*
X100731917Y-129329428D01*
X100870389Y-129663729D01*
X101100984Y-129719410D01*
X101820395Y-129000000D01*
X102179605Y-129000000D01*
X102899016Y-129719410D01*
X103129611Y-129663729D01*
X103297622Y-129180922D01*
X103268083Y-128670572D01*
X103135298Y-128350000D01*
X105702560Y-128350000D01*
X105702560Y-129650000D01*
X105746838Y-129885317D01*
X105885910Y-130101441D01*
X106098110Y-130246431D01*
X106350000Y-130297440D01*
X107650000Y-130297440D01*
X107885317Y-130253162D01*
X108101441Y-130114090D01*
X108246431Y-129901890D01*
X108297440Y-129650000D01*
X108297440Y-128350000D01*
X108253162Y-128114683D01*
X108114090Y-127898559D01*
X107901890Y-127753569D01*
X107650000Y-127702560D01*
X106350000Y-127702560D01*
X106114683Y-127746838D01*
X105898559Y-127885910D01*
X105753569Y-128098110D01*
X105702560Y-128350000D01*
X103135298Y-128350000D01*
X103129611Y-128336271D01*
X102899016Y-128280590D01*
X102179605Y-129000000D01*
X101820395Y-129000000D01*
X101100984Y-128280590D01*
X100870389Y-128336271D01*
X100702378Y-128819078D01*
X73710000Y-128819078D01*
X73710000Y-128100984D01*
X101280590Y-128100984D01*
X102000000Y-128820395D01*
X102719410Y-128100984D01*
X102663729Y-127870389D01*
X102180922Y-127702378D01*
X101670572Y-127731917D01*
X101336271Y-127870389D01*
X101280590Y-128100984D01*
X73710000Y-128100984D01*
X73710000Y-125899016D01*
X101280590Y-125899016D01*
X101336271Y-126129611D01*
X101819078Y-126297622D01*
X102329428Y-126268083D01*
X102663729Y-126129611D01*
X102719410Y-125899016D01*
X107280590Y-125899016D01*
X107336271Y-126129611D01*
X107819078Y-126297622D01*
X108329428Y-126268083D01*
X108663729Y-126129611D01*
X108719410Y-125899016D01*
X108000000Y-125179605D01*
X107280590Y-125899016D01*
X102719410Y-125899016D01*
X102000000Y-125179605D01*
X101280590Y-125899016D01*
X73710000Y-125899016D01*
X73710000Y-125399016D01*
X94280590Y-125399016D01*
X94336271Y-125629611D01*
X94819078Y-125797622D01*
X95329428Y-125768083D01*
X95663729Y-125629611D01*
X95719410Y-125399016D01*
X95000000Y-124679605D01*
X94280590Y-125399016D01*
X73710000Y-125399016D01*
X73710000Y-124319078D01*
X93702378Y-124319078D01*
X93731917Y-124829428D01*
X93870389Y-125163729D01*
X94100984Y-125219410D01*
X94820395Y-124500000D01*
X95179605Y-124500000D01*
X95899016Y-125219410D01*
X96129611Y-125163729D01*
X96249545Y-124819078D01*
X100702378Y-124819078D01*
X100731917Y-125329428D01*
X100870389Y-125663729D01*
X101100984Y-125719410D01*
X101820395Y-125000000D01*
X102179605Y-125000000D01*
X102899016Y-125719410D01*
X103129611Y-125663729D01*
X103297622Y-125180922D01*
X103276679Y-124819078D01*
X106702378Y-124819078D01*
X106731917Y-125329428D01*
X106870389Y-125663729D01*
X107100984Y-125719410D01*
X107820395Y-125000000D01*
X108179605Y-125000000D01*
X108899016Y-125719410D01*
X109129611Y-125663729D01*
X109213173Y-125423599D01*
X143264699Y-125423599D01*
X143528281Y-126061515D01*
X144015918Y-126550004D01*
X144653373Y-126814699D01*
X145343599Y-126815301D01*
X145981515Y-126551719D01*
X146470004Y-126064082D01*
X146734699Y-125426627D01*
X146735301Y-124736401D01*
X146575644Y-124350000D01*
X153702560Y-124350000D01*
X153702560Y-125650000D01*
X153746838Y-125885317D01*
X153885910Y-126101441D01*
X154098110Y-126246431D01*
X154350000Y-126297440D01*
X155650000Y-126297440D01*
X155885317Y-126253162D01*
X156101441Y-126114090D01*
X156246431Y-125901890D01*
X156297440Y-125650000D01*
X156297440Y-124350000D01*
X156253162Y-124114683D01*
X156114090Y-123898559D01*
X155901890Y-123753569D01*
X155650000Y-123702560D01*
X155487615Y-123702560D01*
X155663729Y-123629611D01*
X155719410Y-123399016D01*
X155000000Y-122679605D01*
X154280590Y-123399016D01*
X154336271Y-123629611D01*
X154545902Y-123702560D01*
X154350000Y-123702560D01*
X154114683Y-123746838D01*
X153898559Y-123885910D01*
X153753569Y-124098110D01*
X153702560Y-124350000D01*
X146575644Y-124350000D01*
X146471719Y-124098485D01*
X145984082Y-123609996D01*
X145823861Y-123543466D01*
X145000000Y-122719605D01*
X144176695Y-123542910D01*
X144018485Y-123608281D01*
X143529996Y-124095918D01*
X143265301Y-124733373D01*
X143264699Y-125423599D01*
X109213173Y-125423599D01*
X109297622Y-125180922D01*
X109268083Y-124670572D01*
X109129611Y-124336271D01*
X108899016Y-124280590D01*
X108179605Y-125000000D01*
X107820395Y-125000000D01*
X107100984Y-124280590D01*
X106870389Y-124336271D01*
X106702378Y-124819078D01*
X103276679Y-124819078D01*
X103268083Y-124670572D01*
X103129611Y-124336271D01*
X102899016Y-124280590D01*
X102179605Y-125000000D01*
X101820395Y-125000000D01*
X101100984Y-124280590D01*
X100870389Y-124336271D01*
X100702378Y-124819078D01*
X96249545Y-124819078D01*
X96297622Y-124680922D01*
X96268083Y-124170572D01*
X96239259Y-124100984D01*
X101280590Y-124100984D01*
X102000000Y-124820395D01*
X102719410Y-124100984D01*
X107280590Y-124100984D01*
X108000000Y-124820395D01*
X108719410Y-124100984D01*
X108663729Y-123870389D01*
X108180922Y-123702378D01*
X107670572Y-123731917D01*
X107336271Y-123870389D01*
X107280590Y-124100984D01*
X102719410Y-124100984D01*
X102663729Y-123870389D01*
X102180922Y-123702378D01*
X101670572Y-123731917D01*
X101336271Y-123870389D01*
X101280590Y-124100984D01*
X96239259Y-124100984D01*
X96129611Y-123836271D01*
X95899016Y-123780590D01*
X95179605Y-124500000D01*
X94820395Y-124500000D01*
X94100984Y-123780590D01*
X93870389Y-123836271D01*
X93702378Y-124319078D01*
X73710000Y-124319078D01*
X73710000Y-123600984D01*
X94280590Y-123600984D01*
X95000000Y-124320395D01*
X95719410Y-123600984D01*
X95663729Y-123370389D01*
X95180922Y-123202378D01*
X94670572Y-123231917D01*
X94336271Y-123370389D01*
X94280590Y-123600984D01*
X73710000Y-123600984D01*
X73710000Y-123127000D01*
X141600000Y-123127000D01*
X141649410Y-123116994D01*
X141689803Y-123089803D01*
X143152606Y-121627000D01*
X143489859Y-121627000D01*
X143254677Y-122251593D01*
X143277164Y-122941453D01*
X143497901Y-123474359D01*
X143775132Y-123585263D01*
X144820395Y-122540000D01*
X144806253Y-122525858D01*
X144985858Y-122346253D01*
X145000000Y-122360395D01*
X145014143Y-122346253D01*
X145193748Y-122525858D01*
X145179605Y-122540000D01*
X146224868Y-123585263D01*
X146502099Y-123474359D01*
X146745323Y-122828407D01*
X146722836Y-122138547D01*
X146718053Y-122127000D01*
X153769219Y-122127000D01*
X153702378Y-122319078D01*
X153731917Y-122829428D01*
X153870389Y-123163729D01*
X154100984Y-123219410D01*
X154820395Y-122500000D01*
X154806252Y-122485858D01*
X154985858Y-122306253D01*
X155000000Y-122320395D01*
X155014143Y-122306253D01*
X155193748Y-122485858D01*
X155179605Y-122500000D01*
X155899016Y-123219410D01*
X156129611Y-123163729D01*
X156297622Y-122680922D01*
X156268083Y-122170572D01*
X156250035Y-122127000D01*
X172000000Y-122127000D01*
X172049410Y-122116994D01*
X172091035Y-122088553D01*
X172118315Y-122046159D01*
X172127000Y-122000000D01*
X172127000Y-104000000D01*
X172116994Y-103950590D01*
X172089803Y-103910197D01*
X169127000Y-100947394D01*
X169127000Y-89000000D01*
X169116994Y-88950590D01*
X169088553Y-88908965D01*
X169046159Y-88881685D01*
X169000000Y-88873000D01*
X168368591Y-88873000D01*
X168036745Y-88735206D01*
X167565323Y-88734794D01*
X167230840Y-88873000D01*
X167000000Y-88873000D01*
X166950590Y-88883006D01*
X166908965Y-88911447D01*
X166881685Y-88953841D01*
X166873000Y-89000000D01*
X166873000Y-89171000D01*
X166795991Y-89247875D01*
X166634904Y-89635816D01*
X166615689Y-89589311D01*
X166312286Y-89285378D01*
X165915668Y-89120687D01*
X165662176Y-89120466D01*
X162668710Y-86127000D01*
X166000000Y-86127000D01*
X166049410Y-86116994D01*
X166089803Y-86089803D01*
X166165822Y-86013784D01*
X175620313Y-86013784D01*
X175784311Y-86410689D01*
X176087714Y-86714622D01*
X176484332Y-86879313D01*
X176737824Y-86879534D01*
X179979145Y-90120855D01*
X180218116Y-90280531D01*
X180387706Y-90314264D01*
X180587714Y-90514622D01*
X180984332Y-90679313D01*
X181413784Y-90679687D01*
X181810689Y-90515689D01*
X182114622Y-90212286D01*
X182279313Y-89815668D01*
X182279687Y-89386216D01*
X182115689Y-88989311D01*
X181812286Y-88685378D01*
X181415668Y-88520687D01*
X180986216Y-88520313D01*
X180615288Y-88673578D01*
X177779468Y-85837758D01*
X177779687Y-85586216D01*
X177615689Y-85189311D01*
X177312286Y-84885378D01*
X176915668Y-84720687D01*
X176486216Y-84720313D01*
X176089311Y-84884311D01*
X175785378Y-85187714D01*
X175620687Y-85584332D01*
X175620313Y-86013784D01*
X166165822Y-86013784D01*
X166388514Y-85791092D01*
X166491885Y-85770530D01*
X166730855Y-85610855D01*
X168962242Y-83379468D01*
X169213784Y-83379687D01*
X169610689Y-83215689D01*
X169914622Y-82912286D01*
X170079313Y-82515668D01*
X170079687Y-82086216D01*
X169915689Y-81689311D01*
X169612286Y-81385378D01*
X169215668Y-81220687D01*
X169127000Y-81220610D01*
X169127000Y-78136600D01*
X174021690Y-78136600D01*
X172037758Y-80120532D01*
X171786216Y-80120313D01*
X171389311Y-80284311D01*
X171085378Y-80587714D01*
X170920687Y-80984332D01*
X170920313Y-81413784D01*
X171084311Y-81810689D01*
X171387714Y-82114622D01*
X171784332Y-82279313D01*
X172213784Y-82279687D01*
X172610689Y-82115689D01*
X172914622Y-81812286D01*
X173079313Y-81415668D01*
X173079534Y-81162176D01*
X175810254Y-78431456D01*
X175884311Y-78610689D01*
X176187714Y-78914622D01*
X176584332Y-79079313D01*
X176720430Y-79079432D01*
X176720313Y-79213784D01*
X176884311Y-79610689D01*
X177187714Y-79914622D01*
X177393342Y-80000007D01*
X177189311Y-80084311D01*
X176885378Y-80387714D01*
X176720687Y-80784332D01*
X176720313Y-81213784D01*
X176884311Y-81610689D01*
X177187714Y-81914622D01*
X177584332Y-82079313D01*
X178013784Y-82079687D01*
X178410689Y-81915689D01*
X178590091Y-81736600D01*
X184494890Y-81736600D01*
X194063400Y-91305110D01*
X194063400Y-109000000D01*
X194064989Y-109007988D01*
X194063574Y-109016009D01*
X194092967Y-109148645D01*
X194119470Y-109281885D01*
X194123995Y-109288657D01*
X194125757Y-109296609D01*
X194203674Y-109407904D01*
X194279145Y-109520855D01*
X194285917Y-109525380D01*
X194290588Y-109532052D01*
X197930268Y-113016852D01*
X197865284Y-113173352D01*
X197864716Y-113823795D01*
X198113106Y-114424943D01*
X198572637Y-114885278D01*
X198763400Y-114964490D01*
X198763400Y-118535284D01*
X198575057Y-118613106D01*
X198114722Y-119072637D01*
X197865284Y-119673352D01*
X197864716Y-120323795D01*
X198113106Y-120924943D01*
X198572637Y-121385278D01*
X199173352Y-121634716D01*
X199823795Y-121635284D01*
X200424943Y-121386894D01*
X200885278Y-120927363D01*
X201134716Y-120326648D01*
X201135232Y-119735461D01*
X202354092Y-119735461D01*
X202378144Y-120385460D01*
X202580613Y-120874264D01*
X202847468Y-120972927D01*
X203820395Y-120000000D01*
X202847468Y-119027073D01*
X202580613Y-119125736D01*
X202354092Y-119735461D01*
X201135232Y-119735461D01*
X201135284Y-119676205D01*
X200886894Y-119075057D01*
X200427363Y-118614722D01*
X200236600Y-118535510D01*
X200236600Y-114964716D01*
X200424943Y-114886894D01*
X200885278Y-114427363D01*
X201134716Y-113826648D01*
X201135232Y-113235461D01*
X202354092Y-113235461D01*
X202378144Y-113885460D01*
X202580613Y-114374264D01*
X202847468Y-114472927D01*
X203820395Y-113500000D01*
X202847468Y-112527073D01*
X202580613Y-112625736D01*
X202354092Y-113235461D01*
X201135232Y-113235461D01*
X201135284Y-113176205D01*
X200886894Y-112575057D01*
X200427363Y-112114722D01*
X199826648Y-111865284D01*
X199176205Y-111864716D01*
X198953330Y-111956806D01*
X195536600Y-108685468D01*
X195536600Y-91000000D01*
X195480530Y-90718115D01*
X195320855Y-90479145D01*
X185578310Y-80736600D01*
X188494890Y-80736600D01*
X196063400Y-88305110D01*
X196063400Y-97000000D01*
X196066206Y-97014106D01*
X196063944Y-97028310D01*
X196094146Y-97154570D01*
X196119470Y-97281885D01*
X196127460Y-97293843D01*
X196130806Y-97307831D01*
X196207023Y-97412916D01*
X196279145Y-97520855D01*
X196291104Y-97528846D01*
X196299548Y-97540488D01*
X197920202Y-99041094D01*
X197865284Y-99173352D01*
X197864716Y-99823795D01*
X198113106Y-100424943D01*
X198572637Y-100885278D01*
X198763400Y-100964490D01*
X198763400Y-104535284D01*
X198575057Y-104613106D01*
X198114722Y-105072637D01*
X197865284Y-105673352D01*
X197864716Y-106323795D01*
X198113106Y-106924943D01*
X198572637Y-107385278D01*
X199173352Y-107634716D01*
X199823795Y-107635284D01*
X200424943Y-107386894D01*
X200885278Y-106927363D01*
X201134716Y-106326648D01*
X201135232Y-105735461D01*
X202354092Y-105735461D01*
X202378144Y-106385460D01*
X202580613Y-106874264D01*
X202847468Y-106972927D01*
X203820395Y-106000000D01*
X202847468Y-105027073D01*
X202580613Y-105125736D01*
X202354092Y-105735461D01*
X201135232Y-105735461D01*
X201135284Y-105676205D01*
X200886894Y-105075057D01*
X200427363Y-104614722D01*
X200236600Y-104535510D01*
X200236600Y-100964716D01*
X200424943Y-100886894D01*
X200885278Y-100427363D01*
X201134716Y-99826648D01*
X201135232Y-99235461D01*
X202354092Y-99235461D01*
X202378144Y-99885460D01*
X202580613Y-100374264D01*
X202847468Y-100472927D01*
X203820395Y-99500000D01*
X202847468Y-98527073D01*
X202580613Y-98625736D01*
X202354092Y-99235461D01*
X201135232Y-99235461D01*
X201135284Y-99176205D01*
X200886894Y-98575057D01*
X200427363Y-98114722D01*
X199826648Y-97865284D01*
X199176205Y-97864716D01*
X198928576Y-97967034D01*
X197536600Y-96678168D01*
X197536600Y-88000000D01*
X197480530Y-87718115D01*
X197320855Y-87479145D01*
X189578310Y-79736600D01*
X192494890Y-79736600D01*
X193279145Y-80520855D01*
X193284712Y-80524575D01*
X193288528Y-80530071D01*
X197932613Y-85011206D01*
X197865284Y-85173352D01*
X197864716Y-85823795D01*
X198113106Y-86424943D01*
X198572637Y-86885278D01*
X198763400Y-86964490D01*
X198763400Y-90535284D01*
X198575057Y-90613106D01*
X198114722Y-91072637D01*
X197865284Y-91673352D01*
X197864716Y-92323795D01*
X198113106Y-92924943D01*
X198572637Y-93385278D01*
X199173352Y-93634716D01*
X199823795Y-93635284D01*
X200424943Y-93386894D01*
X200885278Y-92927363D01*
X201134716Y-92326648D01*
X201135232Y-91735461D01*
X202354092Y-91735461D01*
X202378144Y-92385460D01*
X202580613Y-92874264D01*
X202847468Y-92972927D01*
X203820395Y-92000000D01*
X202847468Y-91027073D01*
X202580613Y-91125736D01*
X202354092Y-91735461D01*
X201135232Y-91735461D01*
X201135284Y-91676205D01*
X200886894Y-91075057D01*
X200427363Y-90614722D01*
X200236600Y-90535510D01*
X200236600Y-86964716D01*
X200424943Y-86886894D01*
X200885278Y-86427363D01*
X201134716Y-85826648D01*
X201135232Y-85235461D01*
X202354092Y-85235461D01*
X202378144Y-85885460D01*
X202580613Y-86374264D01*
X202847468Y-86472927D01*
X203820395Y-85500000D01*
X202847468Y-84527073D01*
X202580613Y-84625736D01*
X202354092Y-85235461D01*
X201135232Y-85235461D01*
X201135284Y-85176205D01*
X200886894Y-84575057D01*
X200427363Y-84114722D01*
X199826648Y-83865284D01*
X199176205Y-83864716D01*
X198959057Y-83954440D01*
X194316231Y-79474521D01*
X193578310Y-78736600D01*
X198035284Y-78736600D01*
X198113106Y-78924943D01*
X198572637Y-79385278D01*
X199173352Y-79634716D01*
X199823795Y-79635284D01*
X200424943Y-79386894D01*
X200885278Y-78927363D01*
X201134716Y-78326648D01*
X201135232Y-77735461D01*
X202354092Y-77735461D01*
X202378144Y-78385460D01*
X202580613Y-78874264D01*
X202847468Y-78972927D01*
X203820395Y-78000000D01*
X202847468Y-77027073D01*
X202580613Y-77125736D01*
X202354092Y-77735461D01*
X201135232Y-77735461D01*
X201135284Y-77676205D01*
X200886894Y-77075057D01*
X200427363Y-76614722D01*
X200236600Y-76535510D01*
X200236600Y-72964716D01*
X200424943Y-72886894D01*
X200885278Y-72427363D01*
X201134716Y-71826648D01*
X201135232Y-71235461D01*
X202354092Y-71235461D01*
X202378144Y-71885460D01*
X202580613Y-72374264D01*
X202847468Y-72472927D01*
X203820395Y-71500000D01*
X202847468Y-70527073D01*
X202580613Y-70625736D01*
X202354092Y-71235461D01*
X201135232Y-71235461D01*
X201135284Y-71176205D01*
X200886894Y-70575057D01*
X200427363Y-70114722D01*
X199826648Y-69865284D01*
X199176205Y-69864716D01*
X198575057Y-70113106D01*
X198114722Y-70572637D01*
X197865284Y-71173352D01*
X197864716Y-71823795D01*
X198113106Y-72424943D01*
X198572637Y-72885278D01*
X198763400Y-72964490D01*
X198763400Y-76535284D01*
X198575057Y-76613106D01*
X198114722Y-77072637D01*
X198035510Y-77263400D01*
X177589998Y-77263400D01*
X177476819Y-77150023D01*
X177514622Y-77112286D01*
X177679313Y-76715668D01*
X177679687Y-76286216D01*
X177515689Y-75889311D01*
X177212286Y-75585378D01*
X177102090Y-75539620D01*
X178662242Y-73979468D01*
X178913784Y-73979687D01*
X179310689Y-73815689D01*
X179614622Y-73512286D01*
X179779313Y-73115668D01*
X179779687Y-72686216D01*
X179615689Y-72289311D01*
X179312286Y-71985378D01*
X178915668Y-71820687D01*
X178486216Y-71820313D01*
X178089311Y-71984311D01*
X177785378Y-72287714D01*
X177620687Y-72684332D01*
X177620466Y-72937824D01*
X173894890Y-76663400D01*
X169127000Y-76663400D01*
X169127000Y-60000000D01*
X169116994Y-59950590D01*
X169088553Y-59908965D01*
X169046159Y-59881685D01*
X169000000Y-59873000D01*
X165000000Y-59873000D01*
X164950590Y-59883006D01*
X164910197Y-59910197D01*
X158947394Y-65873000D01*
X158049822Y-65873000D01*
X158075515Y-65862384D01*
X158859631Y-65079635D01*
X159284515Y-64056401D01*
X159285482Y-62948460D01*
X158862384Y-61924485D01*
X158079635Y-61140369D01*
X157056401Y-60715485D01*
X155948460Y-60714518D01*
X154924485Y-61137616D01*
X154140369Y-61920365D01*
X153715485Y-62943599D01*
X153714518Y-64051540D01*
X154137616Y-65075515D01*
X154920365Y-65859631D01*
X154952561Y-65873000D01*
X141000000Y-65873000D01*
X140950590Y-65883006D01*
X140910197Y-65910197D01*
X131910197Y-74910197D01*
X131882334Y-74952211D01*
X131873000Y-75000000D01*
X131873000Y-84000000D01*
X131883006Y-84049410D01*
X131910197Y-84089803D01*
X133873000Y-86052606D01*
X133873000Y-91000000D01*
X133883006Y-91049410D01*
X133910197Y-91089803D01*
X135851400Y-93031006D01*
X135851400Y-97788000D01*
X135873000Y-97896591D01*
X135873000Y-98000000D01*
X135883006Y-98049410D01*
X135910197Y-98089803D01*
X135942087Y-98121693D01*
X136067145Y-98308855D01*
X145120532Y-107362242D01*
X145120313Y-107613784D01*
X145284311Y-108010689D01*
X145587714Y-108314622D01*
X145984332Y-108479313D01*
X146413784Y-108479687D01*
X146810689Y-108315689D01*
X146999708Y-108127000D01*
X147000000Y-108127000D01*
X147049410Y-108116994D01*
X147091035Y-108088553D01*
X147118315Y-108046159D01*
X147127000Y-108000000D01*
X147127000Y-107982477D01*
X147279313Y-107615668D01*
X147279687Y-107186216D01*
X147127000Y-106816686D01*
X147127000Y-106336600D01*
X150760175Y-106336600D01*
X150645267Y-106613330D01*
X150644735Y-107223991D01*
X150877932Y-107788371D01*
X151279182Y-108190323D01*
X150879449Y-108589357D01*
X150645267Y-109153330D01*
X150644735Y-109763991D01*
X150877932Y-110328371D01*
X151279182Y-110730323D01*
X150879449Y-111129357D01*
X150645267Y-111693330D01*
X150644735Y-112303991D01*
X150877932Y-112868371D01*
X151072620Y-113063400D01*
X136705110Y-113063400D01*
X114425584Y-90783874D01*
X114472680Y-90547106D01*
X114472680Y-89452894D01*
X123527320Y-89452894D01*
X123527320Y-90547106D01*
X123670783Y-91268342D01*
X124079330Y-91879776D01*
X124690764Y-92288323D01*
X125412000Y-92431786D01*
X126133236Y-92288323D01*
X126744670Y-91879776D01*
X127153217Y-91268342D01*
X127296680Y-90547106D01*
X127296680Y-89452894D01*
X129115320Y-89452894D01*
X129115320Y-90547106D01*
X129258783Y-91268342D01*
X129667330Y-91879776D01*
X130278764Y-92288323D01*
X131000000Y-92431786D01*
X131721236Y-92288323D01*
X132332670Y-91879776D01*
X132741217Y-91268342D01*
X132884680Y-90547106D01*
X132884680Y-89452894D01*
X132741217Y-88731658D01*
X132332670Y-88120224D01*
X131721236Y-87711677D01*
X131000000Y-87568214D01*
X130278764Y-87711677D01*
X129667330Y-88120224D01*
X129258783Y-88731658D01*
X129115320Y-89452894D01*
X127296680Y-89452894D01*
X127153217Y-88731658D01*
X126744670Y-88120224D01*
X126133236Y-87711677D01*
X125412000Y-87568214D01*
X124690764Y-87711677D01*
X124079330Y-88120224D01*
X123670783Y-88731658D01*
X123527320Y-89452894D01*
X114472680Y-89452894D01*
X114329217Y-88731658D01*
X113920670Y-88120224D01*
X113309236Y-87711677D01*
X112588000Y-87568214D01*
X111866764Y-87711677D01*
X111255330Y-88120224D01*
X110846783Y-88731658D01*
X110703320Y-89452894D01*
X110703320Y-90547106D01*
X110846783Y-91268342D01*
X111255330Y-91879776D01*
X111866764Y-92288323D01*
X112588000Y-92431786D01*
X113309236Y-92288323D01*
X113631370Y-92073080D01*
X135879145Y-114320855D01*
X136118115Y-114480530D01*
X136400000Y-114536600D01*
X162010002Y-114536600D01*
X162187714Y-114714622D01*
X162584332Y-114879313D01*
X162873000Y-114879564D01*
X162873000Y-120873000D01*
X146747440Y-120873000D01*
X146747440Y-118900000D01*
X146703162Y-118664683D01*
X146564090Y-118448559D01*
X146351890Y-118303569D01*
X146100000Y-118252560D01*
X143900000Y-118252560D01*
X143664683Y-118296838D01*
X143448559Y-118435910D01*
X143303569Y-118648110D01*
X143252560Y-118900000D01*
X143252560Y-119263400D01*
X112127000Y-119263400D01*
X112127000Y-111000000D01*
X112116994Y-110950590D01*
X112089803Y-110910197D01*
X103622225Y-102442619D01*
X116764613Y-102442619D01*
X117104155Y-103264372D01*
X117732321Y-103893636D01*
X118553481Y-104234611D01*
X119442619Y-104235387D01*
X120264372Y-103895845D01*
X120893636Y-103267679D01*
X121234611Y-102446519D01*
X121235387Y-101557381D01*
X120895845Y-100735628D01*
X120267679Y-100106364D01*
X119446519Y-99765389D01*
X118557381Y-99764613D01*
X117735628Y-100104155D01*
X117106364Y-100732321D01*
X116765389Y-101553481D01*
X116764613Y-102442619D01*
X103622225Y-102442619D01*
X96127000Y-94947394D01*
X96127000Y-89452894D01*
X99527320Y-89452894D01*
X99527320Y-90547106D01*
X99670783Y-91268342D01*
X100079330Y-91879776D01*
X100690764Y-92288323D01*
X101412000Y-92431786D01*
X102133236Y-92288323D01*
X102744670Y-91879776D01*
X103153217Y-91268342D01*
X103296680Y-90547106D01*
X103296680Y-89452894D01*
X105115320Y-89452894D01*
X105115320Y-90547106D01*
X105258783Y-91268342D01*
X105667330Y-91879776D01*
X106278764Y-92288323D01*
X107000000Y-92431786D01*
X107721236Y-92288323D01*
X108332670Y-91879776D01*
X108741217Y-91268342D01*
X108884680Y-90547106D01*
X108884680Y-89452894D01*
X108741217Y-88731658D01*
X108332670Y-88120224D01*
X107721236Y-87711677D01*
X107000000Y-87568214D01*
X106278764Y-87711677D01*
X105667330Y-88120224D01*
X105258783Y-88731658D01*
X105115320Y-89452894D01*
X103296680Y-89452894D01*
X103153217Y-88731658D01*
X102744670Y-88120224D01*
X102133236Y-87711677D01*
X101412000Y-87568214D01*
X100690764Y-87711677D01*
X100079330Y-88120224D01*
X99670783Y-88731658D01*
X99527320Y-89452894D01*
X96127000Y-89452894D01*
X96127000Y-65500159D01*
X96799446Y-65500159D01*
X96885852Y-65756643D01*
X97459336Y-65966458D01*
X98069460Y-65940839D01*
X98514148Y-65756643D01*
X98600554Y-65500159D01*
X104419446Y-65500159D01*
X104505852Y-65756643D01*
X105079336Y-65966458D01*
X105689460Y-65940839D01*
X106134148Y-65756643D01*
X106220554Y-65500159D01*
X105320000Y-64599605D01*
X104419446Y-65500159D01*
X98600554Y-65500159D01*
X97700000Y-64599605D01*
X96799446Y-65500159D01*
X96127000Y-65500159D01*
X96127000Y-65052606D01*
X96240957Y-64938649D01*
X96363357Y-65234148D01*
X96619841Y-65320554D01*
X97520395Y-64420000D01*
X97879605Y-64420000D01*
X98780159Y-65320554D01*
X99036643Y-65234148D01*
X99246458Y-64660664D01*
X99226248Y-64179336D01*
X103773542Y-64179336D01*
X103799161Y-64789460D01*
X103983357Y-65234148D01*
X104239841Y-65320554D01*
X105140395Y-64420000D01*
X105499605Y-64420000D01*
X106400159Y-65320554D01*
X106656643Y-65234148D01*
X106866458Y-64660664D01*
X106840839Y-64050540D01*
X106656643Y-63605852D01*
X106400159Y-63519446D01*
X105499605Y-64420000D01*
X105140395Y-64420000D01*
X104239841Y-63519446D01*
X103983357Y-63605852D01*
X103773542Y-64179336D01*
X99226248Y-64179336D01*
X99220839Y-64050540D01*
X99036643Y-63605852D01*
X98780159Y-63519446D01*
X97879605Y-64420000D01*
X97520395Y-64420000D01*
X97506253Y-64405858D01*
X97685858Y-64226253D01*
X97700000Y-64240395D01*
X98600554Y-63339841D01*
X98549965Y-63189673D01*
X98568371Y-63182068D01*
X99000551Y-62750643D01*
X99234733Y-62186670D01*
X99234944Y-61944662D01*
X103869783Y-57309823D01*
X104017932Y-57668371D01*
X104419182Y-58070323D01*
X104019449Y-58469357D01*
X103785267Y-59033330D01*
X103784735Y-59643991D01*
X104017932Y-60208371D01*
X104419182Y-60610323D01*
X104019449Y-61009357D01*
X103785267Y-61573330D01*
X103784735Y-62183991D01*
X104017932Y-62748371D01*
X104449357Y-63180551D01*
X104470194Y-63189203D01*
X104419446Y-63339841D01*
X105320000Y-64240395D01*
X106220554Y-63339841D01*
X106169965Y-63189673D01*
X106188371Y-63182068D01*
X106620551Y-62750643D01*
X106854733Y-62186670D01*
X106855135Y-61725000D01*
X135827560Y-61725000D01*
X135827560Y-63525000D01*
X135871838Y-63760317D01*
X136010910Y-63976441D01*
X136223110Y-64121431D01*
X136475000Y-64172440D01*
X138275000Y-64172440D01*
X138510317Y-64128162D01*
X138726441Y-63989090D01*
X138871431Y-63776890D01*
X138875567Y-63756466D01*
X139044357Y-63925551D01*
X139608330Y-64159733D01*
X140218991Y-64160265D01*
X140783371Y-63927068D01*
X141185323Y-63525818D01*
X141584357Y-63925551D01*
X142148330Y-64159733D01*
X142758991Y-64160265D01*
X143323371Y-63927068D01*
X143545668Y-63705159D01*
X144094446Y-63705159D01*
X144180852Y-63961643D01*
X144754336Y-64171458D01*
X145364460Y-64145839D01*
X145809148Y-63961643D01*
X145895554Y-63705159D01*
X144995000Y-62804605D01*
X144094446Y-63705159D01*
X143545668Y-63705159D01*
X143755551Y-63495643D01*
X143764203Y-63474806D01*
X143914841Y-63525554D01*
X144815395Y-62625000D01*
X145174605Y-62625000D01*
X146075159Y-63525554D01*
X146331643Y-63439148D01*
X146541458Y-62865664D01*
X146515839Y-62255540D01*
X146331643Y-61810852D01*
X146075159Y-61724446D01*
X145174605Y-62625000D01*
X144815395Y-62625000D01*
X143914841Y-61724446D01*
X143764673Y-61775035D01*
X143757068Y-61756629D01*
X143545650Y-61544841D01*
X144094446Y-61544841D01*
X144995000Y-62445395D01*
X145895554Y-61544841D01*
X145809148Y-61288357D01*
X145235664Y-61078542D01*
X144625540Y-61104161D01*
X144180852Y-61288357D01*
X144094446Y-61544841D01*
X143545650Y-61544841D01*
X143325643Y-61324449D01*
X142761670Y-61090267D01*
X142151009Y-61089735D01*
X141586629Y-61322932D01*
X141184677Y-61724182D01*
X140785643Y-61324449D01*
X140221670Y-61090267D01*
X139611009Y-61089735D01*
X139046629Y-61322932D01*
X138878387Y-61490880D01*
X138878162Y-61489683D01*
X138739090Y-61273559D01*
X138526890Y-61128569D01*
X138275000Y-61077560D01*
X136475000Y-61077560D01*
X136239683Y-61121838D01*
X136023559Y-61260910D01*
X135878569Y-61473110D01*
X135827560Y-61725000D01*
X106855135Y-61725000D01*
X106855265Y-61576009D01*
X106622068Y-61011629D01*
X106220818Y-60609677D01*
X106620551Y-60210643D01*
X106854733Y-59646670D01*
X106855265Y-59036009D01*
X106622068Y-58471629D01*
X106220818Y-58069677D01*
X106620551Y-57670643D01*
X106854733Y-57106670D01*
X106855265Y-56496009D01*
X106702794Y-56127000D01*
X136000000Y-56127000D01*
X136049410Y-56116994D01*
X136091035Y-56088553D01*
X136118315Y-56046159D01*
X136127000Y-56000000D01*
X136127000Y-55927534D01*
X136504357Y-56305551D01*
X137068330Y-56539733D01*
X137678991Y-56540265D01*
X138243371Y-56307068D01*
X138645323Y-55905818D01*
X139044357Y-56305551D01*
X139608330Y-56539733D01*
X140218991Y-56540265D01*
X140783371Y-56307068D01*
X141185323Y-55905818D01*
X141584357Y-56305551D01*
X142148330Y-56539733D01*
X142758991Y-56540265D01*
X143323371Y-56307068D01*
X143725323Y-55905818D01*
X144124357Y-56305551D01*
X144688330Y-56539733D01*
X145298991Y-56540265D01*
X145863371Y-56307068D01*
X146295551Y-55875643D01*
X146529733Y-55311670D01*
X146530265Y-54701009D01*
X146297068Y-54136629D01*
X145865643Y-53704449D01*
X145301670Y-53470267D01*
X144691009Y-53469735D01*
X144126629Y-53702932D01*
X143724677Y-54104182D01*
X143325643Y-53704449D01*
X142761670Y-53470267D01*
X142151009Y-53469735D01*
X141586629Y-53702932D01*
X141184677Y-54104182D01*
X140785643Y-53704449D01*
X140221670Y-53470267D01*
X139611009Y-53469735D01*
X139046629Y-53702932D01*
X138644677Y-54104182D01*
X138245643Y-53704449D01*
X137681670Y-53470267D01*
X137071009Y-53469735D01*
X136506629Y-53702932D01*
X136127000Y-54081898D01*
X136127000Y-53051540D01*
X164714518Y-53051540D01*
X165137616Y-54075515D01*
X165920365Y-54859631D01*
X166943599Y-55284515D01*
X168051540Y-55285482D01*
X169075515Y-54862384D01*
X169859631Y-54079635D01*
X170284515Y-53056401D01*
X170284997Y-52503021D01*
X172013560Y-52503021D01*
X172399437Y-53436915D01*
X173113327Y-54152052D01*
X174046546Y-54539559D01*
X175057021Y-54540440D01*
X175990915Y-54154563D01*
X176706052Y-53440673D01*
X177040597Y-52635000D01*
X180129560Y-52635000D01*
X180129560Y-54159000D01*
X180173838Y-54394317D01*
X180312910Y-54610441D01*
X180525110Y-54755431D01*
X180777000Y-54806440D01*
X182301000Y-54806440D01*
X182536317Y-54762162D01*
X182752441Y-54623090D01*
X182897431Y-54410890D01*
X182948440Y-54159000D01*
X182948440Y-53704354D01*
X183147990Y-54187303D01*
X183540630Y-54580629D01*
X183596400Y-54603787D01*
X183596400Y-56498743D01*
X183389311Y-56584311D01*
X183085378Y-56887714D01*
X182920687Y-57284332D01*
X182920313Y-57713784D01*
X183084311Y-58110689D01*
X183387714Y-58414622D01*
X183784332Y-58579313D01*
X184213784Y-58579687D01*
X184545513Y-58442619D01*
X198564613Y-58442619D01*
X198904155Y-59264372D01*
X199532321Y-59893636D01*
X200353481Y-60234611D01*
X201242619Y-60235387D01*
X202064372Y-59895845D01*
X202693636Y-59267679D01*
X203034611Y-58446519D01*
X203035387Y-57557381D01*
X202695845Y-56735628D01*
X202067679Y-56106364D01*
X201246519Y-55765389D01*
X200357381Y-55764613D01*
X199535628Y-56104155D01*
X198906364Y-56732321D01*
X198565389Y-57553481D01*
X198564613Y-58442619D01*
X184545513Y-58442619D01*
X184610689Y-58415689D01*
X184914622Y-58112286D01*
X185079313Y-57715668D01*
X185079687Y-57286216D01*
X185056871Y-57230996D01*
X185069600Y-57167000D01*
X185069600Y-54604200D01*
X185123303Y-54582010D01*
X185516629Y-54189370D01*
X185666606Y-53828185D01*
X185814990Y-54187303D01*
X186207630Y-54580629D01*
X186720900Y-54793757D01*
X187276661Y-54794242D01*
X187790303Y-54582010D01*
X188183629Y-54189370D01*
X188396757Y-53676100D01*
X188396759Y-53673664D01*
X188608990Y-54187303D01*
X189001630Y-54580629D01*
X189514900Y-54793757D01*
X190070661Y-54794242D01*
X190584303Y-54582010D01*
X190789457Y-54377213D01*
X191660392Y-54377213D01*
X191729857Y-54619397D01*
X192253302Y-54806144D01*
X192808368Y-54778362D01*
X193192143Y-54619397D01*
X193261608Y-54377213D01*
X192461000Y-53576605D01*
X191660392Y-54377213D01*
X190789457Y-54377213D01*
X190977629Y-54189370D01*
X191120973Y-53844159D01*
X191238603Y-54128143D01*
X191480787Y-54197608D01*
X192281395Y-53397000D01*
X192640605Y-53397000D01*
X193441213Y-54197608D01*
X193683397Y-54128143D01*
X193870144Y-53604698D01*
X193842362Y-53049632D01*
X193683397Y-52665857D01*
X193441213Y-52596392D01*
X192640605Y-53397000D01*
X192281395Y-53397000D01*
X191480787Y-52596392D01*
X191238603Y-52665857D01*
X191129645Y-52971262D01*
X190979010Y-52606697D01*
X190789432Y-52416787D01*
X191660392Y-52416787D01*
X192461000Y-53217395D01*
X193175374Y-52503021D01*
X197032560Y-52503021D01*
X197418437Y-53436915D01*
X198132327Y-54152052D01*
X199065546Y-54539559D01*
X200076021Y-54540440D01*
X201009915Y-54154563D01*
X201725052Y-53440673D01*
X202112559Y-52507454D01*
X202113440Y-51496979D01*
X201727563Y-50563085D01*
X201013673Y-49847948D01*
X200080454Y-49460441D01*
X199069979Y-49459560D01*
X198136085Y-49845437D01*
X197420948Y-50559327D01*
X197033441Y-51492546D01*
X197032560Y-52503021D01*
X193175374Y-52503021D01*
X193261608Y-52416787D01*
X193192143Y-52174603D01*
X192668698Y-51987856D01*
X192113632Y-52015638D01*
X191729857Y-52174603D01*
X191660392Y-52416787D01*
X190789432Y-52416787D01*
X190586370Y-52213371D01*
X190073100Y-52000243D01*
X189517339Y-51999758D01*
X189003697Y-52211990D01*
X188610371Y-52604630D01*
X188397243Y-53117900D01*
X188397241Y-53120336D01*
X188185010Y-52606697D01*
X187792370Y-52213371D01*
X187279100Y-52000243D01*
X186723339Y-51999758D01*
X186209697Y-52211990D01*
X185816371Y-52604630D01*
X185666394Y-52965815D01*
X185518010Y-52606697D01*
X185125370Y-52213371D01*
X184612100Y-52000243D01*
X184056339Y-51999758D01*
X183542697Y-52211990D01*
X183149371Y-52604630D01*
X182948440Y-53088526D01*
X182948440Y-52635000D01*
X182904162Y-52399683D01*
X182765090Y-52183559D01*
X182552890Y-52038569D01*
X182301000Y-51987560D01*
X180777000Y-51987560D01*
X180541683Y-52031838D01*
X180325559Y-52170910D01*
X180180569Y-52383110D01*
X180129560Y-52635000D01*
X177040597Y-52635000D01*
X177093559Y-52507454D01*
X177094440Y-51496979D01*
X176839370Y-50879661D01*
X181538758Y-50879661D01*
X181750990Y-51393303D01*
X182143630Y-51786629D01*
X182656900Y-51999757D01*
X183212661Y-52000242D01*
X183726303Y-51788010D01*
X184119629Y-51395370D01*
X184332757Y-50882100D01*
X184332759Y-50879664D01*
X184544990Y-51393303D01*
X184937630Y-51786629D01*
X185450900Y-51999757D01*
X186006661Y-52000242D01*
X186520303Y-51788010D01*
X186913629Y-51395370D01*
X187063606Y-51034185D01*
X187211990Y-51393303D01*
X187604630Y-51786629D01*
X188117900Y-51999757D01*
X188673661Y-52000242D01*
X189187303Y-51788010D01*
X189580629Y-51395370D01*
X189793757Y-50882100D01*
X189793759Y-50879664D01*
X190005990Y-51393303D01*
X190398630Y-51786629D01*
X190911900Y-51999757D01*
X191467661Y-52000242D01*
X191981303Y-51788010D01*
X192374629Y-51395370D01*
X192587757Y-50882100D01*
X192588242Y-50326339D01*
X192376010Y-49812697D01*
X191983370Y-49419371D01*
X191470100Y-49206243D01*
X190914339Y-49205758D01*
X190400697Y-49417990D01*
X190007371Y-49810630D01*
X189794243Y-50323900D01*
X189794241Y-50326336D01*
X189582010Y-49812697D01*
X189189370Y-49419371D01*
X188676100Y-49206243D01*
X188120339Y-49205758D01*
X187606697Y-49417990D01*
X187213371Y-49810630D01*
X187063394Y-50171815D01*
X186915010Y-49812697D01*
X186522370Y-49419371D01*
X186009100Y-49206243D01*
X185453339Y-49205758D01*
X184939697Y-49417990D01*
X184546371Y-49810630D01*
X184333243Y-50323900D01*
X184333241Y-50326336D01*
X184121010Y-49812697D01*
X183728370Y-49419371D01*
X183215100Y-49206243D01*
X182659339Y-49205758D01*
X182145697Y-49417990D01*
X181752371Y-49810630D01*
X181539243Y-50323900D01*
X181538758Y-50879661D01*
X176839370Y-50879661D01*
X176708563Y-50563085D01*
X175994673Y-49847948D01*
X175061454Y-49460441D01*
X174050979Y-49459560D01*
X173117085Y-49845437D01*
X172401948Y-50559327D01*
X172014441Y-51492546D01*
X172013560Y-52503021D01*
X170284997Y-52503021D01*
X170285482Y-51948460D01*
X169862384Y-50924485D01*
X169079635Y-50140369D01*
X168056401Y-49715485D01*
X166948460Y-49714518D01*
X165924485Y-50137616D01*
X165140369Y-50920365D01*
X164715485Y-51943599D01*
X164714518Y-53051540D01*
X136127000Y-53051540D01*
X136127000Y-47710000D01*
X205090000Y-47710000D01*
X205090000Y-70235980D01*
G36*
X134873000Y-54873000D02*
X104000000Y-54873000D01*
X103950590Y-54883006D01*
X103910197Y-54910197D01*
X99234786Y-59585608D01*
X99235265Y-59036009D01*
X99002068Y-58471629D01*
X98834120Y-58303387D01*
X98835317Y-58303162D01*
X99051441Y-58164090D01*
X99196431Y-57951890D01*
X99247440Y-57700000D01*
X99247440Y-55900000D01*
X99203162Y-55664683D01*
X99064090Y-55448559D01*
X98851890Y-55303569D01*
X98600000Y-55252560D01*
X96800000Y-55252560D01*
X96564683Y-55296838D01*
X96348559Y-55435910D01*
X96203569Y-55648110D01*
X96152560Y-55900000D01*
X96152560Y-57700000D01*
X96196838Y-57935317D01*
X96335910Y-58151441D01*
X96548110Y-58296431D01*
X96568534Y-58300567D01*
X96399449Y-58469357D01*
X96165267Y-59033330D01*
X96164735Y-59643991D01*
X96397932Y-60208371D01*
X96799182Y-60610323D01*
X96399449Y-61009357D01*
X96165267Y-61573330D01*
X96164735Y-62183991D01*
X96302642Y-62517752D01*
X94910197Y-63910197D01*
X94882334Y-63952211D01*
X94873000Y-64000000D01*
X94873000Y-65317523D01*
X94720687Y-65684332D01*
X94720313Y-66113784D01*
X94873000Y-66483314D01*
X94873000Y-95000000D01*
X94883006Y-95049410D01*
X94910197Y-95089803D01*
X110873000Y-111052606D01*
X110873000Y-120000000D01*
X110883006Y-120049410D01*
X110910197Y-120089803D01*
X111010197Y-120189803D01*
X111052211Y-120217666D01*
X111100000Y-120227000D01*
X143323750Y-120227000D01*
X143265000Y-120285750D01*
X143265000Y-120317880D01*
X141994483Y-120373120D01*
X141955407Y-120381086D01*
X137976970Y-121873000D01*
X96244949Y-121873000D01*
X96285000Y-121776309D01*
X96285000Y-121285750D01*
X96126250Y-121127000D01*
X95127000Y-121127000D01*
X95127000Y-121147000D01*
X94873000Y-121147000D01*
X94873000Y-121127000D01*
X93873750Y-121127000D01*
X93715000Y-121285750D01*
X93715000Y-121776309D01*
X93755051Y-121873000D01*
X93127000Y-121873000D01*
X93127000Y-120223691D01*
X93715000Y-120223691D01*
X93715000Y-120714250D01*
X93873750Y-120873000D01*
X94873000Y-120873000D01*
X94873000Y-119873750D01*
X95127000Y-119873750D01*
X95127000Y-120873000D01*
X96126250Y-120873000D01*
X96285000Y-120714250D01*
X96285000Y-120285750D01*
X100715000Y-120285750D01*
X100715000Y-120776309D01*
X100811673Y-121009698D01*
X100990301Y-121188327D01*
X101223690Y-121285000D01*
X101714250Y-121285000D01*
X101873000Y-121126250D01*
X101873000Y-120127000D01*
X102127000Y-120127000D01*
X102127000Y-121126250D01*
X102285750Y-121285000D01*
X102776310Y-121285000D01*
X103009699Y-121188327D01*
X103188327Y-121009698D01*
X103285000Y-120776309D01*
X103285000Y-120285750D01*
X106715000Y-120285750D01*
X106715000Y-120776309D01*
X106811673Y-121009698D01*
X106990301Y-121188327D01*
X107223690Y-121285000D01*
X107714250Y-121285000D01*
X107873000Y-121126250D01*
X107873000Y-120127000D01*
X108127000Y-120127000D01*
X108127000Y-121126250D01*
X108285750Y-121285000D01*
X108776310Y-121285000D01*
X109009699Y-121188327D01*
X109188327Y-121009698D01*
X109285000Y-120776309D01*
X109285000Y-120285750D01*
X109126250Y-120127000D01*
X108127000Y-120127000D01*
X107873000Y-120127000D01*
X106873750Y-120127000D01*
X106715000Y-120285750D01*
X103285000Y-120285750D01*
X103126250Y-120127000D01*
X102127000Y-120127000D01*
X101873000Y-120127000D01*
X100873750Y-120127000D01*
X100715000Y-120285750D01*
X96285000Y-120285750D01*
X96285000Y-120223691D01*
X96188327Y-119990302D01*
X96009699Y-119811673D01*
X95776310Y-119715000D01*
X95285750Y-119715000D01*
X95127000Y-119873750D01*
X94873000Y-119873750D01*
X94714250Y-119715000D01*
X94223690Y-119715000D01*
X93990301Y-119811673D01*
X93811673Y-119990302D01*
X93715000Y-120223691D01*
X93127000Y-120223691D01*
X93127000Y-119223691D01*
X100715000Y-119223691D01*
X100715000Y-119714250D01*
X100873750Y-119873000D01*
X101873000Y-119873000D01*
X101873000Y-118873750D01*
X102127000Y-118873750D01*
X102127000Y-119873000D01*
X103126250Y-119873000D01*
X103285000Y-119714250D01*
X103285000Y-119223691D01*
X106715000Y-119223691D01*
X106715000Y-119714250D01*
X106873750Y-119873000D01*
X107873000Y-119873000D01*
X107873000Y-118873750D01*
X108127000Y-118873750D01*
X108127000Y-119873000D01*
X109126250Y-119873000D01*
X109285000Y-119714250D01*
X109285000Y-119223691D01*
X109188327Y-118990302D01*
X109009699Y-118811673D01*
X108776310Y-118715000D01*
X108285750Y-118715000D01*
X108127000Y-118873750D01*
X107873000Y-118873750D01*
X107714250Y-118715000D01*
X107223690Y-118715000D01*
X106990301Y-118811673D01*
X106811673Y-118990302D01*
X106715000Y-119223691D01*
X103285000Y-119223691D01*
X103188327Y-118990302D01*
X103009699Y-118811673D01*
X102776310Y-118715000D01*
X102285750Y-118715000D01*
X102127000Y-118873750D01*
X101873000Y-118873750D01*
X101714250Y-118715000D01*
X101223690Y-118715000D01*
X100990301Y-118811673D01*
X100811673Y-118990302D01*
X100715000Y-119223691D01*
X93127000Y-119223691D01*
X93127000Y-111285750D01*
X94065000Y-111285750D01*
X94065000Y-112426310D01*
X94161673Y-112659699D01*
X94340302Y-112838327D01*
X94573691Y-112935000D01*
X95714250Y-112935000D01*
X95873000Y-112776250D01*
X95873000Y-111127000D01*
X96127000Y-111127000D01*
X96127000Y-112776250D01*
X96285750Y-112935000D01*
X97426309Y-112935000D01*
X97659698Y-112838327D01*
X97838327Y-112659699D01*
X97935000Y-112426310D01*
X97935000Y-111285750D01*
X97776250Y-111127000D01*
X96127000Y-111127000D01*
X95873000Y-111127000D01*
X94223750Y-111127000D01*
X94065000Y-111285750D01*
X93127000Y-111285750D01*
X93127000Y-109573690D01*
X94065000Y-109573690D01*
X94065000Y-110714250D01*
X94223750Y-110873000D01*
X95873000Y-110873000D01*
X95873000Y-109223750D01*
X96127000Y-109223750D01*
X96127000Y-110873000D01*
X97776250Y-110873000D01*
X97935000Y-110714250D01*
X97935000Y-109573690D01*
X97838327Y-109340301D01*
X97659698Y-109161673D01*
X97426309Y-109065000D01*
X96285750Y-109065000D01*
X96127000Y-109223750D01*
X95873000Y-109223750D01*
X95714250Y-109065000D01*
X94573691Y-109065000D01*
X94340302Y-109161673D01*
X94161673Y-109340301D01*
X94065000Y-109573690D01*
X93127000Y-109573690D01*
X93127000Y-108127000D01*
X98448718Y-108127000D01*
X104073000Y-113553939D01*
X104073000Y-116000000D01*
X104083006Y-116049410D01*
X104111447Y-116091035D01*
X104153841Y-116118315D01*
X104200000Y-116127000D01*
X105000000Y-116127000D01*
X105049410Y-116116994D01*
X105091035Y-116088553D01*
X105118315Y-116046159D01*
X105127000Y-116000000D01*
X105127000Y-113000000D01*
X105116994Y-112950590D01*
X105089803Y-112910197D01*
X99089803Y-106910197D01*
X99047789Y-106882334D01*
X99000000Y-106873000D01*
X73710000Y-106873000D01*
X73710000Y-64051540D01*
X82214518Y-64051540D01*
X82637616Y-65075515D01*
X83420365Y-65859631D01*
X84443599Y-66284515D01*
X85551540Y-66285482D01*
X86575515Y-65862384D01*
X87359631Y-65079635D01*
X87784515Y-64056401D01*
X87785482Y-62948460D01*
X87362384Y-61924485D01*
X86579635Y-61140369D01*
X85556401Y-60715485D01*
X84448460Y-60714518D01*
X83424485Y-61137616D01*
X82640369Y-61920365D01*
X82215485Y-62943599D01*
X82214518Y-64051540D01*
X73710000Y-64051540D01*
X73710000Y-58442619D01*
X75764613Y-58442619D01*
X76104155Y-59264372D01*
X76732321Y-59893636D01*
X77553481Y-60234611D01*
X78442619Y-60235387D01*
X79264372Y-59895845D01*
X79893636Y-59267679D01*
X80234611Y-58446519D01*
X80235387Y-57557381D01*
X79895845Y-56735628D01*
X79267679Y-56106364D01*
X78446519Y-55765389D01*
X77557381Y-55764613D01*
X76735628Y-56104155D01*
X76106364Y-56732321D01*
X75765389Y-57553481D01*
X75764613Y-58442619D01*
X73710000Y-58442619D01*
X73710000Y-53051540D01*
X82214518Y-53051540D01*
X82637616Y-54075515D01*
X83420365Y-54859631D01*
X84443599Y-55284515D01*
X85551540Y-55285482D01*
X86575515Y-54862384D01*
X87359631Y-54079635D01*
X87784515Y-53056401D01*
X87785482Y-51948460D01*
X87481920Y-51213784D01*
X96920313Y-51213784D01*
X97084311Y-51610689D01*
X97387714Y-51914622D01*
X97784332Y-52079313D01*
X98037824Y-52079534D01*
X98779145Y-52820855D01*
X99018115Y-52980530D01*
X99300000Y-53036600D01*
X100210002Y-53036600D01*
X100387714Y-53214622D01*
X100784332Y-53379313D01*
X101213784Y-53379687D01*
X101610689Y-53215689D01*
X101914622Y-52912286D01*
X102079313Y-52515668D01*
X102079534Y-52262176D01*
X103505110Y-50836600D01*
X107410002Y-50836600D01*
X107587714Y-51014622D01*
X107984332Y-51179313D01*
X108413784Y-51179687D01*
X108810689Y-51015689D01*
X109012509Y-50814221D01*
X109181885Y-50780530D01*
X109420855Y-50620855D01*
X109962242Y-50079468D01*
X110213784Y-50079687D01*
X110610689Y-49915689D01*
X110914622Y-49612286D01*
X111079313Y-49215668D01*
X111079687Y-48786216D01*
X110915689Y-48389311D01*
X110612286Y-48085378D01*
X110215668Y-47920687D01*
X109786216Y-47920313D01*
X109389311Y-48084311D01*
X109085378Y-48387714D01*
X108920687Y-48784332D01*
X108920466Y-49037824D01*
X108784465Y-49173825D01*
X108415668Y-49020687D01*
X107986216Y-49020313D01*
X107589311Y-49184311D01*
X107409909Y-49363400D01*
X103200000Y-49363400D01*
X102918115Y-49419470D01*
X102815981Y-49487714D01*
X102679145Y-49579145D01*
X101037758Y-51220532D01*
X100786216Y-51220313D01*
X100389311Y-51384311D01*
X100209909Y-51563400D01*
X99605110Y-51563400D01*
X99079468Y-51037758D01*
X99079687Y-50786216D01*
X98915689Y-50389311D01*
X98612286Y-50085378D01*
X98215668Y-49920687D01*
X97786216Y-49920313D01*
X97389311Y-50084311D01*
X97085378Y-50387714D01*
X96920687Y-50784332D01*
X96920313Y-51213784D01*
X87481920Y-51213784D01*
X87362384Y-50924485D01*
X86579635Y-50140369D01*
X85556401Y-49715485D01*
X84448460Y-49714518D01*
X83424485Y-50137616D01*
X82640369Y-50920365D01*
X82215485Y-51943599D01*
X82214518Y-53051540D01*
X73710000Y-53051540D01*
X73710000Y-47710000D01*
X134873000Y-47710000D01*
X134873000Y-54873000D01*
X134873000Y-54873000D01*
G37*
X134873000Y-54873000D02*
X104000000Y-54873000D01*
X103950590Y-54883006D01*
X103910197Y-54910197D01*
X99234786Y-59585608D01*
X99235265Y-59036009D01*
X99002068Y-58471629D01*
X98834120Y-58303387D01*
X98835317Y-58303162D01*
X99051441Y-58164090D01*
X99196431Y-57951890D01*
X99247440Y-57700000D01*
X99247440Y-55900000D01*
X99203162Y-55664683D01*
X99064090Y-55448559D01*
X98851890Y-55303569D01*
X98600000Y-55252560D01*
X96800000Y-55252560D01*
X96564683Y-55296838D01*
X96348559Y-55435910D01*
X96203569Y-55648110D01*
X96152560Y-55900000D01*
X96152560Y-57700000D01*
X96196838Y-57935317D01*
X96335910Y-58151441D01*
X96548110Y-58296431D01*
X96568534Y-58300567D01*
X96399449Y-58469357D01*
X96165267Y-59033330D01*
X96164735Y-59643991D01*
X96397932Y-60208371D01*
X96799182Y-60610323D01*
X96399449Y-61009357D01*
X96165267Y-61573330D01*
X96164735Y-62183991D01*
X96302642Y-62517752D01*
X94910197Y-63910197D01*
X94882334Y-63952211D01*
X94873000Y-64000000D01*
X94873000Y-65317523D01*
X94720687Y-65684332D01*
X94720313Y-66113784D01*
X94873000Y-66483314D01*
X94873000Y-95000000D01*
X94883006Y-95049410D01*
X94910197Y-95089803D01*
X110873000Y-111052606D01*
X110873000Y-120000000D01*
X110883006Y-120049410D01*
X110910197Y-120089803D01*
X111010197Y-120189803D01*
X111052211Y-120217666D01*
X111100000Y-120227000D01*
X143323750Y-120227000D01*
X143265000Y-120285750D01*
X143265000Y-120317880D01*
X141994483Y-120373120D01*
X141955407Y-120381086D01*
X137976970Y-121873000D01*
X96244949Y-121873000D01*
X96285000Y-121776309D01*
X96285000Y-121285750D01*
X96126250Y-121127000D01*
X95127000Y-121127000D01*
X95127000Y-121147000D01*
X94873000Y-121147000D01*
X94873000Y-121127000D01*
X93873750Y-121127000D01*
X93715000Y-121285750D01*
X93715000Y-121776309D01*
X93755051Y-121873000D01*
X93127000Y-121873000D01*
X93127000Y-120223691D01*
X93715000Y-120223691D01*
X93715000Y-120714250D01*
X93873750Y-120873000D01*
X94873000Y-120873000D01*
X94873000Y-119873750D01*
X95127000Y-119873750D01*
X95127000Y-120873000D01*
X96126250Y-120873000D01*
X96285000Y-120714250D01*
X96285000Y-120285750D01*
X100715000Y-120285750D01*
X100715000Y-120776309D01*
X100811673Y-121009698D01*
X100990301Y-121188327D01*
X101223690Y-121285000D01*
X101714250Y-121285000D01*
X101873000Y-121126250D01*
X101873000Y-120127000D01*
X102127000Y-120127000D01*
X102127000Y-121126250D01*
X102285750Y-121285000D01*
X102776310Y-121285000D01*
X103009699Y-121188327D01*
X103188327Y-121009698D01*
X103285000Y-120776309D01*
X103285000Y-120285750D01*
X106715000Y-120285750D01*
X106715000Y-120776309D01*
X106811673Y-121009698D01*
X106990301Y-121188327D01*
X107223690Y-121285000D01*
X107714250Y-121285000D01*
X107873000Y-121126250D01*
X107873000Y-120127000D01*
X108127000Y-120127000D01*
X108127000Y-121126250D01*
X108285750Y-121285000D01*
X108776310Y-121285000D01*
X109009699Y-121188327D01*
X109188327Y-121009698D01*
X109285000Y-120776309D01*
X109285000Y-120285750D01*
X109126250Y-120127000D01*
X108127000Y-120127000D01*
X107873000Y-120127000D01*
X106873750Y-120127000D01*
X106715000Y-120285750D01*
X103285000Y-120285750D01*
X103126250Y-120127000D01*
X102127000Y-120127000D01*
X101873000Y-120127000D01*
X100873750Y-120127000D01*
X100715000Y-120285750D01*
X96285000Y-120285750D01*
X96285000Y-120223691D01*
X96188327Y-119990302D01*
X96009699Y-119811673D01*
X95776310Y-119715000D01*
X95285750Y-119715000D01*
X95127000Y-119873750D01*
X94873000Y-119873750D01*
X94714250Y-119715000D01*
X94223690Y-119715000D01*
X93990301Y-119811673D01*
X93811673Y-119990302D01*
X93715000Y-120223691D01*
X93127000Y-120223691D01*
X93127000Y-119223691D01*
X100715000Y-119223691D01*
X100715000Y-119714250D01*
X100873750Y-119873000D01*
X101873000Y-119873000D01*
X101873000Y-118873750D01*
X102127000Y-118873750D01*
X102127000Y-119873000D01*
X103126250Y-119873000D01*
X103285000Y-119714250D01*
X103285000Y-119223691D01*
X106715000Y-119223691D01*
X106715000Y-119714250D01*
X106873750Y-119873000D01*
X107873000Y-119873000D01*
X107873000Y-118873750D01*
X108127000Y-118873750D01*
X108127000Y-119873000D01*
X109126250Y-119873000D01*
X109285000Y-119714250D01*
X109285000Y-119223691D01*
X109188327Y-118990302D01*
X109009699Y-118811673D01*
X108776310Y-118715000D01*
X108285750Y-118715000D01*
X108127000Y-118873750D01*
X107873000Y-118873750D01*
X107714250Y-118715000D01*
X107223690Y-118715000D01*
X106990301Y-118811673D01*
X106811673Y-118990302D01*
X106715000Y-119223691D01*
X103285000Y-119223691D01*
X103188327Y-118990302D01*
X103009699Y-118811673D01*
X102776310Y-118715000D01*
X102285750Y-118715000D01*
X102127000Y-118873750D01*
X101873000Y-118873750D01*
X101714250Y-118715000D01*
X101223690Y-118715000D01*
X100990301Y-118811673D01*
X100811673Y-118990302D01*
X100715000Y-119223691D01*
X93127000Y-119223691D01*
X93127000Y-111285750D01*
X94065000Y-111285750D01*
X94065000Y-112426310D01*
X94161673Y-112659699D01*
X94340302Y-112838327D01*
X94573691Y-112935000D01*
X95714250Y-112935000D01*
X95873000Y-112776250D01*
X95873000Y-111127000D01*
X96127000Y-111127000D01*
X96127000Y-112776250D01*
X96285750Y-112935000D01*
X97426309Y-112935000D01*
X97659698Y-112838327D01*
X97838327Y-112659699D01*
X97935000Y-112426310D01*
X97935000Y-111285750D01*
X97776250Y-111127000D01*
X96127000Y-111127000D01*
X95873000Y-111127000D01*
X94223750Y-111127000D01*
X94065000Y-111285750D01*
X93127000Y-111285750D01*
X93127000Y-109573690D01*
X94065000Y-109573690D01*
X94065000Y-110714250D01*
X94223750Y-110873000D01*
X95873000Y-110873000D01*
X95873000Y-109223750D01*
X96127000Y-109223750D01*
X96127000Y-110873000D01*
X97776250Y-110873000D01*
X97935000Y-110714250D01*
X97935000Y-109573690D01*
X97838327Y-109340301D01*
X97659698Y-109161673D01*
X97426309Y-109065000D01*
X96285750Y-109065000D01*
X96127000Y-109223750D01*
X95873000Y-109223750D01*
X95714250Y-109065000D01*
X94573691Y-109065000D01*
X94340302Y-109161673D01*
X94161673Y-109340301D01*
X94065000Y-109573690D01*
X93127000Y-109573690D01*
X93127000Y-108127000D01*
X98448718Y-108127000D01*
X104073000Y-113553939D01*
X104073000Y-116000000D01*
X104083006Y-116049410D01*
X104111447Y-116091035D01*
X104153841Y-116118315D01*
X104200000Y-116127000D01*
X105000000Y-116127000D01*
X105049410Y-116116994D01*
X105091035Y-116088553D01*
X105118315Y-116046159D01*
X105127000Y-116000000D01*
X105127000Y-113000000D01*
X105116994Y-112950590D01*
X105089803Y-112910197D01*
X99089803Y-106910197D01*
X99047789Y-106882334D01*
X99000000Y-106873000D01*
X73710000Y-106873000D01*
X73710000Y-64051540D01*
X82214518Y-64051540D01*
X82637616Y-65075515D01*
X83420365Y-65859631D01*
X84443599Y-66284515D01*
X85551540Y-66285482D01*
X86575515Y-65862384D01*
X87359631Y-65079635D01*
X87784515Y-64056401D01*
X87785482Y-62948460D01*
X87362384Y-61924485D01*
X86579635Y-61140369D01*
X85556401Y-60715485D01*
X84448460Y-60714518D01*
X83424485Y-61137616D01*
X82640369Y-61920365D01*
X82215485Y-62943599D01*
X82214518Y-64051540D01*
X73710000Y-64051540D01*
X73710000Y-58442619D01*
X75764613Y-58442619D01*
X76104155Y-59264372D01*
X76732321Y-59893636D01*
X77553481Y-60234611D01*
X78442619Y-60235387D01*
X79264372Y-59895845D01*
X79893636Y-59267679D01*
X80234611Y-58446519D01*
X80235387Y-57557381D01*
X79895845Y-56735628D01*
X79267679Y-56106364D01*
X78446519Y-55765389D01*
X77557381Y-55764613D01*
X76735628Y-56104155D01*
X76106364Y-56732321D01*
X75765389Y-57553481D01*
X75764613Y-58442619D01*
X73710000Y-58442619D01*
X73710000Y-53051540D01*
X82214518Y-53051540D01*
X82637616Y-54075515D01*
X83420365Y-54859631D01*
X84443599Y-55284515D01*
X85551540Y-55285482D01*
X86575515Y-54862384D01*
X87359631Y-54079635D01*
X87784515Y-53056401D01*
X87785482Y-51948460D01*
X87481920Y-51213784D01*
X96920313Y-51213784D01*
X97084311Y-51610689D01*
X97387714Y-51914622D01*
X97784332Y-52079313D01*
X98037824Y-52079534D01*
X98779145Y-52820855D01*
X99018115Y-52980530D01*
X99300000Y-53036600D01*
X100210002Y-53036600D01*
X100387714Y-53214622D01*
X100784332Y-53379313D01*
X101213784Y-53379687D01*
X101610689Y-53215689D01*
X101914622Y-52912286D01*
X102079313Y-52515668D01*
X102079534Y-52262176D01*
X103505110Y-50836600D01*
X107410002Y-50836600D01*
X107587714Y-51014622D01*
X107984332Y-51179313D01*
X108413784Y-51179687D01*
X108810689Y-51015689D01*
X109012509Y-50814221D01*
X109181885Y-50780530D01*
X109420855Y-50620855D01*
X109962242Y-50079468D01*
X110213784Y-50079687D01*
X110610689Y-49915689D01*
X110914622Y-49612286D01*
X111079313Y-49215668D01*
X111079687Y-48786216D01*
X110915689Y-48389311D01*
X110612286Y-48085378D01*
X110215668Y-47920687D01*
X109786216Y-47920313D01*
X109389311Y-48084311D01*
X109085378Y-48387714D01*
X108920687Y-48784332D01*
X108920466Y-49037824D01*
X108784465Y-49173825D01*
X108415668Y-49020687D01*
X107986216Y-49020313D01*
X107589311Y-49184311D01*
X107409909Y-49363400D01*
X103200000Y-49363400D01*
X102918115Y-49419470D01*
X102815981Y-49487714D01*
X102679145Y-49579145D01*
X101037758Y-51220532D01*
X100786216Y-51220313D01*
X100389311Y-51384311D01*
X100209909Y-51563400D01*
X99605110Y-51563400D01*
X99079468Y-51037758D01*
X99079687Y-50786216D01*
X98915689Y-50389311D01*
X98612286Y-50085378D01*
X98215668Y-49920687D01*
X97786216Y-49920313D01*
X97389311Y-50084311D01*
X97085378Y-50387714D01*
X96920687Y-50784332D01*
X96920313Y-51213784D01*
X87481920Y-51213784D01*
X87362384Y-50924485D01*
X86579635Y-50140369D01*
X85556401Y-49715485D01*
X84448460Y-49714518D01*
X83424485Y-50137616D01*
X82640369Y-50920365D01*
X82215485Y-51943599D01*
X82214518Y-53051540D01*
X73710000Y-53051540D01*
X73710000Y-47710000D01*
X134873000Y-47710000D01*
X134873000Y-54873000D01*
G36*
X91873000Y-121873000D02*
X73710000Y-121873000D01*
X73710000Y-112369459D01*
X74490146Y-112369459D01*
X74625504Y-112667455D01*
X75343880Y-112944066D01*
X76113427Y-112924710D01*
X76734496Y-112667455D01*
X76869854Y-112369459D01*
X75680000Y-111179605D01*
X74490146Y-112369459D01*
X73710000Y-112369459D01*
X73710000Y-110663880D01*
X73735934Y-110663880D01*
X73755290Y-111433427D01*
X74012545Y-112054496D01*
X74310541Y-112189854D01*
X75500395Y-111000000D01*
X75859605Y-111000000D01*
X77049459Y-112189854D01*
X77347455Y-112054496D01*
X77624066Y-111336120D01*
X77604710Y-110566573D01*
X77347455Y-109945504D01*
X77049459Y-109810146D01*
X75859605Y-111000000D01*
X75500395Y-111000000D01*
X74310541Y-109810146D01*
X74012545Y-109945504D01*
X73735934Y-110663880D01*
X73710000Y-110663880D01*
X73710000Y-109630541D01*
X74490146Y-109630541D01*
X75680000Y-110820395D01*
X76869854Y-109630541D01*
X76734496Y-109332545D01*
X76016120Y-109055934D01*
X75246573Y-109075290D01*
X74625504Y-109332545D01*
X74490146Y-109630541D01*
X73710000Y-109630541D01*
X73710000Y-108127000D01*
X91873000Y-108127000D01*
X91873000Y-121873000D01*
X91873000Y-121873000D01*
G37*
X91873000Y-121873000D02*
X73710000Y-121873000D01*
X73710000Y-112369459D01*
X74490146Y-112369459D01*
X74625504Y-112667455D01*
X75343880Y-112944066D01*
X76113427Y-112924710D01*
X76734496Y-112667455D01*
X76869854Y-112369459D01*
X75680000Y-111179605D01*
X74490146Y-112369459D01*
X73710000Y-112369459D01*
X73710000Y-110663880D01*
X73735934Y-110663880D01*
X73755290Y-111433427D01*
X74012545Y-112054496D01*
X74310541Y-112189854D01*
X75500395Y-111000000D01*
X75859605Y-111000000D01*
X77049459Y-112189854D01*
X77347455Y-112054496D01*
X77624066Y-111336120D01*
X77604710Y-110566573D01*
X77347455Y-109945504D01*
X77049459Y-109810146D01*
X75859605Y-111000000D01*
X75500395Y-111000000D01*
X74310541Y-109810146D01*
X74012545Y-109945504D01*
X73735934Y-110663880D01*
X73710000Y-110663880D01*
X73710000Y-109630541D01*
X74490146Y-109630541D01*
X75680000Y-110820395D01*
X76869854Y-109630541D01*
X76734496Y-109332545D01*
X76016120Y-109055934D01*
X75246573Y-109075290D01*
X74625504Y-109332545D01*
X74490146Y-109630541D01*
X73710000Y-109630541D01*
X73710000Y-108127000D01*
X91873000Y-108127000D01*
X91873000Y-121873000D01*
G36*
X167873000Y-76663400D02*
X163489998Y-76663400D01*
X163312286Y-76485378D01*
X162915668Y-76320687D01*
X162486216Y-76320313D01*
X162089311Y-76484311D01*
X161785378Y-76787714D01*
X161620687Y-77184332D01*
X161620313Y-77613784D01*
X161784311Y-78010689D01*
X162087714Y-78314622D01*
X162484332Y-78479313D01*
X162913784Y-78479687D01*
X163310689Y-78315689D01*
X163490091Y-78136600D01*
X167873000Y-78136600D01*
X167873000Y-82385290D01*
X165904890Y-84353400D01*
X161156515Y-84353400D01*
X161127000Y-84281969D01*
X161127000Y-83356947D01*
X161334733Y-82856670D01*
X161335265Y-82246009D01*
X161127000Y-81741969D01*
X161127000Y-80816947D01*
X161334733Y-80316670D01*
X161335265Y-79706009D01*
X161127000Y-79201969D01*
X161127000Y-78000000D01*
X161116994Y-77950590D01*
X161088553Y-77908965D01*
X161046159Y-77881685D01*
X161000000Y-77873000D01*
X159000000Y-77873000D01*
X158950590Y-77883006D01*
X158908965Y-77911447D01*
X158881685Y-77953841D01*
X158873000Y-78000000D01*
X158873000Y-78766459D01*
X158499449Y-79139357D01*
X158265267Y-79703330D01*
X158264735Y-80313991D01*
X158497932Y-80878371D01*
X158873000Y-81254095D01*
X158873000Y-81306459D01*
X158499449Y-81679357D01*
X158265267Y-82243330D01*
X158264735Y-82853991D01*
X158497932Y-83418371D01*
X158873000Y-83794095D01*
X158873000Y-83846459D01*
X158499449Y-84219357D01*
X158265267Y-84783330D01*
X158265145Y-84923435D01*
X157336600Y-83994890D01*
X157336600Y-76289998D01*
X157514622Y-76112286D01*
X157679313Y-75715668D01*
X157679687Y-75286216D01*
X157515689Y-74889311D01*
X157212286Y-74585378D01*
X156815668Y-74420687D01*
X156386216Y-74420313D01*
X156336600Y-74440814D01*
X156336600Y-73589998D01*
X156514622Y-73412286D01*
X156679313Y-73015668D01*
X156679687Y-72586216D01*
X156515689Y-72189311D01*
X156212286Y-71885378D01*
X155815668Y-71720687D01*
X155386216Y-71720313D01*
X154989311Y-71884311D01*
X154685378Y-72187714D01*
X154520687Y-72584332D01*
X154520313Y-73013784D01*
X154684311Y-73410689D01*
X154863400Y-73590091D01*
X154863400Y-85500000D01*
X154919470Y-85781885D01*
X155079145Y-86020855D01*
X158457844Y-89399554D01*
X158368002Y-89615917D01*
X158315689Y-89489311D01*
X158012286Y-89185378D01*
X157615668Y-89020687D01*
X157186216Y-89020313D01*
X156789311Y-89184311D01*
X156509734Y-89463400D01*
X155189998Y-89463400D01*
X155012286Y-89285378D01*
X154615668Y-89120687D01*
X154186216Y-89120313D01*
X153789311Y-89284311D01*
X153639962Y-89433400D01*
X153536515Y-89433400D01*
X153482068Y-89301629D01*
X153127000Y-88945940D01*
X153127000Y-88853576D01*
X153480551Y-88500643D01*
X153714733Y-87936670D01*
X153715265Y-87326009D01*
X153482068Y-86761629D01*
X153127000Y-86405940D01*
X153127000Y-86313576D01*
X153480551Y-85960643D01*
X153714733Y-85396670D01*
X153715265Y-84786009D01*
X153482068Y-84221629D01*
X153127000Y-83865940D01*
X153127000Y-83773576D01*
X153480551Y-83420643D01*
X153714733Y-82856670D01*
X153715265Y-82246009D01*
X153482068Y-81681629D01*
X153127000Y-81325940D01*
X153127000Y-81233576D01*
X153480551Y-80880643D01*
X153714733Y-80316670D01*
X153715265Y-79706009D01*
X153482068Y-79141629D01*
X153050643Y-78709449D01*
X152486670Y-78475267D01*
X151876009Y-78474735D01*
X151311629Y-78707932D01*
X151146272Y-78873000D01*
X151000000Y-78873000D01*
X150950590Y-78883006D01*
X150908965Y-78911447D01*
X150881685Y-78953841D01*
X150873000Y-79000000D01*
X150873000Y-79154888D01*
X150645267Y-79703330D01*
X150644735Y-80313991D01*
X150873000Y-80866435D01*
X150873000Y-81694888D01*
X150645267Y-82243330D01*
X150644735Y-82853991D01*
X150873000Y-83406435D01*
X150873000Y-84234888D01*
X150645267Y-84783330D01*
X150644735Y-85393991D01*
X150873000Y-85946435D01*
X150873000Y-86774888D01*
X150645267Y-87323330D01*
X150644735Y-87933991D01*
X150873000Y-88486435D01*
X150873000Y-89314888D01*
X150645267Y-89863330D01*
X150644735Y-90473991D01*
X150873000Y-91026435D01*
X150873000Y-91854888D01*
X150645267Y-92403330D01*
X150644735Y-93013991D01*
X150873000Y-93566435D01*
X150873000Y-94394888D01*
X150645267Y-94943330D01*
X150644735Y-95553991D01*
X150873000Y-96106435D01*
X150873000Y-97000000D01*
X150883006Y-97049410D01*
X150911447Y-97091035D01*
X150953841Y-97118315D01*
X151000000Y-97127000D01*
X153000000Y-97127000D01*
X153049410Y-97116994D01*
X153091035Y-97088553D01*
X153118315Y-97046159D01*
X153127000Y-97000000D01*
X153127000Y-96473576D01*
X153480551Y-96120643D01*
X153714733Y-95556670D01*
X153715265Y-94946009D01*
X153482068Y-94381629D01*
X153127000Y-94025940D01*
X153127000Y-93933576D01*
X153480551Y-93580643D01*
X153714733Y-93016670D01*
X153715265Y-92406009D01*
X153482068Y-91841629D01*
X153127000Y-91485940D01*
X153127000Y-91393576D01*
X153480551Y-91040643D01*
X153536211Y-90906600D01*
X153580055Y-90906600D01*
X153787714Y-91114622D01*
X154184332Y-91279313D01*
X154613784Y-91279687D01*
X155010689Y-91115689D01*
X155190091Y-90936600D01*
X156709828Y-90936600D01*
X156787714Y-91014622D01*
X157184332Y-91179313D01*
X157613784Y-91179687D01*
X158010689Y-91015689D01*
X158314622Y-90712286D01*
X158338969Y-90653652D01*
X158497932Y-91038371D01*
X158873000Y-91414095D01*
X158873000Y-91466459D01*
X158499449Y-91839357D01*
X158265267Y-92403330D01*
X158264735Y-93013991D01*
X158497932Y-93578371D01*
X158675092Y-93755841D01*
X158540302Y-93811673D01*
X158361673Y-93990301D01*
X158265000Y-94223690D01*
X158265000Y-94964250D01*
X158423750Y-95123000D01*
X158873000Y-95123000D01*
X158873000Y-95377000D01*
X158423750Y-95377000D01*
X158265000Y-95535750D01*
X158265000Y-96276310D01*
X158361673Y-96509699D01*
X158540302Y-96688327D01*
X158773691Y-96785000D01*
X158873000Y-96785000D01*
X158873000Y-97000000D01*
X158883006Y-97049410D01*
X158911447Y-97091035D01*
X158953841Y-97118315D01*
X159000000Y-97127000D01*
X161000000Y-97127000D01*
X161049410Y-97116994D01*
X161091035Y-97088553D01*
X161118315Y-97046159D01*
X161127000Y-97000000D01*
X161127000Y-96621025D01*
X161238327Y-96509699D01*
X161335000Y-96276310D01*
X161335000Y-95535750D01*
X161176250Y-95377000D01*
X161127000Y-95377000D01*
X161127000Y-95123000D01*
X161176250Y-95123000D01*
X161335000Y-94964250D01*
X161335000Y-94223690D01*
X161238327Y-93990301D01*
X161127000Y-93878975D01*
X161127000Y-93516947D01*
X161334733Y-93016670D01*
X161335265Y-92406009D01*
X161127000Y-91901969D01*
X161127000Y-90976947D01*
X161334733Y-90476670D01*
X161335265Y-89866009D01*
X161240475Y-89636600D01*
X162594890Y-89636600D01*
X164520532Y-91562242D01*
X164520313Y-91813784D01*
X164684311Y-92210689D01*
X164987714Y-92514622D01*
X165384332Y-92679313D01*
X165813784Y-92679687D01*
X166210689Y-92515689D01*
X166273441Y-92453047D01*
X166685013Y-92864619D01*
X166780390Y-93095448D01*
X166615206Y-93493255D01*
X166614794Y-93964677D01*
X166790222Y-94389244D01*
X166753299Y-94396508D01*
X166602028Y-94843001D01*
X166633137Y-95313396D01*
X166753299Y-95603492D01*
X166790610Y-95610833D01*
X166615206Y-96033255D01*
X166614794Y-96504677D01*
X166780390Y-96905448D01*
X166615206Y-97303255D01*
X166614794Y-97774677D01*
X166780390Y-98175448D01*
X166615206Y-98573255D01*
X166614794Y-99044677D01*
X166780390Y-99445448D01*
X166615206Y-99843255D01*
X166614794Y-100314677D01*
X166794820Y-100750372D01*
X167127875Y-101084009D01*
X167563255Y-101264794D01*
X168034677Y-101265206D01*
X168070711Y-101250317D01*
X170873000Y-104052606D01*
X170873000Y-120873000D01*
X164127000Y-120873000D01*
X164127000Y-111052606D01*
X166089803Y-109089803D01*
X166117666Y-109047789D01*
X166127000Y-109000000D01*
X166127000Y-108000000D01*
X166116994Y-107950590D01*
X166089803Y-107910197D01*
X165819036Y-107639430D01*
X165715689Y-107389311D01*
X165412286Y-107085378D01*
X165160385Y-106980779D01*
X161089803Y-102910197D01*
X161047789Y-102882334D01*
X161000000Y-102873000D01*
X160173458Y-102873000D01*
X160106670Y-102845267D01*
X159496009Y-102844735D01*
X159427602Y-102873000D01*
X158000000Y-102873000D01*
X157950590Y-102883006D01*
X157908965Y-102911447D01*
X157881685Y-102953841D01*
X157873000Y-103000000D01*
X157873000Y-104863400D01*
X154127000Y-104863400D01*
X154127000Y-103000000D01*
X154116994Y-102950590D01*
X154088553Y-102908965D01*
X154046159Y-102881685D01*
X154000000Y-102873000D01*
X152553458Y-102873000D01*
X152486670Y-102845267D01*
X151876009Y-102844735D01*
X151807602Y-102873000D01*
X145052606Y-102873000D01*
X140136600Y-97956994D01*
X140136600Y-82000000D01*
X140127000Y-81951737D01*
X140127000Y-73052606D01*
X145052606Y-68127000D01*
X159000000Y-68127000D01*
X159049410Y-68116994D01*
X159089803Y-68089803D01*
X166052606Y-61127000D01*
X167873000Y-61127000D01*
X167873000Y-76663400D01*
X167873000Y-76663400D01*
G37*
X167873000Y-76663400D02*
X163489998Y-76663400D01*
X163312286Y-76485378D01*
X162915668Y-76320687D01*
X162486216Y-76320313D01*
X162089311Y-76484311D01*
X161785378Y-76787714D01*
X161620687Y-77184332D01*
X161620313Y-77613784D01*
X161784311Y-78010689D01*
X162087714Y-78314622D01*
X162484332Y-78479313D01*
X162913784Y-78479687D01*
X163310689Y-78315689D01*
X163490091Y-78136600D01*
X167873000Y-78136600D01*
X167873000Y-82385290D01*
X165904890Y-84353400D01*
X161156515Y-84353400D01*
X161127000Y-84281969D01*
X161127000Y-83356947D01*
X161334733Y-82856670D01*
X161335265Y-82246009D01*
X161127000Y-81741969D01*
X161127000Y-80816947D01*
X161334733Y-80316670D01*
X161335265Y-79706009D01*
X161127000Y-79201969D01*
X161127000Y-78000000D01*
X161116994Y-77950590D01*
X161088553Y-77908965D01*
X161046159Y-77881685D01*
X161000000Y-77873000D01*
X159000000Y-77873000D01*
X158950590Y-77883006D01*
X158908965Y-77911447D01*
X158881685Y-77953841D01*
X158873000Y-78000000D01*
X158873000Y-78766459D01*
X158499449Y-79139357D01*
X158265267Y-79703330D01*
X158264735Y-80313991D01*
X158497932Y-80878371D01*
X158873000Y-81254095D01*
X158873000Y-81306459D01*
X158499449Y-81679357D01*
X158265267Y-82243330D01*
X158264735Y-82853991D01*
X158497932Y-83418371D01*
X158873000Y-83794095D01*
X158873000Y-83846459D01*
X158499449Y-84219357D01*
X158265267Y-84783330D01*
X158265145Y-84923435D01*
X157336600Y-83994890D01*
X157336600Y-76289998D01*
X157514622Y-76112286D01*
X157679313Y-75715668D01*
X157679687Y-75286216D01*
X157515689Y-74889311D01*
X157212286Y-74585378D01*
X156815668Y-74420687D01*
X156386216Y-74420313D01*
X156336600Y-74440814D01*
X156336600Y-73589998D01*
X156514622Y-73412286D01*
X156679313Y-73015668D01*
X156679687Y-72586216D01*
X156515689Y-72189311D01*
X156212286Y-71885378D01*
X155815668Y-71720687D01*
X155386216Y-71720313D01*
X154989311Y-71884311D01*
X154685378Y-72187714D01*
X154520687Y-72584332D01*
X154520313Y-73013784D01*
X154684311Y-73410689D01*
X154863400Y-73590091D01*
X154863400Y-85500000D01*
X154919470Y-85781885D01*
X155079145Y-86020855D01*
X158457844Y-89399554D01*
X158368002Y-89615917D01*
X158315689Y-89489311D01*
X158012286Y-89185378D01*
X157615668Y-89020687D01*
X157186216Y-89020313D01*
X156789311Y-89184311D01*
X156509734Y-89463400D01*
X155189998Y-89463400D01*
X155012286Y-89285378D01*
X154615668Y-89120687D01*
X154186216Y-89120313D01*
X153789311Y-89284311D01*
X153639962Y-89433400D01*
X153536515Y-89433400D01*
X153482068Y-89301629D01*
X153127000Y-88945940D01*
X153127000Y-88853576D01*
X153480551Y-88500643D01*
X153714733Y-87936670D01*
X153715265Y-87326009D01*
X153482068Y-86761629D01*
X153127000Y-86405940D01*
X153127000Y-86313576D01*
X153480551Y-85960643D01*
X153714733Y-85396670D01*
X153715265Y-84786009D01*
X153482068Y-84221629D01*
X153127000Y-83865940D01*
X153127000Y-83773576D01*
X153480551Y-83420643D01*
X153714733Y-82856670D01*
X153715265Y-82246009D01*
X153482068Y-81681629D01*
X153127000Y-81325940D01*
X153127000Y-81233576D01*
X153480551Y-80880643D01*
X153714733Y-80316670D01*
X153715265Y-79706009D01*
X153482068Y-79141629D01*
X153050643Y-78709449D01*
X152486670Y-78475267D01*
X151876009Y-78474735D01*
X151311629Y-78707932D01*
X151146272Y-78873000D01*
X151000000Y-78873000D01*
X150950590Y-78883006D01*
X150908965Y-78911447D01*
X150881685Y-78953841D01*
X150873000Y-79000000D01*
X150873000Y-79154888D01*
X150645267Y-79703330D01*
X150644735Y-80313991D01*
X150873000Y-80866435D01*
X150873000Y-81694888D01*
X150645267Y-82243330D01*
X150644735Y-82853991D01*
X150873000Y-83406435D01*
X150873000Y-84234888D01*
X150645267Y-84783330D01*
X150644735Y-85393991D01*
X150873000Y-85946435D01*
X150873000Y-86774888D01*
X150645267Y-87323330D01*
X150644735Y-87933991D01*
X150873000Y-88486435D01*
X150873000Y-89314888D01*
X150645267Y-89863330D01*
X150644735Y-90473991D01*
X150873000Y-91026435D01*
X150873000Y-91854888D01*
X150645267Y-92403330D01*
X150644735Y-93013991D01*
X150873000Y-93566435D01*
X150873000Y-94394888D01*
X150645267Y-94943330D01*
X150644735Y-95553991D01*
X150873000Y-96106435D01*
X150873000Y-97000000D01*
X150883006Y-97049410D01*
X150911447Y-97091035D01*
X150953841Y-97118315D01*
X151000000Y-97127000D01*
X153000000Y-97127000D01*
X153049410Y-97116994D01*
X153091035Y-97088553D01*
X153118315Y-97046159D01*
X153127000Y-97000000D01*
X153127000Y-96473576D01*
X153480551Y-96120643D01*
X153714733Y-95556670D01*
X153715265Y-94946009D01*
X153482068Y-94381629D01*
X153127000Y-94025940D01*
X153127000Y-93933576D01*
X153480551Y-93580643D01*
X153714733Y-93016670D01*
X153715265Y-92406009D01*
X153482068Y-91841629D01*
X153127000Y-91485940D01*
X153127000Y-91393576D01*
X153480551Y-91040643D01*
X153536211Y-90906600D01*
X153580055Y-90906600D01*
X153787714Y-91114622D01*
X154184332Y-91279313D01*
X154613784Y-91279687D01*
X155010689Y-91115689D01*
X155190091Y-90936600D01*
X156709828Y-90936600D01*
X156787714Y-91014622D01*
X157184332Y-91179313D01*
X157613784Y-91179687D01*
X158010689Y-91015689D01*
X158314622Y-90712286D01*
X158338969Y-90653652D01*
X158497932Y-91038371D01*
X158873000Y-91414095D01*
X158873000Y-91466459D01*
X158499449Y-91839357D01*
X158265267Y-92403330D01*
X158264735Y-93013991D01*
X158497932Y-93578371D01*
X158675092Y-93755841D01*
X158540302Y-93811673D01*
X158361673Y-93990301D01*
X158265000Y-94223690D01*
X158265000Y-94964250D01*
X158423750Y-95123000D01*
X158873000Y-95123000D01*
X158873000Y-95377000D01*
X158423750Y-95377000D01*
X158265000Y-95535750D01*
X158265000Y-96276310D01*
X158361673Y-96509699D01*
X158540302Y-96688327D01*
X158773691Y-96785000D01*
X158873000Y-96785000D01*
X158873000Y-97000000D01*
X158883006Y-97049410D01*
X158911447Y-97091035D01*
X158953841Y-97118315D01*
X159000000Y-97127000D01*
X161000000Y-97127000D01*
X161049410Y-97116994D01*
X161091035Y-97088553D01*
X161118315Y-97046159D01*
X161127000Y-97000000D01*
X161127000Y-96621025D01*
X161238327Y-96509699D01*
X161335000Y-96276310D01*
X161335000Y-95535750D01*
X161176250Y-95377000D01*
X161127000Y-95377000D01*
X161127000Y-95123000D01*
X161176250Y-95123000D01*
X161335000Y-94964250D01*
X161335000Y-94223690D01*
X161238327Y-93990301D01*
X161127000Y-93878975D01*
X161127000Y-93516947D01*
X161334733Y-93016670D01*
X161335265Y-92406009D01*
X161127000Y-91901969D01*
X161127000Y-90976947D01*
X161334733Y-90476670D01*
X161335265Y-89866009D01*
X161240475Y-89636600D01*
X162594890Y-89636600D01*
X164520532Y-91562242D01*
X164520313Y-91813784D01*
X164684311Y-92210689D01*
X164987714Y-92514622D01*
X165384332Y-92679313D01*
X165813784Y-92679687D01*
X166210689Y-92515689D01*
X166273441Y-92453047D01*
X166685013Y-92864619D01*
X166780390Y-93095448D01*
X166615206Y-93493255D01*
X166614794Y-93964677D01*
X166790222Y-94389244D01*
X166753299Y-94396508D01*
X166602028Y-94843001D01*
X166633137Y-95313396D01*
X166753299Y-95603492D01*
X166790610Y-95610833D01*
X166615206Y-96033255D01*
X166614794Y-96504677D01*
X166780390Y-96905448D01*
X166615206Y-97303255D01*
X166614794Y-97774677D01*
X166780390Y-98175448D01*
X166615206Y-98573255D01*
X166614794Y-99044677D01*
X166780390Y-99445448D01*
X166615206Y-99843255D01*
X166614794Y-100314677D01*
X166794820Y-100750372D01*
X167127875Y-101084009D01*
X167563255Y-101264794D01*
X168034677Y-101265206D01*
X168070711Y-101250317D01*
X170873000Y-104052606D01*
X170873000Y-120873000D01*
X164127000Y-120873000D01*
X164127000Y-111052606D01*
X166089803Y-109089803D01*
X166117666Y-109047789D01*
X166127000Y-109000000D01*
X166127000Y-108000000D01*
X166116994Y-107950590D01*
X166089803Y-107910197D01*
X165819036Y-107639430D01*
X165715689Y-107389311D01*
X165412286Y-107085378D01*
X165160385Y-106980779D01*
X161089803Y-102910197D01*
X161047789Y-102882334D01*
X161000000Y-102873000D01*
X160173458Y-102873000D01*
X160106670Y-102845267D01*
X159496009Y-102844735D01*
X159427602Y-102873000D01*
X158000000Y-102873000D01*
X157950590Y-102883006D01*
X157908965Y-102911447D01*
X157881685Y-102953841D01*
X157873000Y-103000000D01*
X157873000Y-104863400D01*
X154127000Y-104863400D01*
X154127000Y-103000000D01*
X154116994Y-102950590D01*
X154088553Y-102908965D01*
X154046159Y-102881685D01*
X154000000Y-102873000D01*
X152553458Y-102873000D01*
X152486670Y-102845267D01*
X151876009Y-102844735D01*
X151807602Y-102873000D01*
X145052606Y-102873000D01*
X140136600Y-97956994D01*
X140136600Y-82000000D01*
X140127000Y-81951737D01*
X140127000Y-73052606D01*
X145052606Y-68127000D01*
X159000000Y-68127000D01*
X159049410Y-68116994D01*
X159089803Y-68089803D01*
X166052606Y-61127000D01*
X167873000Y-61127000D01*
X167873000Y-76663400D01*
M02*
